<?xml version="1.0" encoding="UTF-8"?>
<svg viewBox="0 0 1010 595" version="1.1" xmlns="http://www.w3.org/2000/svg" xmlns:xlink="http://www.w3.org/1999/xlink">
    <g id="Page-1" stroke="none" stroke-width="1" fill="none" fill-rule="evenodd">
        <g id="Artboard-5">
            <g id="content-fon2" transform="translate(0.000000, 4.000000)">
                <g id="Group-13" transform="translate(510.000000, 85.000000) rotate(-180.000000) translate(-510.000000, -85.000000) ">
                    <path d="M0,5.5 L268.977564,5.5" id="Rectangle-9" stroke="#ECECEC" stroke-width="3" transform="translate(134.488782, 5.500000) rotate(-180.000000) translate(-134.488782, -5.500000) "></path>
                    <path d="M539.990891,108.308909 L626.944318,108.308909 C642.049741,108.308909 654.295106,121.264343 654.295106,137.253531 C654.295106,153.239205 642.047939,166.198154 626.944318,166.198154 L189.840039,164.740751" id="Rectangle-9" stroke="#ECECEC" stroke-width="3"></path>
                    <path d="M1019.66892,131.457403 L677,130" id="Rectangle-9-Copy" stroke="#ECECEC" stroke-width="3"></path>
                    <path d="M0,107 L540.360418,108.459171" id="Rectangle-9" stroke="#ECECEC" stroke-width="3" transform="translate(270.180209, 107.729586) rotate(-180.000000) translate(-270.180209, -107.729586) "></path>
                    <ellipse id="Oval-3" fill="#ECECEC" cx="191.604476" cy="164.227435" rx="5.5" ry="5.49886105"></ellipse>
                    <ellipse id="Oval-3" fill="#ECECEC" cx="677.603345" cy="130.602185" rx="5.60334531" ry="5.60218496"></ellipse>
                    <ellipse id="Oval-3" fill="#ECECEC" cx="267.560934" cy="5.49886105" rx="5.5" ry="5.49886105"></ellipse>
                    <ellipse id="Oval-3" fill="#ECECEC" cx="319.5" cy="107.498861" rx="5.5" ry="5.49886105"></ellipse>
                </g>
                <g id="Group-13-Copy" transform="translate(296.000000, 407.500000) rotate(-180.000000) translate(-296.000000, -407.500000) translate(0.000000, 219.000000)">
                    <path d="M364.320181,4.97851945 L451.31378,4.97851945 C466.426182,4.97851945 478.677204,17.9308301 478.677204,33.9161638 C478.677204,49.8979834 466.424379,62.8538081 451.31378,62.8538081 L4.206413e-12,62.8538081" id="Rectangle-9" stroke="#ECECEC" stroke-width="3" transform="translate(239.338602, 33.916164) rotate(-180.000000) translate(-239.338602, -33.916164) "></path>
                    <path d="M592,372.144329 L343.804425,370.687277" id="Rectangle-9" stroke="#ECECEC" stroke-width="3"></path>
                    <path d="M49.3248028,62.8538081 L332.850492,62.8538081 C354.723344,62.8538081 372.454794,83.3268153 372.454794,108.593956 C372.454794,133.855541 354.720736,154.334103 332.850492,154.334103 L13.7023503,154.334103" id="Rectangle-9" stroke="#ECECEC" stroke-width="3"></path>
                    <ellipse id="Oval-3" fill="#ECECEC" cx="483.836592" cy="5.5" rx="5.5" ry="5.5"></ellipse>
                    <ellipse id="Oval-3" fill="#ECECEC" cx="69.0290786" cy="63.370704" rx="5.5" ry="5.49541539"></ellipse>
                    <circle id="Oval-3" fill="#ECECEC" cx="344.321753" cy="370.798865" r="5.5"></circle>
                </g>
                <g id="Group-13-Copy-2" transform="translate(827.000000, 540.000000) rotate(-180.000000) translate(-827.000000, -540.000000) translate(634.000000, 479.000000)">
                    <path d="M375.565454,5.27940219 L2.84217094e-13,3.42861891" id="Rectangle-9" stroke="#ECECEC" stroke-width="3" transform="translate(187.782727, 4.354011) rotate(-180.000000) translate(-187.782727, -4.354011) "></path>
                    <path d="M195.006384,64.6881567 L293.869617,64.6881567 C307.544319,64.6881567 318.629856,77.494742 318.629856,93.300226 C318.629856,109.102236 307.542688,121.912295 293.869617,121.912295 L0,121.912295" id="Rectangle-9" stroke="#ECECEC" stroke-width="3"></path>
                    <ellipse id="Oval-3" fill="#ECECEC" cx="379.821099" cy="5.49844345" rx="5.5" ry="5.49844345"></ellipse>
                    <ellipse id="Oval-3-Copy" fill="#ECECEC" cx="193.789999" cy="63.9665851" rx="5.5" ry="5.49844345"></ellipse>
                </g>
            </g>
        </g>
    </g>
</svg>
