<svg width="358" height="110" viewBox="0 0 358 110" xmlns="http://www.w3.org/2000/svg"><title>7D840CDA-3E48-420A-AF7C-92B423F67D00</title><path d="M13.627 45.296a32.2 32.2 0 0 1 9.305-22.633 3.712 3.712 0 0 1 2.63-1.113c2.018 0 3.654 1.647 3.654 3.68a3.682 3.682 0 0 1-1.143 2.669 24.717 24.717 0 0 0-7.133 17.397 24.713 24.713 0 0 0 7.133 17.396 3.682 3.682 0 0 1 1.143 2.67c0 2.032-1.636 3.68-3.654 3.68a3.712 3.712 0 0 1-2.63-1.114 32.2 32.2 0 0 1-9.305-22.632zm56.43 0c0-6.78-2.728-12.927-7.133-17.397a3.683 3.683 0 0 1-1.143-2.67c0-2.032 1.637-3.68 3.654-3.68a3.71 3.71 0 0 1 2.63 1.114 32.2 32.2 0 0 1 9.305 22.633 32.2 32.2 0 0 1-9.305 22.632 3.71 3.71 0 0 1-2.63 1.113c-2.017 0-3.654-1.647-3.654-3.68 0-1.053.442-1.997 1.143-2.669a24.717 24.717 0 0 0 7.133-17.396zm-32.642 8.099c-3.55-3.558-4.294-8.875-2.226-13.152l10.327 10.35.177-.177L55.79 40.298c2.084 4.286 1.364 9.595-2.17 13.137a11.34 11.34 0 0 1-3.156 2.231l5.382 5.394a18.69 18.69 0 0 0 2.969-2.42c7.308-7.324 7.28-19.27-.062-26.629a18.946 18.946 0 0 0-2.875-2.363l-4.024 4.033-1.322 1.324-5.016 5.027-5.057-5.069.024-.012-5.378-5.39a18.68 18.68 0 0 0-2.922 2.391c-7.307 7.323-7.28 19.269.06 26.625a18.95 18.95 0 0 0 2.918 2.394l5.352-5.363a11.485 11.485 0 0 1-3.098-2.213zM45.498 0C20.648 0 .5 20.28.5 45.295c0 12.487 5.04 23.832 13.14 31.986.69.69 1.6 1.098 2.627 1.098 2.016 0 3.654-1.649 3.654-3.679a3.79 3.79 0 0 0-1.12-2.663A37.904 37.904 0 0 1 7.812 45.295c0-20.915 16.907-37.933 37.685-37.933 20.781 0 37.688 17.018 37.688 37.933 0 10.459-4.229 19.944-11.056 26.812L40.305 104.14l5.185 5.22 31.847-32.056A45.31 45.31 0 0 0 90.5 45.295C90.5 20.281 70.353 0 45.5 0zM104 62.574h6.446l3.321-20.072 8.351 20.072h2.149l8.742-20.072 2.93 20.072h6.446L136.915 30h-4.59l-9.035 20.706L114.646 30h-4.59L104 62.574zm54.306-21.83c-4.005 0-6.74 1.319-8.547 2.979-2.1 1.905-3.565 4.835-3.565 8.302 0 3.419 1.465 6.349 3.565 8.253 1.807 1.66 4.542 2.98 8.547 2.98 4.004 0 6.74-1.32 8.546-2.98 2.1-1.904 3.565-4.834 3.565-8.253 0-3.467-1.465-6.397-3.565-8.302-1.807-1.66-4.542-2.98-8.546-2.98zm0 17.24c-3.468 0-5.958-2.736-5.958-5.959 0-3.32 2.54-6.007 5.958-6.007s5.958 2.686 5.958 6.007c0 3.223-2.49 5.958-5.958 5.958zm32.622-15.97c-1.71-.83-3.516-1.27-5.714-1.27-2.05 0-5.03.44-7.618 2.735-2.149 1.904-3.663 4.883-3.663 8.595 0 3.956 1.758 6.593 3.37 8.107 1.905 1.807 4.835 3.076 8.156 3.076 2.441 0 4.297-.732 5.47-1.318v-5.812c-1.612 1.465-3.37 1.856-4.69 1.856-3.564 0-6.152-2.54-6.152-6.007 0-3.076 2.002-5.958 5.958-5.958 2.05 0 3.613.684 4.883 1.856v-5.86zm4.493 20.56h5.958V46.507h7.52v-5.08h-13.478v21.147zm27.641-21.83c-4.004 0-6.74 1.319-8.546 2.979-2.1 1.905-3.565 4.835-3.565 8.302 0 3.419 1.465 6.349 3.565 8.253 1.807 1.66 4.542 2.98 8.546 2.98 4.005 0 6.74-1.32 8.547-2.98 2.1-1.904 3.565-4.834 3.565-8.253 0-3.467-1.465-6.397-3.565-8.302-1.807-1.66-4.542-2.98-8.547-2.98zm0 17.24c-3.467 0-5.958-2.736-5.958-5.959 0-3.32 2.54-6.007 5.958-6.007 3.419 0 5.958 2.686 5.958 6.007 0 3.223-2.49 5.958-5.958 5.958zm22.66 1.855c2.344 3.174 5.323 3.418 6.788 3.418 3.126 0 5.568-1.22 7.18-2.734 1.22-1.173 3.32-3.76 3.32-8.547 0-4.2-1.611-6.837-3.174-8.4-2.393-2.393-5.372-2.832-7.228-2.832-3.907 0-5.958 2.1-6.886 3.418v-2.734h-5.958v32.33h5.958v-13.92zm5.275-13.82c1.416 0 2.979.536 4.053 1.513 1.172 1.123 1.807 2.881 1.807 4.444 0 1.563-.586 3.321-1.856 4.493-.781.733-2.051 1.514-4.004 1.514-1.856 0-3.126-.732-3.907-1.416-1.172-1.026-1.954-2.637-1.954-4.59 0-1.954.684-3.42 2.002-4.543 1.075-.976 2.296-1.416 3.859-1.416zm16.604-4.591v21.146h5.958V46.507h8.107v16.067h5.958V41.428H267.6zm41.901 2.734c-2.002-3.125-5.176-3.418-6.788-3.418-6.251 0-10.5 4.981-10.5 11.232 0 6.202 4.298 11.281 10.793 11.281 1.514 0 4.346-.341 6.495-3.418v2.735h5.958V41.428h-5.958v2.734zm-5.274 1.856c3.418 0 5.86 2.589 5.86 5.958 0 3.37-2.442 6.007-5.86 6.007-3.419 0-5.86-2.637-5.86-6.007 0-3.37 2.441-5.958 5.86-5.958zm32.818-4.004c-1.71-.83-3.517-1.27-5.714-1.27-2.051 0-5.03.44-7.619 2.735-2.148 1.904-3.662 4.883-3.662 8.595 0 3.956 1.758 6.593 3.37 8.107 1.904 1.807 4.834 3.076 8.155 3.076 2.442 0 4.298-.732 5.47-1.318v-5.812c-1.612 1.465-3.37 1.856-4.689 1.856-3.565 0-6.153-2.54-6.153-6.007 0-3.076 2.002-5.958 5.958-5.958 2.051 0 3.614.684 4.884 1.856v-5.86zm20.413 0c-1.71-.83-3.516-1.27-5.714-1.27-2.05 0-5.03.44-7.618 2.735-2.149 1.904-3.663 4.883-3.663 8.595 0 3.956 1.758 6.593 3.37 8.107 1.904 1.807 4.835 3.076 8.155 3.076 2.442 0 4.298-.732 5.47-1.318v-5.812c-1.611 1.465-3.37 1.856-4.688 1.856-3.565 0-6.153-2.54-6.153-6.007 0-3.076 2.002-5.958 5.958-5.958 2.05 0 3.613.684 4.883 1.856v-5.86zM111.795 82.85h-5.67v10.562H104V81.13h7.795v1.72zm11.17 4.741c0 1.204-.208 2.26-.624 3.168-.416.908-1.011 1.605-1.784 2.092-.774.486-1.664.73-2.67.73-.996 0-1.883-.244-2.662-.73-.779-.487-1.38-1.18-1.805-2.08-.425-.9-.64-1.937-.645-3.112v-.692c0-1.198.212-2.255.637-3.172.424-.916 1.023-1.618 1.796-2.104.774-.487 1.66-.73 2.662-.73 1 0 1.888.24 2.661.721.774.481 1.371 1.173 1.793 2.075.422.903.635 1.953.641 3.151v.683zm-2.134-.64c0-1.362-.258-2.405-.772-3.13-.515-.726-1.244-1.089-2.19-1.089-.921 0-1.643.362-2.163 1.084-.52.723-.786 1.745-.797 3.067v.708c0 1.35.263 2.393.789 3.13.525.737 1.255 1.105 2.189 1.105.945 0 1.671-.36 2.18-1.08.51-.72.764-1.771.764-3.155v-.64zm6.556 1.897v4.564h-2.134V81.13h4.698c1.373 0 2.462.357 3.27 1.07.806.715 1.21 1.66 1.21 2.835 0 1.204-.395 2.14-1.186 2.81-.79.669-1.896 1.003-3.319 1.003h-2.54zm0-1.712h2.564c.76 0 1.339-.179 1.738-.536.4-.357.599-.873.599-1.548 0-.663-.202-1.193-.607-1.59-.405-.396-.962-.6-1.67-.612h-2.624v4.286zm18.872.455c0 1.204-.208 2.26-.624 3.168-.416.908-1.011 1.605-1.784 2.092-.774.486-1.664.73-2.67.73-.996 0-1.883-.244-2.662-.73-.779-.487-1.38-1.18-1.805-2.08-.424-.9-.64-1.937-.645-3.112v-.692c0-1.198.212-2.255.637-3.172.424-.916 1.023-1.618 1.797-2.104.773-.487 1.66-.73 2.66-.73 1.002 0 1.89.24 2.662.721.774.481 1.371 1.173 1.793 2.075.422.903.635 1.953.641 3.151v.683zm-2.134-.64c0-1.362-.257-2.405-.772-3.13-.515-.726-1.244-1.089-2.19-1.089-.921 0-1.643.362-2.163 1.084-.52.723-.786 1.745-.797 3.067v.708c0 1.35.263 2.393.789 3.13.526.737 1.255 1.105 2.189 1.105.945 0 1.671-.36 2.18-1.08.51-.72.764-1.771.764-3.155v-.64zm15.439 9.48h-2.025v-3.02h-8.09v3.02h-2.058l-.067-4.723h.987c.489-.473.88-1.16 1.172-2.063.293-.902.481-1.924.565-3.066l.32-5.45h7.745v10.579h1.56l-.11 4.724zm-8.84-4.723h5.263V82.85h-3.585l-.203 3.46c-.151 2.31-.643 4.11-1.476 5.398zm19.884-2.295c-.124 1.31-.608 2.333-1.451 3.067-.844.734-1.966 1.1-3.366 1.1-.979 0-1.84-.231-2.586-.695-.745-.464-1.32-1.124-1.725-1.979-.405-.854-.616-1.847-.632-2.977V86.78c0-1.158.205-2.179.615-3.062.41-.883 1-1.563 1.768-2.041.767-.478 1.654-.717 2.661-.717 1.355 0 2.446.368 3.273 1.105s1.308 1.777 1.443 3.121h-2.126c-.101-.883-.359-1.52-.772-1.91-.413-.391-1.02-.587-1.818-.587-.928 0-1.64.339-2.138 1.017-.498.677-.752 1.671-.764 2.982v1.088c0 1.327.238 2.34.713 3.037.475.697 1.171 1.046 2.088 1.046.838 0 1.468-.189 1.89-.565.421-.377.688-1.004.8-1.882h2.127zm5.704-1.265h-1.451v5.264h-2.126V81.13h2.126v5.162h1.172l3.61-5.162h2.616l-4.218 5.88 4.59 6.402h-2.565l-3.754-5.264zm17.202-.557c0 1.204-.208 2.26-.625 3.168-.416.908-1.01 1.605-1.784 2.092-.773.486-1.663.73-2.67.73-.995 0-1.882-.244-2.661-.73-.779-.487-1.38-1.18-1.805-2.08-.425-.9-.64-1.937-.646-3.112v-.692c0-1.198.213-2.255.637-3.172.425-.916 1.024-1.618 1.797-2.104.773-.487 1.66-.73 2.662-.73 1 0 1.888.24 2.661.721.773.481 1.37 1.173 1.793 2.075.421.903.635 1.953.64 3.151v.683zm-2.135-.64c0-1.362-.257-2.405-.771-3.13-.515-.726-1.245-1.089-2.19-1.089-.922 0-1.643.362-2.163 1.084-.52.723-.786 1.745-.797 3.067v.708c0 1.35.263 2.393.788 3.13.526.737 1.256 1.105 2.19 1.105.944 0 1.671-.36 2.18-1.08.509-.72.763-1.771.763-3.155v-.64zm11.947-5.821h2.134v12.282h-2.134v-8.748l-5.39 8.748H195.8V81.13h2.135v8.756l5.39-8.756zm.067-3.13c0 .709-.247 1.282-.742 1.72-.495.44-1.156.659-1.982.659-.827 0-1.488-.22-1.983-.658-.494-.439-.742-1.012-.742-1.721h1.535c0 .371.106.66.317.865.21.205.502.308.873.308.37 0 .66-.103.869-.308.208-.206.312-.494.312-.865h1.543zm19 15.412h-2.125v-5.458h-5.492v5.458h-2.134V81.13h2.134v5.112h5.492V81.13h2.126v12.282zm9.712-2.86h-4.758l-.995 2.86h-2.219l4.64-12.282h1.915l4.648 12.282h-2.227l-1.004-2.86zm-4.159-1.72h3.56l-1.78-5.096-1.78 5.095zm8.944 4.58V81.13h4.209c1.39 0 2.446.278 3.172.835.725.556 1.088 1.386 1.088 2.488 0 .563-.152 1.069-.456 1.519-.303.45-.748.798-1.332 1.046.663.18 1.176.518 1.54 1.016.362.498.543 1.095.543 1.793 0 1.153-.37 2.038-1.11 2.657-.739.619-1.797.928-3.175.928h-4.48zm2.134-5.542v3.838h2.37c.67 0 1.192-.166 1.57-.498.376-.332.564-.793.564-1.383 0-1.277-.652-1.93-1.957-1.957h-2.547zm0-1.57h2.092c.663 0 1.182-.15 1.556-.45.374-.302.561-.728.561-1.279 0-.607-.173-1.046-.519-1.316-.345-.27-.884-.405-1.615-.405h-2.075v3.45zm16.451-5.17h2.134v12.282h-2.134v-8.748l-5.39 8.748h-2.135V81.13h2.135v8.756l5.39-8.756zm12.706 1.72h-5.669v10.562h-2.126V81.13h7.795v1.72zm7.079 7.702h-4.758l-.995 2.86h-2.219l4.64-12.282h1.915l4.648 12.282h-2.227l-1.004-2.86zm-4.159-1.72h3.56l-1.78-5.096-1.78 5.095zm16.806-5.982h-3.83v10.562h-2.118V82.85h-3.796v-1.72h9.744v1.72zm11.339 4.741c0 1.204-.208 2.26-.625 3.168-.416.908-1.01 1.605-1.784 2.092-.773.486-1.663.73-2.67.73-.995 0-1.882-.244-2.661-.73-.779-.487-1.38-1.18-1.805-2.08-.425-.9-.64-1.937-.646-3.112v-.692c0-1.198.213-2.255.637-3.172.425-.916 1.024-1.618 1.797-2.104.773-.487 1.66-.73 2.662-.73 1 0 1.888.24 2.661.721.773.481 1.37 1.173 1.793 2.075.421.903.635 1.953.64 3.151v.683zm-2.135-.64c0-1.362-.257-2.405-.771-3.13-.515-.726-1.245-1.089-2.19-1.089-.922 0-1.643.362-2.163 1.084-.52.723-.786 1.745-.797 3.067v.708c0 1.35.263 2.393.788 3.13.526.737 1.256 1.105 2.19 1.105.944 0 1.671-.36 2.18-1.08.509-.72.763-1.771.763-3.155v-.64zm6.557 1.897v4.564h-2.135V81.13h4.7c1.371 0 2.46.357 3.268 1.07.807.715 1.21 1.66 1.21 2.835 0 1.204-.395 2.14-1.185 2.81-.79.669-1.896 1.003-3.32 1.003h-2.538zm0-1.712h2.564c.76 0 1.339-.179 1.738-.536.4-.357.599-.873.599-1.548 0-.663-.203-1.193-.608-1.59-.405-.396-.961-.6-1.67-.612h-2.623v4.286z" fill="#FFF" fill-rule="evenodd"/></svg>