<?xml version="1.0" encoding="UTF-8" standalone="no"?>
<svg width="358px" height="110px" viewBox="0 0 358 110" version="1.1" xmlns="http://www.w3.org/2000/svg" xmlns:xlink="http://www.w3.org/1999/xlink">
    <!-- Generator: sketchtool 41.2 (35397) - http://www.bohemiancoding.com/sketch -->
    <title>7D840CDA-3E48-420A-AF7C-92B423F67D00</title>
    <desc>Created with sketchtool.</desc>
    <defs></defs>
    <g id="Page-1" stroke="none" stroke-width="1" fill="none" fill-rule="evenodd">
        <g id="large-devices--≥-1200px-" transform="translate(-541.000000, -98.000000)" fill="#FFFFFF">
            <g id="start-part">
                <g id="logo_mosgorpass" transform="translate(540.000000, 96.000000)">
                    <g id="Group" transform="translate(1.000000, 2.000000)">
                        <path d="M13.6268966,45.2955015 C13.6268966,36.4727524 17.2454049,28.3893714 22.9322976,22.6634348 C23.6039071,21.9887364 24.5309877,21.5497157 25.5618534,21.5497157 C27.5796758,21.5497157 29.2159548,23.1971267 29.2159548,25.2298891 C29.2159548,26.2826054 28.7745353,27.2273166 28.0726552,27.8990149 C23.6674422,32.3688923 20.9400889,38.516182 20.9400889,45.2955015 C20.9400889,52.0748211 23.6674422,58.2221108 28.0726552,62.6919881 C28.7745353,63.3636865 29.2159548,64.3083977 29.2159548,65.3611139 C29.2159548,67.3938764 27.5796758,69.0412874 25.5618534,69.0412874 C24.5309877,69.0412874 23.6039071,68.6022667 22.9322976,67.9275682 C17.2454049,62.2016317 13.6268966,54.1182507 13.6268966,45.2955015 Z M70.0567991,45.2955015 C70.0567991,38.516182 67.3294457,32.3688923 62.9242328,27.8990149 C62.2226853,27.2273166 61.7809332,26.2826054 61.7809332,25.2298891 C61.7809332,23.1971267 63.4175448,21.5497157 65.4350345,21.5497157 C66.4662329,21.5497157 67.3933135,21.9887364 68.0645904,22.6634348 C73.7514831,28.3893714 77.3699914,36.4727524 77.3699914,45.2955015 C77.3699914,54.1182507 73.7514831,62.2016317 68.0645904,67.9275682 C67.3933135,68.6022667 66.4662329,69.0412874 65.4350345,69.0412874 C63.4175448,69.0412874 61.7809332,67.3938764 61.7809332,65.3611139 C61.7809332,64.3083977 62.2226853,63.3636865 62.9242328,62.6919881 C67.3294457,58.2221108 70.0567991,52.0748211 70.0567991,45.2955015 Z M37.4145806,53.3949166 C33.864597,49.8374156 33.1214689,44.520165 35.1885227,40.2432968 L45.5164733,50.5931179 L45.6931076,50.4161096 L55.7902029,40.2976326 C57.8738889,44.5835013 57.1543786,49.8927516 53.6200293,53.4345852 C52.6763165,54.379963 51.6061987,55.1223314 50.463897,55.666357 L55.8464198,61.0602779 C56.896579,60.3702454 57.892517,59.563874 58.8146079,58.6398305 C66.1231432,51.3158186 66.0955337,39.3692556 58.7530687,32.0112421 C57.8575893,31.1138665 56.8929199,30.3274961 55.8780211,29.6481307 L51.8540189,33.6806541 L50.5320891,35.0050499 L45.5164733,40.0316201 L40.4589443,34.9633812 C40.4669278,34.959381 40.4745786,34.9547142 40.4825621,34.950714 L35.1050289,29.5617933 C34.0718346,30.2451589 33.0915309,31.0415297 32.1830784,31.9522393 C24.875541,39.2752511 24.9024853,51.2208141 32.2432871,58.5771609 C33.1514069,59.4875371 34.1300474,60.2845747 35.1612458,60.970607 L40.5125001,55.6076876 C39.3938162,55.0616618 38.343657,54.3259605 37.4145806,53.3949166 Z M45.4984107,0 C20.6475279,0 0.499242336,20.2806225 0.499242336,45.2954682 C0.499242336,57.7823901 5.54047179,69.1272581 13.640036,77.2809758 C14.329941,77.9713416 15.2397241,78.3793609 16.2665981,78.3793609 C18.2830899,78.3793609 19.9206994,76.7302831 19.9206994,74.7001874 C19.9206994,73.6674721 19.4829391,72.7250944 18.8003523,72.0370619 C12.0356909,65.2284077 7.81343259,55.7322935 7.81343259,45.2954682 C7.81343259,24.3801491 24.7204288,7.36168031 45.4984107,7.36168031 C66.2790538,7.36168031 83.1857174,24.3801491 83.1857174,45.2954682 C83.1857174,55.7539611 78.9571388,65.2387415 72.1296076,72.1073986 L40.3054953,104.139908 L45.4904273,109.359154 L77.337492,77.3039768 C85.4683249,69.1069238 90.4992423,57.7930572 90.4992423,45.2954682 C90.4992423,20.2806225 70.3529526,0 45.4984107,0 Z" id="Combined-Shape"></path>
                    </g>
                    <path d="M105,64.57365 L111.44636,64.57365 L114.767211,44.5020306 L123.118177,64.57365 L125.266964,64.57365 L134.008618,44.5020306 L136.938781,64.57365 L143.385141,64.57365 L137.915502,32 L133.324913,32 L124.290243,52.7064882 L115.64626,32 L111.055671,32 L105,64.57365 Z M159.305695,42.7439325 C155.301139,42.7439325 152.56632,44.0625061 150.759385,45.722932 C148.659435,47.6275382 147.194353,50.5577017 147.194353,54.0250617 C147.194353,57.4435857 148.659435,60.3737491 150.759385,62.2783553 C152.56632,63.9387813 155.301139,65.2573548 159.305695,65.2573548 C163.310252,65.2573548 166.045071,63.9387813 167.852005,62.2783553 C169.951956,60.3737491 171.417037,57.4435857 171.417037,54.0250617 C171.417037,50.5577017 169.951956,47.6275382 167.852005,45.722932 C166.045071,44.0625061 163.310252,42.7439325 159.305695,42.7439325 Z M159.305695,59.9830607 C155.838335,59.9830607 153.347696,57.2482415 153.347696,54.0250617 C153.347696,50.7042098 155.887171,48.0182267 159.305695,48.0182267 C162.724219,48.0182267 165.263694,50.7042098 165.263694,54.0250617 C165.263694,57.2482415 162.773055,59.9830607 159.305695,59.9830607 Z M191.928181,44.01367 C190.218919,43.183457 188.411985,42.7439325 186.214363,42.7439325 C184.163248,42.7439325 181.184249,43.183457 178.595938,45.4787517 C176.447151,47.3833579 174.933234,50.3623574 174.933234,54.0738978 C174.933234,58.0296184 176.691332,60.6667654 178.302922,62.1806832 C180.207528,63.9876173 183.137691,65.2573548 186.458543,65.2573548 C188.900346,65.2573548 190.756116,64.524814 191.928181,63.9387813 L191.928181,58.1272905 C190.316592,59.5923722 188.558493,59.9830607 187.23992,59.9830607 C183.674888,59.9830607 181.086577,57.4435857 181.086577,53.9762256 C181.086577,50.8995541 183.088855,48.0182267 187.044576,48.0182267 C189.09569,48.0182267 190.658444,48.7019315 191.928181,49.8739969 L191.928181,44.01367 Z M196.421099,64.57365 L202.379098,64.57365 L202.379098,48.5065873 L209.89985,48.5065873 L209.89985,43.4276373 L196.421099,43.4276373 L196.421099,64.57365 Z M224.062307,42.7439325 C220.05775,42.7439325 217.322931,44.0625061 215.515997,45.722932 C213.416047,47.6275382 211.950965,50.5577017 211.950965,54.0250617 C211.950965,57.4435857 213.416047,60.3737491 215.515997,62.2783553 C217.322931,63.9387813 220.05775,65.2573548 224.062307,65.2573548 C228.066864,65.2573548 230.801683,63.9387813 232.608617,62.2783553 C234.708567,60.3737491 236.173649,57.4435857 236.173649,54.0250617 C236.173649,50.5577017 234.708567,47.6275382 232.608617,45.722932 C230.801683,44.0625061 228.066864,42.7439325 224.062307,42.7439325 Z M224.062307,59.9830607 C220.594947,59.9830607 218.104308,57.2482415 218.104308,54.0250617 C218.104308,50.7042098 220.643783,48.0182267 224.062307,48.0182267 C227.480831,48.0182267 230.020306,50.7042098 230.020306,54.0250617 C230.020306,57.2482415 227.529667,59.9830607 224.062307,59.9830607 Z M246.722237,61.8388308 C249.066368,65.0131745 252.045368,65.2573548 253.510449,65.2573548 C256.635957,65.2573548 259.07776,64.0364534 260.68935,62.5225356 C261.910251,61.3504702 264.010202,58.7621592 264.010202,53.9762256 C264.010202,49.7763247 262.398612,47.1391777 260.835858,45.5764238 C258.442891,43.183457 255.463892,42.7439325 253.608121,42.7439325 C249.701237,42.7439325 247.650122,44.843883 246.722237,46.1624565 L246.722237,43.4276373 L240.764238,43.4276373 L240.764238,75.7571071 L246.722237,75.7571071 L246.722237,61.8388308 Z M251.996532,48.0182267 C253.412777,48.0182267 254.975531,48.5554233 256.049924,49.5321445 C257.22199,50.6553738 257.856858,52.4134718 257.856858,53.9762256 C257.856858,55.5389795 257.270826,57.2970775 256.001088,58.4691429 C255.219711,59.2016837 253.949974,59.9830607 251.996532,59.9830607 C250.140761,59.9830607 248.871024,59.2505198 248.089647,58.566815 C246.917582,57.5412578 246.136205,55.9296679 246.136205,53.9762256 C246.136205,52.0227834 246.819909,50.5577017 248.138483,49.4344723 C249.212876,48.4577512 250.433778,48.0182267 251.996532,48.0182267 Z M268.600791,43.4276373 L268.600791,64.57365 L274.55879,64.57365 L274.55879,48.5065873 L282.665575,48.5065873 L282.665575,64.57365 L288.623574,64.57365 L288.623574,43.4276373 L268.600791,43.4276373 Z M310.502128,46.1624565 C308.499849,43.0369489 305.325506,42.7439325 303.713916,42.7439325 C297.462901,42.7439325 293.214164,47.7252103 293.214164,53.9762256 C293.214164,60.1784049 297.511737,65.2573548 304.006932,65.2573548 C305.52085,65.2573548 308.353341,64.9155024 310.502128,61.8388308 L310.502128,64.57365 L316.460127,64.57365 L316.460127,43.4276373 L310.502128,43.4276373 L310.502128,46.1624565 Z M305.227834,48.0182267 C308.646358,48.0182267 311.08816,50.6065377 311.08816,53.9762256 C311.08816,57.3459136 308.646358,59.9830607 305.227834,59.9830607 C301.80931,59.9830607 299.367507,57.3459136 299.367507,53.9762256 C299.367507,50.6065377 301.80931,48.0182267 305.227834,48.0182267 Z M338.045664,44.01367 C336.336402,43.183457 334.529468,42.7439325 332.331845,42.7439325 C330.280731,42.7439325 327.301731,43.183457 324.71342,45.4787517 C322.564634,47.3833579 321.050716,50.3623574 321.050716,54.0738978 C321.050716,58.0296184 322.808814,60.6667654 324.420404,62.1806832 C326.32501,63.9876173 329.255174,65.2573548 332.576026,65.2573548 C335.017828,65.2573548 336.873599,64.524814 338.045664,63.9387813 L338.045664,58.1272905 C336.434074,59.5923722 334.675976,59.9830607 333.357402,59.9830607 C329.79237,59.9830607 327.204059,57.4435857 327.204059,53.9762256 C327.204059,50.8995541 329.206338,48.0182267 333.162058,48.0182267 C335.213173,48.0182267 336.775926,48.7019315 338.045664,49.8739969 L338.045664,44.01367 Z M358.459136,44.01367 C356.749874,43.183457 354.94294,42.7439325 352.745317,42.7439325 C350.694203,42.7439325 347.715203,43.183457 345.126892,45.4787517 C342.978106,47.3833579 341.464188,50.3623574 341.464188,54.0738978 C341.464188,58.0296184 343.222286,60.6667654 344.833876,62.1806832 C346.738482,63.9876173 349.668645,65.2573548 352.989497,65.2573548 C355.4313,65.2573548 357.28707,64.524814 358.459136,63.9387813 L358.459136,58.1272905 C356.847546,59.5923722 355.089448,59.9830607 353.770874,59.9830607 C350.205842,59.9830607 347.617531,57.4435857 347.617531,53.9762256 C347.617531,50.8995541 349.619809,48.0182267 353.57553,48.0182267 C355.626644,48.0182267 357.189398,48.7019315 358.459136,49.8739969 L358.459136,44.01367 Z" id="Мосгорпасс"></path>
                    <path d="M112.794508,84.8504786 L107.125775,84.8504786 L107.125775,95.4118685 L105,95.4118685 L105,83.1296131 L112.794508,83.1296131 L112.794508,84.8504786 Z M123.96495,89.5912942 C123.96495,90.7947813 123.756873,91.8506285 123.340714,92.7588676 C122.924555,93.6671067 122.32985,94.3644439 121.556581,94.8509001 C120.783313,95.3373563 119.893364,95.5805808 118.886709,95.5805808 C117.891302,95.5805808 117.004165,95.3373563 116.225273,94.8509001 C115.44638,94.3644439 114.844646,93.6713245 114.420051,92.771521 C113.995456,91.8717176 113.78035,90.8341473 113.774727,89.6587791 L113.774727,88.9670587 C113.774727,87.7691954 113.987021,86.7119422 114.411616,85.7952675 C114.83621,84.8785927 115.435133,84.1770378 116.208402,83.6905815 C116.98167,83.2041253 117.868807,82.9609008 118.869838,82.9609008 C119.870869,82.9609008 120.758006,83.2013135 121.531275,83.6821459 C122.304543,84.1629784 122.90206,84.8546919 123.323843,85.7573072 C123.745626,86.6599225 123.959326,87.7101461 123.96495,88.9080094 L123.96495,89.5912942 Z M121.830739,88.9501875 C121.830739,87.5892348 121.573455,86.5460408 121.05888,85.8205743 C120.544305,85.0951078 119.814632,84.73238 118.869838,84.73238 C117.94754,84.73238 117.226302,85.0937019 116.706103,85.8163565 C116.185904,86.5390111 115.920185,87.5611163 115.908937,88.8827025 L115.908937,89.5912942 C115.908937,90.9409993 116.171845,91.9841933 116.697667,92.7209073 C117.22349,93.4576214 117.953163,93.8259729 118.886709,93.8259729 C119.831503,93.8259729 120.558364,93.4660569 121.067316,92.7462142 C121.576267,92.0263714 121.830739,90.974742 121.830739,89.5912942 L121.830739,88.9501875 Z M128.386899,90.8482008 L128.386899,95.4118685 L126.252688,95.4118685 L126.252688,83.1296131 L130.951326,83.1296131 C132.323526,83.1296131 133.413115,83.4867173 134.220127,84.2009362 C135.027138,84.9151552 135.430637,85.8599346 135.430637,87.0353029 C135.430637,88.2387899 135.035573,89.1751338 134.245433,89.8443626 C133.455294,90.5135914 132.348833,90.8482008 130.926019,90.8482008 L128.386899,90.8482008 Z M128.386899,89.135771 L130.951326,89.135771 C131.710535,89.135771 132.289775,88.9572189 132.689063,88.6001094 C133.08835,88.243 133.287991,87.7270267 133.287991,87.0521741 C133.287991,86.3885691 133.085538,85.8585366 132.680627,85.4620607 C132.275715,85.0655848 131.71897,84.8617261 131.010375,84.8504786 L128.386899,84.8504786 L128.386899,89.135771 Z M147.259057,89.5912942 C147.259057,90.7947813 147.05098,91.8506285 146.634821,92.7588676 C146.218662,93.6671067 145.623957,94.3644439 144.850689,94.8509001 C144.07742,95.3373563 143.187472,95.5805808 142.180816,95.5805808 C141.185409,95.5805808 140.298272,95.3373563 139.51938,94.8509001 C138.740488,94.3644439 138.138753,93.6713245 137.714158,92.771521 C137.289564,91.8717176 137.074458,90.8341473 137.068834,89.6587791 L137.068834,88.9670587 C137.068834,87.7691954 137.281128,86.7119422 137.705723,85.7952675 C138.130318,84.8785927 138.72924,84.1770378 139.502509,83.6905815 C140.275777,83.2041253 141.162914,82.9609008 142.163945,82.9609008 C143.164977,82.9609008 144.052113,83.2013135 144.825382,83.6821459 C145.59865,84.1629784 146.196167,84.8546919 146.61795,85.7573072 C147.039733,86.6599225 147.253433,87.7101461 147.259057,88.9080094 L147.259057,89.5912942 Z M145.124846,88.9501875 C145.124846,87.5892348 144.867562,86.5460408 144.352987,85.8205743 C143.838412,85.0951078 143.108739,84.73238 142.163945,84.73238 C141.241647,84.73238 140.520409,85.0937019 140.00021,85.8163565 C139.480011,86.5390111 139.214292,87.5611163 139.203044,88.8827025 L139.203044,89.5912942 C139.203044,90.9409993 139.465952,91.9841933 139.991774,92.7209073 C140.517597,93.4576214 141.24727,93.8259729 142.180816,93.8259729 C143.12561,93.8259729 143.852472,93.4660569 144.361423,92.7462142 C144.870374,92.0263714 145.124846,90.974742 145.124846,89.5912942 L145.124846,88.9501875 Z M160.563709,98.4318187 L158.539161,98.4318187 L158.539161,95.4118685 L150.449406,95.4118685 L150.449406,98.4318187 L148.391116,98.4318187 L148.323631,93.7078743 L149.310598,93.7078743 C149.799866,93.2354775 150.190713,92.5479817 150.483149,91.6453664 C150.775585,90.7427511 150.963978,89.720646 151.048335,88.5790204 L151.368888,83.1296131 L159.112783,83.1296131 L159.112783,93.7078743 L160.673372,93.7078743 L160.563709,98.4318187 Z M151.723184,93.7078743 L156.987008,93.7078743 L156.987008,84.8504786 L153.401872,84.8504786 L153.199417,88.3090807 C153.047575,90.6204508 152.555502,92.4200306 151.723184,93.7078743 Z M171.607616,91.413387 C171.483893,92.7237258 171.000256,93.7458309 170.15669,94.4797331 C169.313124,95.2136352 168.191199,95.5805808 166.79088,95.5805808 C165.812343,95.5805808 164.950513,95.3486037 164.205364,94.8846426 C163.460214,94.4206814 162.885192,93.7613041 162.48028,92.9064909 C162.075369,92.0516776 161.864481,91.0590968 161.847609,89.9287188 L161.847609,88.7814752 C161.847609,87.6229782 162.052874,86.602279 162.463409,85.7193469 C162.873944,84.8364148 163.463026,84.1559487 164.23067,83.6779281 C164.998315,83.1999075 165.885452,82.9609008 166.892107,82.9609008 C168.247436,82.9609008 169.338431,83.3292523 170.165126,84.0659664 C170.99182,84.8026805 171.472645,85.8430626 171.607616,87.1871439 L169.481841,87.1871439 C169.380613,86.3042118 169.123329,85.6673293 168.709982,85.2764771 C168.296635,84.885625 167.690682,84.6902019 166.892107,84.6902019 C165.964185,84.6902019 165.251382,85.0290291 164.753679,85.7066935 C164.255975,86.384358 164.001503,87.3783447 163.990255,88.6886834 L163.990255,89.7768777 C163.990255,91.1040878 164.227856,92.1163514 164.703065,92.8136991 C165.178274,93.5110468 165.874205,93.8597154 166.79088,93.8597154 C167.628822,93.8597154 168.258674,93.6713218 168.680457,93.2945292 C169.10224,92.9177365 169.369365,92.2906954 169.481841,91.413387 L171.607616,91.413387 Z M177.311779,90.1480448 L175.860853,90.1480448 L175.860853,95.4118685 L173.735078,95.4118685 L173.735078,83.1296131 L175.860853,83.1296131 L175.860853,88.2922095 L177.033403,88.2922095 L180.643846,83.1296131 L183.258887,83.1296131 L179.04108,89.0092368 L183.630054,95.4118685 L181.065627,95.4118685 L177.311779,90.1480448 Z M194.513685,89.5912942 C194.513685,90.7947813 194.305608,91.8506285 193.889449,92.7588676 C193.47329,93.6671067 192.878585,94.3644439 192.105316,94.8509001 C191.332048,95.3373563 190.442099,95.5805808 189.435444,95.5805808 C188.440037,95.5805808 187.5529,95.3373563 186.774008,94.8509001 C185.995116,94.3644439 185.393381,93.6713245 184.968786,92.771521 C184.544192,91.8717176 184.329085,90.8341473 184.323462,89.6587791 L184.323462,88.9670587 C184.323462,87.7691954 184.535756,86.7119422 184.960351,85.7952675 C185.384945,84.8785927 185.983868,84.1770378 186.757137,83.6905815 C187.530405,83.2041253 188.417542,82.9609008 189.418573,82.9609008 C190.419604,82.9609008 191.306741,83.2013135 192.08001,83.6821459 C192.853278,84.1629784 193.450795,84.8546919 193.872578,85.7573072 C194.294361,86.6599225 194.508061,87.7101461 194.513685,88.9080094 L194.513685,89.5912942 Z M192.379474,88.9501875 C192.379474,87.5892348 192.12219,86.5460408 191.607615,85.8205743 C191.09304,85.0951078 190.363367,84.73238 189.418573,84.73238 C188.496275,84.73238 187.775037,85.0937019 187.254838,85.8163565 C186.734639,86.5390111 186.46892,87.5611163 186.457672,88.8827025 L186.457672,89.5912942 C186.457672,90.9409993 186.72058,91.9841933 187.246402,92.7209073 C187.772225,93.4576214 188.501898,93.8259729 189.435444,93.8259729 C190.380238,93.8259729 191.1071,93.4660569 191.616051,92.7462142 C192.125002,92.0263714 192.379474,90.974742 192.379474,89.5912942 L192.379474,88.9501875 Z M204.325992,83.1296131 L206.460202,83.1296131 L206.460202,95.4118685 L204.325992,95.4118685 L204.325992,86.6641358 L198.935634,95.4118685 L196.801423,95.4118685 L196.801423,83.1296131 L198.935634,83.1296131 L198.935634,91.8857815 L204.325992,83.1296131 Z M204.393477,80 C204.393477,80.7085952 204.146035,81.2822113 203.651143,81.7208654 C203.156251,82.1595196 202.495468,82.3788434 201.668773,82.3788434 C200.842079,82.3788434 200.181296,82.1595196 199.686404,81.7208654 C199.191512,81.2822113 198.94407,80.7085952 198.94407,80 L200.479351,80 C200.479351,80.3711689 200.584796,80.6593829 200.795687,80.8646505 C201.006578,81.0699182 201.297604,81.1725505 201.668773,81.1725505 C202.039942,81.1725505 202.329562,81.0699182 202.537642,80.8646505 C202.745721,80.6593829 202.849759,80.3711689 202.849759,80 L204.393477,80 Z M223.393856,95.4118685 L221.268081,95.4118685 L221.268081,89.9540256 L215.776496,89.9540256 L215.776496,95.4118685 L213.642285,95.4118685 L213.642285,83.1296131 L215.776496,83.1296131 L215.776496,88.2415958 L221.268081,88.2415958 L221.268081,83.1296131 L223.393856,83.1296131 L223.393856,95.4118685 Z M233.104936,92.552195 L228.347249,92.552195 L227.351846,95.4118685 L225.13328,95.4118685 L229.772868,83.1296131 L231.687753,83.1296131 L236.335776,95.4118685 L234.108774,95.4118685 L233.104936,92.552195 Z M228.946178,90.8313296 L232.506007,90.8313296 L230.726092,85.7362182 L228.946178,90.8313296 Z M237.889617,95.4118685 L237.889617,83.1296131 L242.098989,83.1296131 C243.48806,83.1296131 244.545313,83.4079857 245.27078,83.964739 C245.996246,84.5214924 246.358974,85.3509862 246.358974,86.4532454 C246.358974,87.0156226 246.207135,87.5217544 245.903451,87.9716561 C245.599767,88.4215578 245.155496,88.7702264 244.570624,89.0176724 C245.234229,89.1976331 245.74739,89.5364602 246.110123,90.034164 C246.472857,90.5318677 246.654221,91.1293845 246.654221,91.8267322 C246.654221,92.9796053 246.284463,93.865336 245.544937,94.4839509 C244.805411,95.1025657 243.746752,95.4118685 242.368928,95.4118685 L237.889617,95.4118685 Z M240.023827,89.8696695 L240.023827,93.7078743 L242.394235,93.7078743 C243.063464,93.7078743 243.586467,93.5419755 243.963259,93.210173 C244.340052,92.8783705 244.528446,92.4172282 244.528446,91.8267322 C244.528446,90.550136 243.876098,89.8977883 242.571383,89.8696695 L240.023827,89.8696695 Z M240.023827,88.3006451 L242.11586,88.3006451 C242.779465,88.3006451 243.29825,88.1502115 243.672231,87.8493397 C244.046212,87.5484679 244.233199,87.1224736 244.233199,86.571344 C244.233199,85.9639767 244.060271,85.5253291 243.714409,85.2553881 C243.368547,84.9854471 242.830079,84.8504786 242.098989,84.8504786 L240.023827,84.8504786 L240.023827,88.3006451 Z M256.474964,83.1296131 L258.609174,83.1296131 L258.609174,95.4118685 L256.474964,95.4118685 L256.474964,86.6641358 L251.084606,95.4118685 L248.950395,95.4118685 L248.950395,83.1296131 L251.084606,83.1296131 L251.084606,91.8857815 L256.474964,83.1296131 Z M269.180687,84.8504786 L263.511954,84.8504786 L263.511954,95.4118685 L261.386179,95.4118685 L261.386179,83.1296131 L269.180687,83.1296131 L269.180687,84.8504786 Z M276.259855,92.552195 L271.502168,92.552195 L270.506766,95.4118685 L268.288199,95.4118685 L272.927787,83.1296131 L274.842672,83.1296131 L279.490695,95.4118685 L277.263693,95.4118685 L276.259855,92.552195 Z M272.101097,90.8313296 L275.660926,90.8313296 L273.881011,85.7362182 L272.101097,90.8313296 Z M288.906529,84.8504786 L285.07676,84.8504786 L285.07676,95.4118685 L282.95942,95.4118685 L282.95942,84.8504786 L279.163394,84.8504786 L279.163394,83.1296131 L288.906529,83.1296131 L288.906529,84.8504786 Z M300.245682,89.5912942 C300.245682,90.7947813 300.037606,91.8506285 299.621447,92.7588676 C299.205288,93.6671067 298.610583,94.3644439 297.837314,94.8509001 C297.064046,95.3373563 296.174097,95.5805808 295.167442,95.5805808 C294.172035,95.5805808 293.284898,95.3373563 292.506006,94.8509001 C291.727113,94.3644439 291.125379,93.6713245 290.700784,92.771521 C290.276189,91.8717176 290.061083,90.8341473 290.05546,89.6587791 L290.05546,88.9670587 C290.05546,87.7691954 290.267754,86.7119422 290.692349,85.7952675 C291.116943,84.8785927 291.715866,84.1770378 292.489135,83.6905815 C293.262403,83.2041253 294.14954,82.9609008 295.150571,82.9609008 C296.151602,82.9609008 297.038739,83.2013135 297.812008,83.6821459 C298.585276,84.1629784 299.182793,84.8546919 299.604576,85.7573072 C300.026359,86.6599225 300.240059,87.7101461 300.245682,88.9080094 L300.245682,89.5912942 Z M298.111472,88.9501875 C298.111472,87.5892348 297.854188,86.5460408 297.339613,85.8205743 C296.825038,85.0951078 296.095365,84.73238 295.150571,84.73238 C294.228273,84.73238 293.507035,85.0937019 292.986836,85.8163565 C292.466637,86.5390111 292.200918,87.5611163 292.18967,88.8827025 L292.18967,89.5912942 C292.18967,90.9409993 292.452578,91.9841933 292.9784,92.7209073 C293.504223,93.4576214 294.233896,93.8259729 295.167442,93.8259729 C296.112236,93.8259729 296.839097,93.4660569 297.348049,92.7462142 C297.857,92.0263714 298.111472,90.974742 298.111472,89.5912942 L298.111472,88.9501875 Z M304.667632,90.8482008 L304.667632,95.4118685 L302.533421,95.4118685 L302.533421,83.1296131 L307.232059,83.1296131 C308.604259,83.1296131 309.693848,83.4867173 310.50086,84.2009362 C311.307871,84.9151552 311.71137,85.8599346 311.71137,87.0353029 C311.71137,88.2387899 311.316306,89.1751338 310.526166,89.8443626 C309.736027,90.5135914 308.629566,90.8482008 307.206752,90.8482008 L304.667632,90.8482008 Z M304.667632,89.135771 L307.232059,89.135771 C307.991268,89.135771 308.570508,88.9572189 308.969795,88.6001094 C309.369083,88.243 309.568724,87.7270267 309.568724,87.0521741 C309.568724,86.3885691 309.366271,85.8585366 308.96136,85.4620607 C308.556448,85.0655848 307.999703,84.8617261 307.291108,84.8504786 L304.667632,84.8504786 L304.667632,89.135771 Z" id="Городской-навигатор"></path>
                </g>
            </g>
        </g>
    </g>
</svg>