<svg viewBox="0 0 64 66" xmlns="http://www.w3.org/2000/svg"><g fill="none" fill-rule="evenodd"><path class="stroke" stroke="#FFF" d="M63 32.949c0 17.092-13.88 30.949-31 30.949-17.121 0-31-13.857-31-30.95C1 15.857 14.879 2 32 2c17.12 0 31 13.856 31 30.949"/><path class="fill" fill="#FFF" d="M27.767 33.022c.004-.488-.132-.64-.612-.62-.888.036-1.778-.005-2.666.016-.36.01-.493-.092-.489-.48.018-1.807.016-3.615.002-5.422-.003-.348.1-.462.445-.455.91.022 1.82-.025 2.727.02.526.026.635-.163.624-.66a92.688 92.688 0 0 1-.003-4.128c.037-1.68.48-3.248 1.464-4.614 1.246-1.73 3.016-2.521 5.06-2.614 2.097-.095 4.2-.042 6.3-.065.294-.003.38.103.38.393-.01 1.827-.012 3.656 0 5.484.004.325-.1.425-.414.42-1.01-.017-2.021-.009-3.03-.006-1.345.004-2.15.708-2.235 2.06-.067 1.086-.018 2.177-.043 3.266-.009.387.218.36.47.36 1.535-.002 3.071.016 4.606-.01.45-.009.6.097.548.579-.193 1.816-.36 3.636-.512 5.457-.035.41-.22.489-.583.482a164.21 164.21 0 0 0-3.635-.005c-.87.005-.786-.13-.786.773-.004 5.67-.012 11.34.012 17.009.003.598-.148.747-.73.737-2.08-.04-4.162-.041-6.243 0-.586.012-.683-.19-.678-.722.022-2.855.011-5.71.011-8.565 0-2.897-.01-5.794.01-8.69z"/></g></svg>