<svg viewBox="0 0 64 66" xmlns="http://www.w3.org/2000/svg"><g fill="none" fill-rule="evenodd"><path class="stroke" stroke="#FFF" d="M32 64C14.88 64 1 50.12 1 33 1 15.879 14.879 2 32 2c17.12 0 31 13.879 31 31 0 17.12-13.88 31-31 31z"/><path class="fill" fill="#FFF" d="M50.096 23.485c.161-.807-.194-1.26-1.033-1.26h-4.23c-.968 0-1.323.42-1.614 1.034 0 0-2.287 4.872-5.069 7.943-.893.992-1.347 1.29-1.84 1.29-.398 0-.581-.33-.581-1.226v-7.845c0-1.098-.13-1.421-1.033-1.421h-6.78c-.517 0-.84.3-.84.71 0 1.034 1.582 1.267 1.582 4.068v5.78c0 1.162-.065 1.614-.613 1.614-1.453 0-4.908-5.004-6.845-10.687-.388-1.162-.807-1.485-1.905-1.485h-4.23c-.613 0-1.065.42-1.065 1.033 0 1.13 1.324 6.36 6.522 13.367 3.487 4.713 8.071 7.264 12.204 7.264 2.518 0 3.132-.42 3.132-1.485v-3.616c0-.904.355-1.292.872-1.292.58 0 1.606.187 4.003 2.55 2.841 2.713 3.035 3.843 4.585 3.843h4.746c.484 0 .936-.226.936-1.033 0-1.066-1.388-2.97-3.52-5.23-.87-1.163-2.291-2.422-2.744-3.003-.645-.678-.452-1.066 0-1.776 0 0 4.876-6.877 5.36-9.137z"/></g></svg>