<?xml version="1.0" encoding="UTF-8"?>
<svg width="246px" height="228px" viewBox="0 0 246 228" version="1.1" xmlns="http://www.w3.org/2000/svg" xmlns:xlink="http://www.w3.org/1999/xlink">
    <!-- Generator: Sketch 41.2 (35397) - http://www.bohemiancoding.com/sketch -->
    <title>nature_ill</title>
    <desc>Created with Sketch.</desc>
    <defs></defs>
    <g id="Page-1" stroke="none" stroke-width="1" fill="none" fill-rule="evenodd">
        <g id="large-devices--≥-1200px-" transform="translate(-978.000000, -1247.000000)">
            <g id="ill" transform="translate(181.000000, 1247.000000)">
                <g id="nature" transform="translate(797.000000, 0.000000)">
                    <g id="Group-2" transform="translate(2.000000, 1.000000)">
                        <g id="ecology-copy-2" transform="translate(4.330544, 0.519917)">
                            <g id="sky" transform="translate(12.632479, 0.000000)">
                                <g transform="translate(0.235541, 0.419148)">
                                    <path d="M21.0690214,48.0609348 C41.3086512,19.3447634 74.7682026,0.580852209 112.618845,0.580852209 C174.394316,0.580852209 224.47323,50.5623192 224.47323,112.217583 C224.47323,132.436952 219.087436,151.400848 209.669553,167.758202 C207.980575,170.691686 14.7592557,166.605193 12.327053,161.704577 C4.92503572,146.790341 0.764459366,129.988894 0.764459366,112.217583 C0.764459366,94.1797863 5.05074957,77.1411579 12.6622232,62.0609348 L21.7948897,62.0609348 C25.6728514,62.0609348 28.8014366,58.9269281 28.8014366,55.0609348 C28.8014366,51.2028081 25.6644987,48.0609348 21.7948897,48.0609348 L21.0690214,48.0609348 Z" id="Combined-Shape" fill="#3092F9"></path>
                                    <g id="Group-5" opacity="0.949999988" transform="translate(13.424485, 17.086374)" fill="#FFFFFF">
                                        <path d="M80.5654859,26.1055747 C80.5654859,23.6546777 78.5726931,21.6689738 76.1153228,21.6689738 C74.6085025,21.6689738 73.2789552,22.4155172 72.4730763,23.55717 C71.9616335,23.1955789 71.3381217,22.9832965 70.6646881,22.9832965 C69.8200945,22.9832965 69.0539492,23.3174636 68.4905471,23.8598502 C67.927145,23.3174636 67.1609998,22.9832965 66.3153873,22.9832965 C66.1584905,22.9832965 66.0036313,22.995485 65.8528474,23.0168148 C65.0204795,21.158074 63.1509627,19.8610183 60.9758029,19.8610183 C58.6712541,19.8610183 56.7090256,21.3155083 55.9602001,23.354029 C55.5190553,23.1173696 55.0147442,22.9832965 54.4798689,22.9832965 C53.4916229,22.9832965 52.6103521,23.4403639 52.0367619,24.1523734 C51.4753975,23.9360281 50.8651302,23.8161749 50.2263362,23.8161749 C47.4531347,23.8161749 45.2046205,26.0568209 45.2046205,28.8225865 C45.2046205,28.8479791 45.2056394,28.8733718 45.2066582,28.8987644 L79.5721459,28.8987644 C80.1926014,28.1359697 80.5654859,27.1639397 80.5654859,26.1055747" id="Fill-9"></path>
                                        <path d="M141.980024,18.9656984 C141.687446,18.9656984 141.40535,19.0083628 141.138973,19.0867261 C140.587007,16.9787537 138.664731,15.4236778 136.378262,15.4236778 C134.835899,15.4236778 133.46035,16.1315595 132.558164,17.2382232 C131.819297,16.5216345 130.810561,16.080188 129.698768,16.080188 C128.197453,16.080188 126.886533,16.8829763 126.1695,18.0810639 C125.78522,17.6953424 125.294389,17.414976 124.745042,17.2852412 C124.745916,17.2582494 124.747662,17.2312576 124.747662,17.2042658 C124.747662,14.4093086 122.474294,12.1437389 119.670793,12.1437389 C117.652446,12.1437389 115.90921,13.3183175 115.090867,15.0188008 C114.718814,14.8942902 114.319686,14.8255047 113.904838,14.8255047 C112.262039,14.8255047 110.868149,15.8851505 110.370331,17.3548975 C110.025351,17.2573787 109.661158,17.2042658 109.284738,17.2042658 C109.227096,17.2042658 109.169454,17.2068779 109.111812,17.2086193 C109.05941,17.2060072 109.006135,17.2042658 108.951986,17.2042658 C108.237574,17.2042658 107.58255,17.455899 107.069012,17.8738366 C106.00962,18.5799768 105.309181,19.7789351 105.294334,21.1407149 L144.849027,21.1407149 C144.501428,19.8869023 143.348586,18.9656984 141.980024,18.9656984" id="Fill-12"></path>
                                    </g>
                                </g>
                            </g>
                            <g id="house" transform="translate(0.545623, 56.759535)">
                                <g id="house4" transform="translate(149.970975, 9.893860)">
                                    <polygon id="Fill-1" fill="#0054AB" points="0 116.433524 47.1314446 116.433524 47.1314446 23.9184006 0 23.9184006"></polygon>
                                    <polygon id="Fill-2" fill="#0054AB" points="10.626865 87.6480334 36.5045796 87.6480334 36.5045796 1.01966387 10.626865 1.01966387"></polygon>
                                    <g id="Group-47" transform="translate(5.160954, 0.580860)">
                                        <polygon id="Fill-1" fill="#004185" points="18.4047685 115.852665 41.9704908 115.852665 41.9704908 23.3375411 31.8748629 23.3375411 31.3419631 0.566796012 18.4047685 23.3375411"></polygon>
                                        <g id="windows" transform="translate(0.000000, 3.524243)" fill="#66B0FF" opacity="0.836229011">
                                            <polygon id="Fill-3" points="0.389013267 32.284103 10.1503632 32.284103 10.1503632 27.4303212 0.389013267 27.4303212"></polygon>
                                            <polygon id="Fill-3" points="13.4838408 32.284103 23.2451907 32.284103 23.2451907 27.4303212 13.4838408 27.4303212"></polygon>
                                            <polygon id="Fill-3" points="26.5786683 32.284103 36.3400183 32.284103 36.3400183 27.4303212 26.5786683 27.4303212"></polygon>
                                            <polygon id="Fill-3" points="0.389013267 39.6604256 10.1503632 39.6604256 10.1503632 34.8066438 0.389013267 34.8066438"></polygon>
                                            <polygon id="Fill-3" points="13.4838408 39.6604256 23.2451907 39.6604256 23.2451907 34.8066438 13.4838408 34.8066438"></polygon>
                                            <polygon id="Fill-3" points="26.5786683 39.6604256 36.3400183 39.6604256 36.3400183 34.8066438 26.5786683 34.8066438"></polygon>
                                            <polygon id="Fill-3" points="0.389013267 46.2171568 10.1503632 46.2171568 10.1503632 41.363375 0.389013267 41.363375"></polygon>
                                            <polygon id="Fill-3" points="13.4838408 46.2171568 23.2451907 46.2171568 23.2451907 41.363375 13.4838408 41.363375"></polygon>
                                            <polygon id="Fill-3" points="26.5786683 46.2171568 36.3400183 46.2171568 36.3400183 41.363375 26.5786683 41.363375"></polygon>
                                            <polygon id="Fill-3" points="0.389013267 53.5934795 10.1503632 53.5934795 10.1503632 48.7396977 0.389013267 48.7396977"></polygon>
                                            <polygon id="Fill-3" points="13.4838408 53.5934795 23.2451907 53.5934795 23.2451907 48.7396977 13.4838408 48.7396977"></polygon>
                                            <polygon id="Fill-3" points="26.5786683 53.5934795 36.3400183 53.5934795 36.3400183 48.7396977 26.5786683 48.7396977"></polygon>
                                            <polygon id="Fill-3" points="0.389013267 60.1502107 10.1503632 60.1502107 10.1503632 55.2964289 0.389013267 55.2964289"></polygon>
                                            <polygon id="Fill-3" points="13.4838408 60.1502107 23.2451907 60.1502107 23.2451907 55.2964289 13.4838408 55.2964289"></polygon>
                                            <polygon id="Fill-3" points="26.5786683 60.1502107 36.3400183 60.1502107 36.3400183 55.2964289 26.5786683 55.2964289"></polygon>
                                            <polygon id="Fill-3" points="0.389013267 67.5265333 10.1503632 67.5265333 10.1503632 62.6727515 0.389013267 62.6727515"></polygon>
                                            <polygon id="Fill-3" points="13.4838408 67.5265333 23.2451907 67.5265333 23.2451907 62.6727515 13.4838408 62.6727515"></polygon>
                                            <polygon id="Fill-3" points="26.5786683 67.5265333 36.3400183 67.5265333 36.3400183 62.6727515 26.5786683 62.6727515"></polygon>
                                            <polygon id="Fill-19" points="10.1503632 5.42530197 26.6591737 5.42530197 26.6591737 0.570332842 10.1503632 0.570332842"></polygon>
                                            <polygon id="Fill-21" points="10.1503632 12.6193 26.6591737 12.6193 26.6591737 7.76433088 10.1503632 7.76433088"></polygon>
                                            <polygon id="Fill-23" points="10.1503632 19.813298 26.6591737 19.813298 26.6591737 14.9595162 10.1503632 14.9595162"></polygon>
                                        </g>
                                    </g>
                                </g>
                                <g id="house6" transform="translate(0.046652, 13.124940)">
                                    <rect id="Rectangle-5-Copy-4" fill="#D8D8D8" x="0.0771805396" y="100.595608" width="63" height="14" rx="7"></rect>
                                    <polygon id="Fill-1" fill="#0054AB" points="74.7565842 98.1093531 99.3004765 98.1093531 99.3004765 1.65194314 74.7565842 1.65194314"></polygon>
                                    <polygon id="Fill-1" fill="#004185" points="87.0285304 98.1093531 99.3004765 98.1093531 99.3004765 1.65194314 87.0285304 1.65194314"></polygon>
                                    <g id="Group-38" opacity="0.85" transform="translate(79.029923, 7.639133)" fill="#66B0FF">
                                        <polygon id="Fill-2" points="0.167383488 3.60049935 15.3673673 3.60049935 15.3673673 0.718376629 0.167383488 0.718376629"></polygon>
                                        <polygon id="Fill-4" points="0.167383488 7.8730632 15.3673673 7.8730632 15.3673673 4.99094047 0.167383488 4.99094047"></polygon>
                                        <polygon id="Fill-6" points="0.167383488 12.14455 15.3673673 12.14455 15.3673673 9.26242729 0.167383488 9.26242729"></polygon>
                                        <polygon id="Fill-8" points="0.167383488 16.4171139 15.3673673 16.4171139 15.3673673 13.5339141 0.167383488 13.5339141"></polygon>
                                        <polygon id="Fill-10" points="0.167383488 24.9622416 15.3673673 24.9622416 15.3673673 22.0801188 0.167383488 22.0801188"></polygon>
                                        <polygon id="Fill-12" points="0.167383488 20.6896777 15.3673673 20.6896777 15.3673673 17.806478 0.167383488 17.806478"></polygon>
                                        <polygon id="Fill-14" points="0.167383488 29.2348054 15.3673673 29.2348054 15.3673673 26.3516057 0.167383488 26.3516057"></polygon>
                                        <polygon id="Fill-16" points="0.167383488 33.5062922 15.3673673 33.5062922 15.3673673 30.6241695 0.167383488 30.6241695"></polygon>
                                        <polygon id="Fill-18" points="0.167383488 38.1041181 15.3673673 38.1041181 15.3673673 35.2219953 0.167383488 35.2219953"></polygon>
                                        <polygon id="Fill-20" points="0.167383488 42.3766819 15.3673673 42.3766819 15.3673673 39.4945592 0.167383488 39.4945592"></polygon>
                                        <polygon id="Fill-22" points="0.167383488 46.6481687 15.3673673 46.6481687 15.3673673 43.766046 0.167383488 43.766046"></polygon>
                                        <polygon id="Fill-24" points="0.167383488 50.9207326 15.3673673 50.9207326 15.3673673 48.0375328 0.167383488 48.0375328"></polygon>
                                        <polygon id="Fill-26" points="0.167383488 59.4647832 15.3673673 59.4647832 15.3673673 56.5826605 0.167383488 56.5826605"></polygon>
                                        <polygon id="Fill-28" points="0.167383488 55.1932964 15.3673673 55.1932964 15.3673673 52.3100967 0.167383488 52.3100967"></polygon>
                                        <polygon id="Fill-30" points="0.167383488 63.7373471 15.3673673 63.7373471 15.3673673 60.8541473 0.167383488 60.8541473"></polygon>
                                    </g>
                                    <polygon id="Fill-39" fill="#004185" points="73.0659046 2.27554144 101.028798 2.27554144 101.028798 0.000861621144 73.0659046 0.000861621144"></polygon>
                                </g>
                                <g id="house8" transform="translate(124.217065, 0.142548)">
                                    <polygon id="Fill-1" fill="#D5E9FD" points="0 106.760137 26.4550486 106.760137 26.4550486 -0.000107702642 0 -0.000107702642"></polygon>
                                    <polygon id="Fill-1" fill="#BAD9F9" points="13.2275243 106.760137 26.4550486 106.760137 26.4550486 -0.000107702642 13.2275243 -0.000107702642"></polygon>
                                    <g id="Group-66" opacity="0.85" transform="translate(4.846197, 6.107027)" fill="#66B0FF">
                                        <polygon id="Fill-2" points="0.458148504 6.37344798 3.71044816 6.37344798 3.71044816 0.0900757848 0.458148504 0.0900757848"></polygon>
                                        <polygon id="Fill-4" points="0.458148504 15.6864955 3.71044816 15.6864955 3.71044816 9.40312332 0.458148504 9.40312332"></polygon>
                                        <polygon id="Fill-6" points="0.458148504 24.998466 3.71044816 24.998466 3.71044816 18.7150938 0.458148504 18.7150938"></polygon>
                                        <polygon id="Fill-8" points="0.458148504 34.3104365 3.71044816 34.3104365 3.71044816 28.0270643 0.458148504 28.0270643"></polygon>
                                        <polygon id="Fill-10" points="7.15848806 6.37344798 10.4107877 6.37344798 10.4107877 0.0900757848 7.15848806 0.0900757848"></polygon>
                                        <polygon id="Fill-12" points="7.15848806 15.6864955 10.4107877 15.6864955 10.4107877 9.40312332 7.15848806 9.40312332"></polygon>
                                        <polygon id="Fill-14" points="7.15848806 24.998466 10.4107877 24.998466 10.4107877 18.7150938 7.15848806 18.7150938"></polygon>
                                        <polygon id="Fill-16" points="7.15848806 34.3104365 10.4107877 34.3104365 10.4107877 28.0270643 7.15848806 28.0270643"></polygon>
                                        <polygon id="Fill-18" points="13.8588276 6.37344798 17.1111273 6.37344798 17.1111273 0.0900757848 13.8588276 0.0900757848"></polygon>
                                        <polygon id="Fill-20" points="13.8588276 15.6864955 17.1111273 15.6864955 17.1111273 9.40312332 13.8588276 9.40312332"></polygon>
                                        <polygon id="Fill-22" points="13.8588276 24.998466 17.1111273 24.998466 17.1111273 18.7150938 13.8588276 18.7150938"></polygon>
                                        <polygon id="Fill-24" points="13.8588276 34.3104365 17.1111273 34.3104365 17.1111273 28.0270643 13.8588276 28.0270643"></polygon>
                                        <polygon id="Fill-26" points="0.458148504 43.2831437 3.71044816 43.2831437 3.71044816 36.9986945 0.458148504 36.9986945"></polygon>
                                        <polygon id="Fill-28" points="0.458148504 52.5951142 3.71044816 52.5951142 3.71044816 46.311742 0.458148504 46.311742"></polygon>
                                        <polygon id="Fill-30" points="0.458148504 61.9070847 3.71044816 61.9070847 3.71044816 55.6237125 0.458148504 55.6237125"></polygon>
                                        <polygon id="Fill-32" points="0.458148504 71.2190552 3.71044816 71.2190552 3.71044816 64.9356831 0.458148504 64.9356831"></polygon>
                                        <polygon id="Fill-34" points="7.15848806 43.2831437 10.4107877 43.2831437 10.4107877 36.9997715 7.15848806 36.9997715"></polygon>
                                        <polygon id="Fill-36" points="7.15848806 52.5951142 10.4107877 52.5951142 10.4107877 46.311742 7.15848806 46.311742"></polygon>
                                        <polygon id="Fill-38" points="7.15848806 61.9070847 10.4107877 61.9070847 10.4107877 55.6237125 7.15848806 55.6237125"></polygon>
                                        <polygon id="Fill-40" points="7.15848806 71.2201323 10.4107877 71.2201323 10.4107877 64.9367601 7.15848806 64.9367601"></polygon>
                                        <polygon id="Fill-42" points="13.8588276 43.2831437 17.1111273 43.2831437 17.1111273 36.9997715 13.8588276 36.9997715"></polygon>
                                        <polygon id="Fill-44" points="13.8588276 52.5951142 17.1111273 52.5951142 17.1111273 46.311742 13.8588276 46.311742"></polygon>
                                        <polygon id="Fill-46" points="13.8588276 61.9070847 17.1111273 61.9070847 17.1111273 55.6237125 13.8588276 55.6237125"></polygon>
                                        <polygon id="Fill-48" points="13.8588276 71.2201323 17.1111273 71.2201323 17.1111273 64.9367601 13.8588276 64.9367601"></polygon>
                                    </g>
                                </g>
                                <g id="house9" transform="translate(48.770261, 46.989907)">
                                    <polygon id="Page-1" fill="#D5E9FD" points="0 57.3713983 25.8883413 57.3713983 25.8883413 0.302778514 0 0.302778514"></polygon>
                                    <polygon id="Page-1" fill="#B9D9F8" points="13.8442157 57.3713983 25.8883413 57.3713983 25.8883413 0.302778514 13.8442157 0.302778514"></polygon>
                                    <g id="windows" opacity="0.85" transform="translate(2.932696, 4.698991)" fill="#66B0FF">
                                        <polygon id="Fill-52" points="15.3823671 9.88352906 20.6857217 9.88352906 20.6857217 8.54737846 15.3823671 8.54737846"></polygon>
                                        <polygon id="Fill-52-Copy-7" points="15.3823671 13.959335 20.6857217 13.959335 20.6857217 12.6231844 15.3823671 12.6231844"></polygon>
                                        <polygon id="Fill-52-Copy-8" points="15.3823671 18.0351409 20.6857217 18.0351409 20.6857217 16.6989903 15.3823671 16.6989903"></polygon>
                                        <polygon id="Fill-52-Copy-9" points="15.3823671 22.1109468 20.6857217 22.1109468 20.6857217 20.7747962 15.3823671 20.7747962"></polygon>
                                        <polygon id="Fill-52-Copy-10" points="15.2500179 26.0058519 20.5533725 26.0058519 20.5533725 24.6697013 15.2500179 24.6697013"></polygon>
                                        <polygon id="Fill-52-Copy-11" points="15.2500179 29.900757 20.5533725 29.900757 20.5533725 28.5646064 15.2500179 28.5646064"></polygon>
                                        <polygon id="Fill-52-Copy" points="15.3823671 5.80772316 20.6857217 5.80772316 20.6857217 4.47157256 15.3823671 4.47157256"></polygon>
                                        <polygon id="Fill-52-Copy-2" points="15.3823671 1.73191726 20.6857217 1.73191726 20.6857217 0.39576666 15.3823671 0.39576666"></polygon>
                                        <polygon id="Fill-52-Copy-3" points="7.82881063 1.73191726 13.1321652 1.73191726 13.1321652 0.39576666 7.82881063 0.39576666"></polygon>
                                        <polygon id="Fill-52-Copy-4" points="7.82881063 5.80772316 13.1321652 5.80772316 13.1321652 4.47157256 7.82881063 4.47157256"></polygon>
                                        <polygon id="Fill-52-Copy-5" points="0.275254181 5.80772316 5.57860877 5.80772316 5.57860877 4.47157256 0.275254181 4.47157256"></polygon>
                                        <polygon id="Fill-52-Copy-6" points="0.275254181 1.73191726 5.57860877 1.73191726 5.57860877 0.39576666 0.275254181 0.39576666"></polygon>
                                        <polygon id="Fill-58" points="7.7510909 9.88352906 13.0544455 9.88352906 13.0544455 8.54737846 7.7510909 8.54737846"></polygon>
                                        <polygon id="Fill-58-Copy-5" points="7.7510909 13.959335 13.0544455 13.959335 13.0544455 12.6231844 7.7510909 12.6231844"></polygon>
                                        <polygon id="Fill-58-Copy-6" points="7.7510909 18.0351409 13.0544455 18.0351409 13.0544455 16.6989903 7.7510909 16.6989903"></polygon>
                                        <polygon id="Fill-58-Copy-7" points="7.7510909 22.1109468 13.0544455 22.1109468 13.0544455 20.7747962 7.7510909 20.7747962"></polygon>
                                        <polygon id="Fill-58-Copy-8" points="7.62500894 26.0058519 12.9283635 26.0058519 12.9283635 24.6697013 7.62500894 24.6697013"></polygon>
                                        <polygon id="Fill-58-Copy-9" points="7.62500894 29.900757 12.9283635 29.900757 12.9283635 28.5646064 7.62500894 28.5646064"></polygon>
                                        <polygon id="Fill-64" points="0.119814723 9.88352906 5.42316931 9.88352906 5.42316931 8.54737846 0.119814723 8.54737846"></polygon>
                                        <polygon id="Fill-64-Copy" points="0.119814723 13.959335 5.42316931 13.959335 5.42316931 12.6231844 0.119814723 12.6231844"></polygon>
                                        <polygon id="Fill-64-Copy-2" points="0.119814723 18.0351409 5.42316931 18.0351409 5.42316931 16.6989903 0.119814723 16.6989903"></polygon>
                                        <polygon id="Fill-64-Copy-3" points="0.119814723 22.1109468 5.42316931 22.1109468 5.42316931 20.7747962 0.119814723 20.7747962"></polygon>
                                        <polygon id="Fill-64-Copy-4" points="0 26.0058519 5.30335459 26.0058519 5.30335459 24.6697013 0 24.6697013"></polygon>
                                        <polygon id="Fill-64-Copy-5" points="0 29.900757 5.30335459 29.900757 5.30335459 28.5646064 0 28.5646064"></polygon>
                                    </g>
                                </g>
                                <g id="house1" transform="translate(99.401070, 23.816265)">
                                    <polygon id="Fill-1" fill="#0054AB" points="0 119.476884 24.8521385 119.476884 24.8521385 0 0 0"></polygon>
                                    <polygon id="Fill-1" fill="#004185" points="12.5600462 119.476884 24.8521385 119.476884 24.8521385 0 12.5600462 0"></polygon>
                                    <g id="windows" transform="translate(4.552405, 4.698991)" fill="#66B0FF">
                                        <polygon id="Fill-3" points="0.549390935 7.34997645 3.44234537 7.34997645 3.44234537 0.423126388 0.549390935 0.423126388"></polygon>
                                        <polygon id="Fill-5" points="0.549390935 17.6155825 3.44234537 17.6155825 3.44234537 10.6887324 0.549390935 10.6887324"></polygon>
                                        <polygon id="Fill-7" points="0.549390935 27.8811885 3.44234537 27.8811885 3.44234537 20.9543385 0.549390935 20.9543385"></polygon>
                                        <polygon id="Fill-9" points="0.549390935 38.1467946 3.44234537 38.1467946 3.44234537 31.2199445 0.549390935 31.2199445"></polygon>
                                        <polygon id="Fill-11" points="6.50840282 7.34997645 9.40135726 7.34997645 9.40135726 0.423126388 6.50840282 0.423126388"></polygon>
                                        <polygon id="Fill-13" points="6.50840282 17.6155825 9.40135726 17.6155825 9.40135726 10.6887324 6.50840282 10.6887324"></polygon>
                                        <polygon id="Fill-15" points="6.50840282 27.8811885 9.40135726 27.8811885 9.40135726 20.9543385 6.50840282 20.9543385"></polygon>
                                        <polygon id="Fill-17" points="6.50840282 38.1479819 9.40135726 38.1479819 9.40135726 31.2211318 6.50840282 31.2211318"></polygon>
                                        <polygon id="Fill-19" points="12.4686003 7.34997645 15.3615548 7.34997645 15.3615548 0.423126388 12.4686003 0.423126388"></polygon>
                                        <polygon id="Fill-21" points="12.4686003 17.6155825 15.3615548 17.6155825 15.3615548 10.6887324 12.4686003 10.6887324"></polygon>
                                        <polygon id="Fill-23" points="12.4686003 27.8811885 15.3615548 27.8811885 15.3615548 20.9543385 12.4686003 20.9543385"></polygon>
                                        <polygon id="Fill-25" points="12.4686003 38.1479819 15.3615548 38.1479819 15.3615548 31.2211318 12.4686003 31.2211318"></polygon>
                                    </g>
                                </g>
                            </g>
                            <path d="M39.7493881,184.480093 C32.5970854,175.961895 26.697194,166.351656 22.3314568,155.930095 L227.719268,155.930095 C211.070939,196.090074 171.290194,224.202059 125.025362,224.202059 C97.9169331,224.202059 73.0948257,214.550482 53.8023993,198.478899 C57.6025315,198.409517 60.6694559,195.302609 60.6694559,191.480083 C60.6694559,187.621956 57.536803,184.480083 53.6724799,184.480083 L39.7493795,184.480083 Z" id="Combined-Shape" fill="#D8D8D8"></path>
                            <g id="trees" transform="translate(64.074845, 109.664160)">
                                <g id="Group-3">
                                    <path d="M45.2364366,28.5523534 C45.6375244,27.3987195 45.8553763,26.1600007 45.8553763,24.8706325 C45.8553763,19.0054062 41.3474463,14.1882484 35.5899756,13.6605469 C35.5899756,7.41267512 30.5002387,2.34949536 24.2209595,2.34949536 C18.0983765,2.34949536 13.1049509,7.16487731 12.8612602,13.1971091 C7.70249642,14.2451787 3.82044787,18.7850708 3.82044787,24.2273156 C3.82044787,26.4894171 4.4911489,28.5956191 5.6454546,30.3599647 C2.5968215,32.3850758 0.586539149,35.8532256 0.586539149,39.791829 C0.586539149,46.0383443 5.6430177,51.101524 11.8787377,51.101524 C14.6247666,51.101524 17.1417536,50.119996 19.0990545,48.4880964 C21.0302934,50.0137037 23.473953,50.9249672 26.1312945,50.9249672 C29.0788112,50.9249672 31.7630218,49.8042291 33.7768262,47.9677289 C35.5024162,49.027094 37.5354484,49.6383334 39.7118099,49.6383334 C45.9624129,49.6383334 51.028906,44.5982762 51.028906,38.3802876 C51.028906,34.1581698 48.6929305,30.4791534 45.2364366,28.5523534 Z" id="Combined-Shape" fill="#AA0000"></path>
                                    <path d="M35.192349,11.4537899 C35.192349,17.7798909 30.0719468,22.9075797 23.7548356,22.9075797 C17.4388705,22.9075797 12.3173221,17.7798909 12.3173221,11.4537899 C12.3173221,5.12768885 17.4388705,0 23.7548356,0 C30.0719468,0 35.192349,5.12768885 35.192349,11.4537899" id="Fill-1" fill="#E42828"></path>
                                    <path d="M22.2884877,37.2982388 C22.2884877,43.6243398 17.2993779,48.7520287 11.1442438,48.7520287 C4.99022665,48.7520287 0,43.6243398 0,37.2982388 C0,30.9721378 4.99022665,25.8444489 11.1442438,25.8444489 C17.2993779,25.8444489 22.2884877,30.9721378 22.2884877,37.2982388" id="Fill-10" fill="#E42828"></path>
                                    <path d="M14.6634787,32.892935 C8.50946154,32.892935 3.5192349,27.8967254 3.5192349,21.7328321 C3.5192349,15.5689388 8.50946154,10.5727291 14.6634787,10.5727291 C20.8186128,10.5727291 25.8077226,15.5689388 25.8077226,21.7328321 C25.8077226,27.8967254 20.8186128,32.892935 14.6634787,32.892935 Z" id="Fill-4" fill="#E42828"></path>
                                    <path d="M45.1635145,22.3202059 C45.1635145,28.4840992 40.1744047,33.4803088 34.0192707,33.4803088 C27.8652535,33.4803088 22.8750268,28.4840992 22.8750268,22.3202059 C22.8750268,16.1563126 27.8652535,11.1601029 34.0192707,11.1601029 C40.1744047,11.1601029 45.1635145,16.1563126 45.1635145,22.3202059" id="Fill-6" fill="#E42828"></path>
                                    <path d="M36.3654273,37.0045519 C36.3654273,43.1684452 31.3763175,48.1646548 25.2211834,48.1646548 C19.0671662,48.1646548 14.0769396,43.1684452 14.0769396,37.0045519 C14.0769396,30.8406586 19.0671662,25.8444489 25.2211834,25.8444489 C31.3763175,25.8444489 36.3654273,30.8406586 36.3654273,37.0045519" id="Fill-8" fill="#E42828"></path>
                                    <path d="M49.8558277,35.8298042 C49.8558277,41.9936975 44.8667179,46.9899072 38.7115839,46.9899072 C32.5575667,46.9899072 27.56734,41.9936975 27.56734,35.8298042 C27.56734,29.6659109 32.5575667,24.6697013 38.7115839,24.6697013 C44.8667179,24.6697013 49.8558277,29.6659109 49.8558277,35.8298042" id="Fill-13" fill="#E42828"></path>
                                </g>
                                <ellipse id="Oval-12" fill="#BDBDBD" cx="25.4930137" cy="78.372245" rx="14.1363015" ry="1.52955346"></ellipse>
                                <ellipse id="Oval-12" fill="#BDBDBD" cx="107.84312" cy="53.5464635" rx="11.246664" ry="1.45896814"></ellipse>
                                <polygon id="Fill-10" fill="#650000" points="35.7393655 29.5201243 26.3952103 38.092878 24.4819952 18.6580103 23.5890122 18.6580103 23.2090164 29.7664369 16.9420459 27.6123065 16.6809958 28.2300816 23.2090164 31.8003566 21.7019485 78.5215826 28.3339467 78.5215826 27.3450417 49.6493996 27.1319034 45.0338978 36.0498188 29.8751872"></polygon>
                            </g>
                            <g id="trees2" transform="translate(152.642257, 103.790422)">
                                <g id="Group">
                                    <path d="M10.1995533,11.3593809 C9.59591599,11.2199616 8.96714493,11.1462824 8.32115535,11.1462824 C3.72531724,11.1462824 0,14.8781447 0,19.4800806 C0,22.0851848 1.1938021,24.4114683 3.06352676,25.9397831 C1.73397365,27.4169122 0.924661718,29.3728405 0.924661718,31.5177892 C0.924661718,36.1197251 4.64997896,39.8515874 9.24581707,39.8515874 C10.5556914,39.8515874 11.7947705,39.5486499 12.8970652,39.0089628 C14.5687568,40.674266 16.8728337,41.7035426 19.4170071,41.7035426 C21.69152,41.7035426 23.7739166,40.8814644 25.3843411,39.5180066 C26.8578149,40.8552575 28.812801,41.6699938 30.9578201,41.6699938 C35.5455636,41.6699938 39.263025,37.945643 39.263025,33.35297 C39.263025,30.0335194 37.3210313,27.1676785 34.5120646,25.8338092 C36.3089131,24.3050472 37.4487996,22.0256781 37.4487996,19.4800806 C37.4487996,14.8781447 33.7234823,11.1462824 29.126044,11.1462824 C28.2667493,11.1462824 27.4378869,11.2767433 26.6581165,11.5189596 C26.6864746,11.2386909 26.7010022,10.9543098 26.7010022,10.6665192 C26.7010022,6.07384616 23.001243,2.34949536 18.4353459,2.34949536 C13.8710381,2.34949536 10.1712789,6.07384616 10.1712789,10.6665192 C10.1712789,10.899839 10.1808276,11.1309177 10.1995533,11.3593809 Z" id="Combined-Shape" fill="#AA0000"></path>
                                    <path d="M28.6645133,30.0942714 C28.6645133,35.2075335 24.5252719,39.3540472 19.4170071,39.3540472 C14.3105203,39.3540472 10.1712789,35.2075335 10.1712789,30.0942714 C10.1712789,24.9810093 14.3105203,20.8344956 19.4170071,20.8344956 C24.5252719,20.8344956 28.6645133,24.9810093 28.6645133,30.0942714" id="Fill-13" fill="#E42828"></path>
                                    <path d="M27.2775207,19.908518 C27.2775207,25.0217801 23.1382793,29.1682938 18.0300145,29.1682938 C12.9235277,29.1682938 8.78428632,25.0217801 8.78428632,19.908518 C8.78428632,14.7952559 12.9235277,10.6487422 18.0300145,10.6487422 C23.1382793,10.6487422 27.2775207,14.7952559 27.2775207,19.908518" id="Fill-13-Copy" fill="#E42828"></path>
                                    <path d="M37.4487996,17.1305853 C37.4487996,21.7325212 33.7234823,25.4643835 29.126044,25.4643835 C24.5302059,25.4643835 20.8048887,21.7325212 20.8048887,17.1305853 C20.8048887,12.5286494 24.5302059,8.79678703 29.126044,8.79678703 C33.7234823,8.79678703 37.4487996,12.5286494 37.4487996,17.1305853" id="Fill-8" fill="#E42828"></path>
                                    <path d="M16.6439109,17.1305853 C16.6439109,21.7325212 12.9185937,25.4643835 8.32115535,25.4643835 C3.72531724,25.4643835 0,21.7325212 0,17.1305853 C0,12.5286494 3.72531724,8.79678703 8.32115535,8.79678703 C12.9185937,8.79678703 16.6439109,12.5286494 16.6439109,17.1305853" id="Fill-1" fill="#E42828"></path>
                                    <path d="M17.5685726,29.1682938 C17.5685726,33.7702297 13.8432554,37.5020921 9.24581707,37.5020921 C4.64997896,37.5020921 0.924661718,33.7702297 0.924661718,29.1682938 C0.924661718,24.566358 4.64997896,20.8344956 9.24581707,20.8344956 C13.8432554,20.8344956 17.5685726,24.566358 17.5685726,29.1682938" id="Fill-3" fill="#E42828"></path>
                                    <path d="M39.263025,31.0034746 C39.263025,35.5961476 35.5455636,39.3204984 30.9578201,39.3204984 C26.3716735,39.3204984 22.6542121,35.5961476 22.6542121,31.0034746 C22.6542121,26.4108016 26.3716735,22.6864508 30.9578201,22.6864508 C35.5455636,22.6864508 39.263025,26.4108016 39.263025,31.0034746" id="Fill-5" fill="#E42828"></path>
                                    <path d="M26.7010022,8.31702383 C26.7010022,12.9096969 23.001243,16.6340477 18.4353459,16.6340477 C13.8710381,16.6340477 10.1712789,12.9096969 10.1712789,8.31702383 C10.1712789,3.7243508 13.8710381,0 18.4353459,0 C23.001243,0 26.7010022,3.7243508 26.7010022,8.31702383" id="Fill-10" fill="#E42828"></path>
                                </g>
                                <polygon id="Fill-10" fill="#650000" points="27.8329067 24.5886674 20.4675138 31.3460145 18.9594501 16.0267658 18.2555694 16.0267658 17.9560433 24.7828197 13.0161959 23.0848581 12.8104271 23.5718102 17.9560433 26.386027 16.7681192 59.509436 21.9956942 59.509436 21.2162044 40.4552726 21.0482013 36.8171712 28.077617 24.8685405"></polygon>
                            </g>
                        </g>
                        <circle id="Oval-7-Copy-4" fill="#D8D8D8" cx="19" cy="206" r="5"></circle>
                        <rect id="Rectangle-5-Copy-7" fill="#D8D8D8" x="31" y="199" width="77" height="14" rx="7"></rect>
                        <rect id="Rectangle-5-Copy-16" fill="#3092F9" x="17" y="35" width="53" height="14" rx="7"></rect>
                        <rect id="Rectangle-5-Copy-19" fill="#3092F9" x="5" y="63" width="53" height="14" rx="7"></rect>
                        <ellipse id="Oval-7-Copy" fill="#3092F9" cx="5" cy="42" rx="5" ry="5"></ellipse>
                    </g>
                </g>
            </g>
        </g>
    </g>
</svg>