<svg viewBox="0 0 3000 1049" xmlns="http://www.w3.org/2000/svg"><g fill="none" fill-rule="evenodd"><g transform="rotate(-180 1500 136.5)"><path d="M1273 9L0 8.113M1708.406 174h139.664c24.262 0 43.93 20.813 43.93 46.5 0 25.681-19.671 46.5-43.93 46.5L0 264.659m3000-52.473l-1071-2.527M1707 175L0 171.908" stroke="#ECECEC" stroke-width="4"/><circle fill="#ECECEC" cx="1149" cy="264" r="9"/><circle fill="#ECECEC" cx="1929" cy="210" r="9"/><circle fill="#ECECEC" cx="1271" cy="9" r="9"/><circle fill="#ECECEC" cx="191" cy="9" r="9"/><circle fill="#ECECEC" cx="1349" cy="174" r="9"/></g><g transform="rotate(-180 735.5 478.75)"><path d="M183.608 101H43.934C19.67 101 0 80.187 0 54.5 0 28.819 19.673 8 43.934 8h724.613M1471 597.475l-919-1.816M79.194 101h455.219C569.53 101 598 133.898 598 174.5c0 40.593-28.473 73.5-63.587 73.5H22m1449 103.816L777 350" stroke="#ECECEC" stroke-width="4"/><circle fill="#ECECEC" cx="777" cy="9" r="9"/><circle fill="#ECECEC" cx="111" cy="102" r="9"/><circle fill="#ECECEC" cx="553" cy="596" r="9"/><circle fill="#ECECEC" cx="780" cy="351" r="9"/></g><g transform="rotate(-180 1500 483)"><path d="M0 7l1444 3.79M1153.795 104h158.899c21.978 0 39.796 20.59 39.796 46 0 25.405-17.82 46-39.796 46H890" stroke="#ECECEC" stroke-width="4"/><path d="M1153.795 104h158.899c21.978 0 39.796 20.59 39.796 46 0 25.405-17.82 46-39.796 46H0" stroke="#ECECEC" stroke-width="4"/><circle fill="#ECECEC" cx="1451" cy="9" r="9"/><circle fill="#ECECEC" cx="331" cy="9" r="9"/><circle fill="#ECECEC" cx="1152" cy="103" r="9"/><circle fill="#ECECEC" cx="646" cy="197" r="9"/></g></g></svg>