<svg viewBox="0 0 1010 595" xmlns="http://www.w3.org/2000/svg"><g fill="none" fill-rule="evenodd"><g transform="rotate(-180 510 87)"><path d="M268.978 5.5H0m539.99 102.809h86.954c15.106 0 27.351 12.955 27.351 28.945 0 15.985-12.247 28.944-27.35 28.944l-437.105-1.457m829.829-33.284L677 130m-136.64-21.54L0 107" stroke="#ECECEC" stroke-width="3"/><ellipse fill="#ECECEC" cx="191.604" cy="164.227" rx="5.5" ry="5.499"/><ellipse fill="#ECECEC" cx="677.603" cy="130.602" rx="5.603" ry="5.602"/><ellipse fill="#ECECEC" cx="267.561" cy="5.499" rx="5.5" ry="5.499"/><ellipse fill="#ECECEC" cx="319.5" cy="107.499" rx="5.5" ry="5.499"/></g><g transform="rotate(-180 296 300)"><path d="M114.357 62.854H27.363C12.251 62.854 0 49.9 0 33.916 0 17.934 12.253 4.98 27.363 4.98h451.314M592 372.144l-248.196-1.457M49.325 62.854H332.85c21.873 0 39.605 20.473 39.605 45.74 0 25.262-17.734 45.74-39.605 45.74H13.702" stroke="#ECECEC" stroke-width="3"/><ellipse fill="#ECECEC" cx="483.837" cy="5.5" rx="5.5" ry="5.5"/><ellipse fill="#ECECEC" cx="69.029" cy="63.371" rx="5.5" ry="5.495"/><circle fill="#ECECEC" cx="344.322" cy="370.799" r="5.5"/></g><g transform="rotate(-180 510 302.5)"><path d="M0 3.429l375.565 1.85M195.006 64.688h98.864c13.674 0 24.76 12.807 24.76 28.612 0 15.802-11.087 28.612-24.76 28.612H0" stroke="#ECECEC" stroke-width="3"/><ellipse fill="#ECECEC" cx="379.821" cy="5.498" rx="5.5" ry="5.498"/><ellipse fill="#ECECEC" cx="193.79" cy="63.967" rx="5.5" ry="5.498"/></g></g></svg>