<svg width="320" height="730" viewBox="0 0 320 730" xmlns="http://www.w3.org/2000/svg"><title>AD3EFBDC-EA7B-407A-8F78-6063CF27E08A</title><g transform="translate(-1)" fill="none" fill-rule="evenodd"><path d="M240.959 121h51.76c8.992 0 16.281 7.61 16.281 17 0 9.389-7.29 17-16.281 17H1m67.576 474H1M1 28h32.882C44.992 28 54 38.07 54 50.5 54 62.926 44.992 73 33.882 73H.5M256 264h65M199 6h122" stroke="#ECECEC" stroke-width="2"/><path d="M192.63 238l-148.753-1.923c-10.425 0-18.877-9.865-18.877-22.039C25 201.867 33.453 192 43.877 192H196m90.63 327.924l-35.753.076C240.452 520 232 510.153 232 498c0-12.15 8.453-22 18.877-22H321" stroke="#EDEDED" stroke-width="2"/><ellipse fill="#EDEDED" cx="285" cy="121" rx="4" ry="4"/><ellipse fill="#EDEDED" cx="257" cy="264" rx="4" ry="4"/><ellipse fill="#EDEDED" cx="200" cy="6" rx="4" ry="4"/><path d="M1 507h128m86 216l106 .082" stroke="#ECECEC" stroke-width="2"/><ellipse fill="#EDEDED" cx="62" cy="507" rx="4" ry="4"/><ellipse fill="#EDEDED" cx="68" cy="629" rx="4" ry="4"/><ellipse fill="#EDEDED" cx="129" cy="507" rx="4" ry="4"/><ellipse fill="#EDEDED" cx="214" cy="723" rx="4" ry="4"/><ellipse fill="#EDEDED" cx="285" cy="520" rx="4" ry="4"/><ellipse fill="#EDEDED" cx="63" cy="236" rx="4" ry="4"/><path d="M113.903 368h-77.52C22.917 368 12 356.586 12 342.5c0-14.083 10.918-25.5 24.383-25.5l148.617.402M111.768 368h150.81c21.22 0 38.422 20.103 38.422 44.913 0 24.805-17.204 44.913-38.421 44.913H1" stroke="#EDEDED" stroke-width="2"/></g></svg>