<svg width="1000" height="784" viewBox="0 0 1000 784" xmlns="http://www.w3.org/2000/svg"><title>Artboard 6</title><g transform="translate(0 29)" fill="none" fill-rule="evenodd"><path d="M230 119h393.719c8.992 0 16.281 7.61 16.281 17 0 9.389-7.29 17-16.281 17H0m399.576 474H0M0 26h364.882C375.992 26 385 36.07 385 48.5c0 12.426-9.008 22.5-20.118 22.5H0m587 191h413M530 4h470" stroke="#ECECEC" stroke-width="2"/><path d="M523.63 234l-148.753.077c-10.425 0-18.877-9.865-18.877-22.039 0-12.171 8.453-22.038 18.877-22.038H527m90.63 327.924l-35.753.076C571.452 518 563 508.153 563 496c0-12.15 8.453-22 18.877-22H1000" stroke="#EDEDED" stroke-width="2"/><ellipse fill="#EDEDED" cx="616" cy="119" rx="4" ry="4"/><ellipse fill="#EDEDED" cx="231" cy="119" rx="4" ry="4"/><ellipse fill="#EDEDED" cx="588" cy="262" rx="4" ry="4"/><ellipse fill="#EDEDED" cx="531" cy="4" rx="4" ry="4"/><path d="M0 505h460m86 216l454 .082" stroke="#ECECEC" stroke-width="2"/><ellipse fill="#EDEDED" cx="393" cy="505" rx="4" ry="4"/><ellipse fill="#EDEDED" cx="399" cy="627" rx="4" ry="4"/><ellipse fill="#EDEDED" cx="460" cy="505" rx="4" ry="4"/><ellipse fill="#EDEDED" cx="545" cy="721" rx="4" ry="4"/><ellipse fill="#EDEDED" cx="616" cy="518" rx="4" ry="4"/><ellipse fill="#EDEDED" cx="665" cy="474" rx="4" ry="4"/><ellipse fill="#EDEDED" cx="394" cy="234" rx="4" ry="4"/><ellipse fill="#EDEDED" cx="524" cy="234" rx="4" ry="4"/><ellipse fill="#EDEDED" cx="517" cy="315" rx="4" ry="4"/><ellipse fill="#EDEDED" cx="524" cy="190" rx="4" ry="4"/><path d="M444.903 366h-77.52C353.917 366 343 354.586 343 340.5c0-14.083 10.918-25.5 24.383-25.5l148.617.402M442.768 366h150.81c21.22 0 38.422 20.103 38.422 44.913 0 24.805-17.204 44.913-38.421 44.913H0" stroke="#EDEDED" stroke-width="2"/></g></svg>