<svg width="265" height="228" viewBox="0 0 265 228" xmlns="http://www.w3.org/2000/svg"><title>money_ill</title><g fill="none" fill-rule="evenodd"><path d="M55.618 55.027C75.342 23.207 110.683 2 151 2c61.856 0 112 49.92 112 111.5 0 16.878-3.767 32.88-10.51 47.219-17.857 37.975-188.28 35.78-205.065-4.716C41.995 142.904 39 128.55 39 113.5c0-15.819 3.309-30.868 9.276-44.5h6.72A7.003 7.003 0 0 0 62 62c0-3.649-2.805-6.657-6.382-6.973z" fill="#D8D8D8"/><rect fill="#BDBDBD" x="61" y="203" width="54" height="14" rx="7"/><path d="M68.582 189c-15.236-16.476-25.551-37.532-28.625-60.857l222.088-.02C254.852 182.794 207.877 225 151 225c-25.088 0-48.25-8.212-66.92-22.083A7.004 7.004 0 0 0 90 196c0-3.858-3.136-7-7.004-7H68.582z" fill="#BDBDBD"/><rect fill="#BDBDBD" x="40" y="175" width="54" height="14" rx="7"/><g transform="translate(67 71)"><g transform="translate(18)"><path fill="#AEABAB" d="M0 17v67h114V17z"/><path fill="#3092F9" d="M11 10.523l5.89-2.395L19.343 3H126v63.09l-5.174-2.21V73L12.665 66.09z"/><path fill="#0054AB" d="M0 14v67h114V14z"/><path fill="#3092F9" d="M5 19h105v58H5z"/><circle fill="#0054AB" cx="94" cy="44" r="3"/><ellipse fill="#0054AB" cx="57" cy="48" rx="23" ry="23"/><path d="M54 37h4.283C62.138 37 64 39.13 64 42.48c0 3.37-1.88 5.52-5.717 5.52H54V37zm8.15 19.696v-2.544h-7.91V50.54h5.24c5.165 0 8.519-3.5 8.519-8.252C68 37.555 64.684 34 59.52 34h-8.709v13.622H47v2.919h3.811v3.61H47v2.545h3.811V61h3.43v-4.304h7.909z" fill="#3092F9"/><path fill="#0054AB" d="M7 7v11.552h4.56V11.62h104.88v57.758h-6.84V74H121V7z"/><path fill="#0054AB" d="M14 0v9.412h4.56V4.62h104.88v57.758h-6.84V67H128V0z"/><path fill="#0054AB" d="M81 22h25v3H81zM8 23h25v3H8z"/></g><ellipse fill="#A5A1A1" opacity=".6" cx="124" cy="104" rx="17" ry="2"/><path d="M114.318 102.746a21.41 21.41 0 0 0 8.087 1.576c.52 0 1.048-.018 1.57-.056a21.428 21.428 0 0 0 16.471-6.253 21.338 21.338 0 0 0 4.719-7.11 21.413 21.413 0 0 0 1.572-8.086 21.434 21.434 0 0 0-1.577-8.087 21.382 21.382 0 0 0-4.724-7.114 21.44 21.44 0 0 0-16.77-6.244c-.423-.024-.85-.037-1.274-.037a21.42 21.42 0 0 0-15.198 6.29 21.408 21.408 0 0 0-6.29 15.197c0 2.79.531 5.512 1.577 8.087a21.366 21.366 0 0 0 4.723 7.114 21.38 21.38 0 0 0 7.114 4.723z" fill="#A00"/><path d="M111.664 68.095a20.988 20.988 0 0 0-4.5 7.022 20.922 20.922 0 0 0-1.423 7.908c.038 2.717.59 5.357 1.642 7.844a20.61 20.61 0 0 0 4.695 6.832c.452.437.921.851 1.405 1.242a19.122 19.122 0 0 1-3.002-2.372 18.936 18.936 0 0 1-4.317-6.282 19.107 19.107 0 0 1-1.51-7.216c-.036-2.5.405-4.948 1.31-7.277a19.33 19.33 0 0 1 4.141-6.461 19.585 19.585 0 0 1 2.67-2.31c-.382.342-.752.699-1.11 1.07zm-1.877 29.195a19.93 19.93 0 0 0 6.765 4.31 20 20 0 0 0 4.14 1.095l.216-.974a19.599 19.599 0 0 1-8.136-4.739 19.61 19.61 0 0 1-4.468-6.503 19.789 19.789 0 0 1-1.564-7.468 19.923 19.923 0 0 1 1.357-7.532 19.989 19.989 0 0 1 4.287-6.69 20 20 0 0 1 7.745-4.99l-.27-.961a20.33 20.33 0 0 0-10.473 5.803 20.33 20.33 0 0 0-4.355 6.793 20.276 20.276 0 0 0-1.378 7.653c.037 2.63.572 5.185 1.59 7.591a19.935 19.935 0 0 0 4.544 6.612z" fill="#A00"/><path d="M126.5 101.5c11.037 0 20-8.721 20-19.5s-8.963-19.5-20-19.5-20 8.721-20 19.5 8.963 19.5 20 19.5z" fill="#E42828"/><path d="M127 99.75c9.798 0 17.75-7.718 17.75-17.25S136.798 65.25 127 65.25s-17.75 7.718-17.75 17.25 7.952 17.25 17.75 17.25zm0-1.5c-8.98 0-16.25-7.057-16.25-15.75s7.27-15.75 16.25-15.75 16.25 7.057 16.25 15.75-7.27 15.75-16.25 15.75z" fill="#A00"/><path d="M126 74h3.426c3.084 0 4.574 1.55 4.574 3.986 0 2.45-1.505 4.014-4.574 4.014H126v-8zm5.543 14.812v-1.885h-6.026v-2.675h3.993c3.935 0 6.49-2.592 6.49-6.112 0-3.507-2.526-6.14-6.461-6.14h-6.635v10.09H120v2.162h2.904v2.675H120v1.885h2.904V92h2.613v-3.188h6.026z" fill="#A00"/><path d="M51.216 76.917a9.385 9.385 0 0 0 .401-2.708v-7.246c0-3.86-2.37-7.438-6.673-10.075C40.854 54.38 35.443 53 29.708 53c-5.734 0-11.145 1.38-15.236 3.888-4.131 2.532-6.492 5.931-6.673 9.615v1.356c-.384.205-.762.416-1.126.64C2.54 71.03.18 74.429 0 78.114v7.705c0 3.86 2.37 7.439 6.673 10.076 2.088 1.28 4.522 2.264 7.166 2.923a17.97 17.97 0 0 0 3.016 2.294C20.945 103.62 26.357 105 32.09 105c5.735 0 11.145-1.38 15.237-3.888C51.63 98.475 54 94.897 54 91.036v-7.245c0-2.463-.967-4.811-2.784-6.874z" fill="#AEABAB"/><path d="M51.216 73.917a9.385 9.385 0 0 0 .401-2.708v-7.246c0-3.86-2.37-7.438-6.673-10.075C40.854 51.38 35.443 50 29.708 50c-5.734 0-11.145 1.38-15.236 3.888-4.131 2.532-6.492 5.931-6.673 9.615v1.356c-.384.205-.762.416-1.126.64C2.54 68.03.18 71.429 0 75.114v7.705c0 3.86 2.37 7.439 6.673 10.076 2.088 1.28 4.522 2.264 7.166 2.923a17.97 17.97 0 0 0 3.016 2.294C20.945 100.62 26.357 102 32.09 102c5.735 0 11.145-1.38 15.237-3.888C51.63 95.475 54 91.897 54 88.036v-7.245c0-2.463-.967-4.811-2.784-6.874z" fill="#A00"/><path d="M49.544 78.306l.064.123-.064-.123zm2.206 2.673c0-1.53-.528-3.029-1.537-4.42l-.617-.849-.604.858c-1.11 1.578-2.76 3.018-4.883 4.242-.332.192-.694.385-1.128.603l-.413.207v1.336c0 2.702-1.39 5.285-4.044 7.464l-2.522 2.072 3.173-.763c2.475-.594 4.73-1.465 6.66-2.58 3.783-2.183 5.915-5.077 5.915-8.17zM29.5 50.75c-5.55 0-10.767 1.328-14.707 3.762C10.94 56.894 8.75 60.078 8.75 63.5c0 3.422 2.19 6.606 6.043 8.988 3.94 2.434 9.157 3.762 14.707 3.762 5.55 0 10.767-1.328 14.706-3.762 3.854-2.382 6.044-5.566 6.044-8.988 0-3.422-2.19-6.606-6.044-8.988-3.939-2.434-9.156-3.762-14.706-3.762z" fill="#E42828"/><path d="M30 53.65c4.805 0 9.294 1.13 12.63 3.17 3.067 1.874 4.72 4.252 4.72 6.68s-1.653 4.806-4.72 6.68c-3.336 2.04-7.825 3.17-12.63 3.17-4.805 0-9.294-1.13-12.63-3.17-3.067-1.874-4.72-4.252-4.72-6.68s1.653-4.806 4.72-6.68c3.336-2.04 7.825-3.17 12.63-3.17zm0-1.3c-5.033 0-9.756 1.189-13.308 3.36-3.421 2.092-5.342 4.854-5.342 7.79s1.92 5.698 5.342 7.79c3.552 2.171 8.275 3.36 13.308 3.36 5.033 0 9.756-1.189 13.307-3.36 3.422-2.092 5.343-4.854 5.343-7.79s-1.921-5.698-5.343-7.79c-3.551-2.17-8.274-3.36-13.307-3.36z" fill="#A00"/><path d="M22.055 87.75c3.634 0 7.137-.599 10.206-1.74l4.77-1.774-5.079.322c-.712.045-1.424.068-2.135.068-5.572 0-10.819-1.366-14.765-3.834-4.077-2.55-6.288-5.956-6.288-9.595v-4.585l-1.161.76C4.169 69.623 2.25 72.54 2.25 75.63c0 3.193 2.042 6.197 5.679 8.47 3.77 2.359 8.784 3.65 14.126 3.65z" fill="#E42828"/><path d="M23.055 85.35c-5.096 0-9.858-1.162-13.398-3.259-3.254-1.927-5.007-4.37-5.007-6.863 0-2.215 1.39-4.395 3.998-6.21l.864 2.793 1.242-.384-1.368-4.423-.715.444c-3.413 2.119-5.321 4.866-5.321 7.78 0 3.012 2.03 5.84 5.645 7.982 3.752 2.223 8.742 3.44 14.06 3.44 3.619 0 7.106-.565 10.161-1.641l4.371-1.54-4.626.278c-.716.043-1.43.065-2.144.065v.573c-2.412.634-5.046.965-7.762.965zm8.325-21.41l.725-2.142c.4-1.209.266-2.214-.416-2.982-.667-.75-1.794-1.198-3.372-1.357-1.497-.15-2.803.06-3.915.637-1.123.583-1.884 1.455-2.274 2.607l-1.369 4.051 7.813.787-.49 1.447 2.194.22.489-1.446.958.096-.49 1.447 2.204.222.49-1.447 2.947.297.615-1.821-2.947-.297.792-2.342-2.204-.222-.792 2.342-.957-.096z" fill="#A00"/><path d="M29.45 64.337l.851-2.553c.262-.785.177-1.442-.27-1.936-.43-.474-1.16-.755-2.182-.86-.922-.095-1.742.03-2.455.379-.728.355-1.222.894-1.468 1.609l-.802 2.406-.1.296 6.425.659z" fill="#E42828"/></g><rect fill="#D8D8D8" x="19" y="69" width="54" height="14" rx="7"/><rect fill="#D8D8D8" x="36" y="41" width="54" height="14" rx="7"/><circle fill="#D8D8D8" cx="24" cy="48" r="5"/><circle fill="#D8D8D8" cx="7" cy="48" r="5"/></g></svg>