<?xml version="1.0" encoding="UTF-8"?>
<svg width="265px" height="228px" viewBox="0 0 265 228" version="1.1" xmlns="http://www.w3.org/2000/svg" xmlns:xlink="http://www.w3.org/1999/xlink">
    <!-- Generator: Sketch 41.2 (35397) - http://www.bohemiancoding.com/sketch -->
    <title>money_ill</title>
    <desc>Created with Sketch.</desc>
    <defs></defs>
    <g id="Page-1" stroke="none" stroke-width="1" fill="none" fill-rule="evenodd">
        <g id="large-devices--≥-1200px-" transform="translate(-181.000000, -1247.000000)">
            <g id="ill" transform="translate(181.000000, 1247.000000)">
                <g id="money_ill">
                    <g id="economy-copy-2" transform="translate(39.000000, 2.000000)" fill="#D8D8D8">
                        <g id="money">
                            <g id="Group-9">
                                <path d="M16.6180448,53.027311 C36.3422855,21.2071083 71.6834442,0 112,0 C173.855892,0 224,49.9202504 224,111.5 C224,128.378059 220.233057,144.38023 213.490487,158.718727 C195.632731,196.694364 25.2103837,194.499236 8.42471973,154.002996 C2.9952643,140.904168 0,126.550313 0,111.5 C0,95.681057 3.30901697,80.6315261 9.27554962,67 L15.9958029,67 C19.8633242,67 23,63.8659932 23,60 C23,56.351015 20.1948801,53.3427347 16.6180448,53.027311 Z" id="Combined-Shape"></path>
                            </g>
                        </g>
                    </g>
                    <rect id="Rectangle-5-Copy-33" fill="#BDBDBD" x="61" y="203" width="54" height="14" rx="7"></rect>
                    <path d="M68.5824872,189 C53.3461526,172.524319 43.0306897,151.46843 39.9571842,128.143059 L262.04538,128.123588 C254.851644,182.792749 207.876941,225 151,225 C125.911868,225 102.750363,216.787956 84.0797224,202.916659 C87.4327841,202.395901 90,199.497498 90,196 C90,192.141873 86.8641142,189 82.9958029,189 L68.5824872,189 Z" id="Combined-Shape" fill="#BDBDBD"></path>
                    <rect id="Rectangle-5-Copy-32" fill="#BDBDBD" x="40" y="175" width="54" height="14" rx="7"></rect>
                    <g id="money-ill" transform="translate(67.000000, 71.000000)">
                        <g id="money-blue" transform="translate(18.000000, 0.000000)">
                            <polygon id="Shape" fill="#AEABAB" points="0 17 0 84 2.28 84 114 84 114 17"></polygon>
                            <polygon id="Path" fill="#3092F9" points="11 10.5231151 16.8902581 8.12758129 19.3432558 3 126 3 126 66.0896831 120.826307 63.8801037 120.826307 73 12.6647195 66.0896831"></polygon>
                            <polygon id="Shape" fill="#0054AB" points="0 14 0 81 2.28 81 114 81 114 14"></polygon>
                            <polygon id="Path" fill="#3092F9" points="5 19 110 19 110 77 5 77"></polygon>
                            <circle id="Oval-10" fill="#0054AB" cx="94" cy="44" r="3"></circle>
                            <ellipse id="Oval-9" fill="#0054AB" cx="57" cy="48" rx="23" ry="23"></ellipse>
                            <path d="M54,37 L58.283054,37 C62.1378026,37 64,39.1302817 64,42.4806338 C64,45.8503521 62.1191806,48 58.283054,48 L54,48 L54,37 Z M62.1497278,56.6964657 L62.1497278,54.1517672 L54.2413793,54.1517672 L54.2413793,50.5405405 L59.4818512,50.5405405 C64.646098,50.5405405 68,47.04158 68,42.2889813 C68,37.5550936 64.6842105,34 59.5199637,34 L50.8112523,34 L50.8112523,47.6216216 L47,47.6216216 L47,50.5405405 L50.8112523,50.5405405 L50.8112523,54.1517672 L47,54.1517672 L47,56.6964657 L50.8112523,56.6964657 L50.8112523,61 L54.2413793,61 L54.2413793,56.6964657 L62.1497278,56.6964657 Z" id="₽" fill="#3092F9"></path>
                            <polygon id="Shape" fill="#0054AB" points="7 7 7 18.5517241 11.56 18.5517241 11.56 11.6206897 116.44 11.6206897 116.44 69.3793103 109.6 69.3793103 109.6 74 121 74 121 7"></polygon>
                            <polygon id="Shape" fill="#0054AB" points="14 0 14 9.41181458 18.56 9.41181458 18.56 4.62068966 123.44 4.62068966 123.44 62.3793103 116.6 62.3793103 116.6 67 128 67 128 0"></polygon>
                            <rect id="Rectangle-4" fill="#0054AB" x="81" y="22" width="25" height="3"></rect>
                            <rect id="Rectangle-4" fill="#0054AB" x="8" y="23" width="25" height="3"></rect>
                        </g>
                        <ellipse id="Oval-12" fill="#A5A1A1" opacity="0.6" cx="124" cy="104" rx="17" ry="2"></ellipse>
                        <g id="coin-big-copy-2" transform="translate(91.000000, 50.000000)">
                            <g id="Group" transform="translate(33.234019, 33.234019) rotate(-225.000000) translate(-33.234019, -33.234019) translate(10.234019, 10.234019)" fill="#AA0000">
                                <path d="M43.8085036,16.214752 C42.7264654,13.6539349 41.1778419,11.355048 39.2050955,9.38157423 C38.8374223,9.01317247 38.450766,8.65326844 38.0556172,8.31135962 C37.7743672,7.99544386 37.4811279,7.68352704 37.1813943,7.38360702 C35.2086479,5.41013328 32.9106905,3.8605465 30.3524645,2.77733536 C27.7008215,1.65463474 24.8868228,1.08578644 21.9874001,1.08578644 C19.0879774,1.08578644 16.2734791,1.65463474 13.6228353,2.77683549 C11.0636101,3.86004663 8.76565275,5.40963341 6.79340586,7.38310715 C4.82165853,9.35658089 3.27253552,11.6554679 2.18999778,14.216285 C1.06849467,16.8695774 0.5,19.6858264 0.5,22.5865529 C0.5,25.4877792 1.06849467,28.3040282 2.18999778,30.9568208 C3.27253552,33.5176379 4.82165853,35.816025 6.79340586,37.7899986 C7.1615786,38.1579005 7.5482349,38.5183044 7.94338366,38.8602133 C8.22463366,39.1766289 8.51837256,39.4880458 8.81810613,39.787466 C10.790353,41.7614396 13.0883104,43.3110264 15.647036,44.3947374 C18.2981794,45.5164383 21.1121781,46.0857864 24.0121004,46.0857864 C26.9110235,46.0857864 29.7260213,45.5164383 32.3766652,44.3947374 C34.9358903,43.3110264 37.2338477,41.7614396 39.205595,39.787466 C41.1783415,37.8144921 42.7269649,35.5151053 43.8090031,32.9542882 C44.9310058,30.3014956 45.5,27.4862463 45.5,24.5845201 C45.4995004,21.6832938 44.9305062,18.8680445 43.8085036,16.214752 Z" id="Shape"></path>
                            </g>
                            <path d="M20.664427,18.0952362 C18.6951941,20.1344365 17.180699,22.4975343 16.1646674,25.1173516 C15.181677,27.6468513 14.7024645,30.307628 14.7405389,33.0248489 C14.7786179,35.7423962 15.331206,38.3815366 16.3831022,40.8686745 C17.4731121,43.4464485 19.0530402,45.7456746 21.0779659,47.7011227 C21.5303832,48.1380169 21.9991132,48.5520861 22.4834262,48.9428599 C21.4133219,48.2602793 20.4102192,47.4681591 19.4813277,46.5711391 C17.6172655,44.7710351 16.1652102,42.658289 15.1639337,40.2890259 C14.1960037,38.0013005 13.6878848,35.5745192 13.6531565,33.0729955 C13.6184495,30.5729988 14.0590969,28.1250531 14.963073,25.7962915 C15.8993834,23.3851534 17.2922861,21.2122751 19.1053918,19.3347491 C19.9323804,18.4783774 20.8239225,17.7071303 21.7745519,17.024781 C21.3934649,17.366713 21.023287,17.7236257 20.664427,18.0952362 Z M18.7866693,47.2904789 C20.7469426,49.1834927 23.0239575,50.6340279 25.5523862,51.5998106 C26.8918676,52.1127312 28.2762874,52.4786111 29.6919513,52.6946771 L29.9082225,51.7206445 C29.4136232,51.5754552 28.9204169,51.4087351 28.4266839,51.2202109 C25.9389748,50.2696683 23.7013367,48.8443188 21.7726243,46.9817829 C19.8444632,45.1197793 18.3416045,42.9327102 17.3041306,40.4791791 C16.3025984,38.1111234 15.776714,35.5995191 15.7404407,33.010838 C15.7041678,30.4221785 16.1603727,27.8891491 17.0968831,25.4792544 C18.0647893,22.9835279 19.5067591,20.7335928 21.3837668,18.7898945 C23.2602381,16.8467516 25.4590188,15.3268495 27.9195413,14.271919 C28.3161817,14.1012214 28.7197909,13.9432005 29.1292951,13.7980736 L28.8592537,12.8375227 C27.5452048,13.1142103 26.2637271,13.5190986 25.0247481,14.0499982 C22.5256448,15.1220689 20.2915194,16.6669215 18.386052,18.6400908 C16.4807963,20.6130409 15.0154378,22.8989476 14.0308682,25.4343602 C13.0803756,27.8829546 12.6167633,30.4584781 12.6532529,33.086877 C12.6897714,35.717355 13.2246127,38.2717629 14.2428928,40.6784918 C15.2966654,43.1719735 16.8258391,45.3969271 18.7866693,47.2904789 Z" id="Path" fill="#AA0000"></path>
                            <path d="M35.5,51.5 C46.5366366,51.5 55.5,42.7788897 55.5,32 C55.5,21.2211103 46.5366366,12.5 35.5,12.5 C24.4633634,12.5 15.5,21.2211103 15.5,32 C15.5,42.7788897 24.4633634,51.5 35.5,51.5 Z" id="Oval-5" fill="#E42828"></path>
                            <path d="M36,49.75 C45.7981265,49.75 53.75,42.0320052 53.75,32.5 C53.75,22.9679948 45.7981265,15.25 36,15.25 C26.2018735,15.25 18.25,22.9679948 18.25,32.5 C18.25,42.0320052 26.2018735,49.75 36,49.75 Z M36,48.25 C27.020445,48.25 19.75,41.1933916 19.75,32.5 C19.75,23.8066084 27.020445,16.75 36,16.75 C44.979555,16.75 52.25,23.8066084 52.25,32.5 C52.25,41.1933916 44.979555,48.25 36,48.25 Z" id="Oval-11" fill="#AA0000"></path>
                            <path d="M35,24 L38.4264432,24 C41.5102421,24 43,25.5492958 43,27.9859155 C43,30.4366197 41.4953445,32 38.4264432,32 L35,32 L35,24 Z M40.5426497,38.8121968 L40.5426497,36.9272349 L34.5172414,36.9272349 L34.5172414,34.2522523 L38.5099819,34.2522523 C42.4446461,34.2522523 45,31.6604297 45,28.1399861 C45,24.6334026 42.4736842,22 38.53902,22 L31.9038113,22 L31.9038113,32.0900901 L29,32.0900901 L29,34.2522523 L31.9038113,34.2522523 L31.9038113,36.9272349 L29,36.9272349 L29,38.8121968 L31.9038113,38.8121968 L31.9038113,42 L34.5172414,42 L34.5172414,38.8121968 L40.5426497,38.8121968 Z" id="₽" fill="#AA0000"></path>
                        </g>
                        <g id="coins" transform="translate(0.000000, 50.000000)">
                            <g id="Page-1">
                                <path d="M51.216,26.9171495 C51.4806,26.0361401 51.6174,25.1304745 51.6174,24.2085719 L51.6174,16.9632469 C51.6174,13.1030427 49.2474,9.52488175 44.9442,6.88786733 C40.8534,4.38074917 35.4426,3 29.7084,3 C23.9742,3 18.5634,4.38074917 14.472,6.88786733 C10.341,9.41964172 7.98,12.8191953 7.7994,16.5031977 L7.7994,17.8592906 C7.4148,18.0643583 7.0368,18.2754398 6.6726,18.4985486 C2.541,21.030323 0.1806,24.4298766 0,28.113879 L0,35.8192531 C0,39.6794574 2.3694,43.2576183 6.6726,45.8946328 C8.7612,47.1743515 11.1948,48.1587968 13.839,48.8179001 C14.7018,49.6405764 15.7092,50.4097307 16.8546,51.1121327 C20.9454,53.6192508 26.3568,55 32.0904,55 C37.8246,55 43.2354,53.6192508 47.3268,51.1121327 C51.63,48.4751183 54,44.8969573 54,41.0361517 L54,33.7914281 C54,31.3276087 53.0334,28.9798541 51.216,26.9171495 L51.216,26.9171495 Z" id="Fill-1" fill="#AEABAB"></path>
                                <path d="M51.216,23.9171495 C51.4806,23.0361401 51.6174,22.1304745 51.6174,21.2085719 L51.6174,13.9632469 C51.6174,10.1030427 49.2474,6.52488175 44.9442,3.88786733 C40.8534,1.38074917 35.4426,0 29.7084,0 C23.9742,0 18.5634,1.38074917 14.472,3.88786733 C10.341,6.41964172 7.98,9.81919532 7.7994,13.5031977 L7.7994,14.8592906 C7.4148,15.0643583 7.0368,15.2754398 6.6726,15.4985486 C2.541,18.030323 0.1806,21.4298766 0,25.113879 L0,32.8192531 C0,36.6794574 2.3694,40.2576183 6.6726,42.8946328 C8.7612,44.1743515 11.1948,45.1587968 13.839,45.8179001 C14.7018,46.6405764 15.7092,47.4097307 16.8546,48.1121327 C20.9454,50.6192508 26.3568,52 32.0904,52 C37.8246,52 43.2354,50.6192508 47.3268,48.1121327 C51.63,45.4751183 54,41.8969573 54,38.0361517 L54,30.7914281 C54,28.3276087 53.0334,25.9798541 51.216,23.9171495 L51.216,23.9171495 Z" id="Fill-1" fill="#AA0000"></path>
                                <path d="M49.5440233,28.3063673 C49.5659766,28.3473274 49.5874211,28.3883355 49.6083564,28.4293896 L49.5440233,28.3063673 Z M51.75,30.9793978 C51.75,29.4491274 51.2223255,27.9504643 50.21262,26.5594297 L49.5963536,25.7104216 L48.9924076,26.5682376 C47.8813707,28.1463013 46.2312644,29.5857254 44.1093942,30.8098905 C43.7771204,31.0018992 43.414621,31.1948085 42.9814359,31.4126656 L42.56841,31.6203843 L42.56841,32.9561995 C42.56841,35.658102 41.1776995,38.2405506 38.5239408,40.4204591 L36.0024002,42.4917581 L39.175255,41.7292364 C41.6496922,41.134563 43.9048033,40.2635057 45.8342231,39.1498316 C49.6181809,36.9659773 51.75,34.072483 51.75,30.9793978 Z" id="Path" fill="#E42828"></path>
                                <path d="M29.5,0.75 C23.9496968,0.75 18.7328245,2.07771792 14.7933069,4.51233356 C10.940344,6.8937453 8.75,10.0782634 8.75,13.4996912 C8.75,16.9216394 10.9402412,20.1061911 14.7932496,22.487631 C18.7328245,24.9222821 23.9496968,26.25 29.5,26.25 C35.0504044,26.25 40.26728,24.9222386 44.20616,22.4876183 C48.0595813,20.1063372 50.25,16.9217907 50.25,13.4996912 C50.25,10.078112 48.0594784,6.89359921 44.2060567,4.51231787 C40.26728,2.07776136 35.0504044,0.75 29.5,0.75 Z" id="Path" fill="#E42828"></path>
                                <path d="M30,3.65 C34.8049003,3.65 39.2937029,4.78003949 42.6292059,6.81930323 C45.6967061,8.69430778 47.35,11.0716905 47.35,13.499718 C47.35,15.9282441 45.6967924,18.3056394 42.6292595,20.180664 C39.2937029,22.2199605 34.8049003,23.35 30,23.35 C25.1951627,23.35 20.7063238,22.2199876 17.3701896,20.1806721 C14.3030991,18.3055919 12.65,15.928156 12.65,13.499718 C12.65,11.0717786 14.3031854,8.69435528 17.3702194,6.81930977 C20.7063238,4.78001235 25.1951627,3.65 30,3.65 Z M30,2.35 C24.9670112,2.35 20.2440418,3.53895195 16.6921674,5.71014543 C13.2708787,7.80176621 11.35,10.5641557 11.35,13.499718 C11.35,16.4357619 13.2707863,19.1981773 16.6921377,21.2898364 C20.2440418,23.4610481 24.9670112,24.65 30,24.65 C35.0330737,24.65 39.756035,23.4610119 43.307309,21.2898299 C46.7290652,19.1982869 48.65,16.4358864 48.65,13.499718 C48.65,10.5640312 46.7289727,7.80165659 43.3072554,5.71013737 C39.756035,3.53898807 35.0330737,2.35 30,2.35 Z" id="Path" fill="#AA0000"></path>
                                <path d="M22.0546862,37.75 C25.6891528,37.75 29.1918102,37.1512156 32.2614453,36.0095475 L37.031051,34.2356213 L31.9524724,34.5580995 C31.2396862,34.6033598 30.5278252,34.6262093 29.8169988,34.6262093 C24.2454221,34.6262093 18.9984577,33.2600045 15.0518444,30.7922627 C10.9747533,28.2424738 8.76385686,24.8360974 8.76385686,21.1968952 L8.76385686,16.6118825 L7.602798,17.3726798 C4.16907405,19.6226675 2.25,22.5398192 2.25,25.629801 C2.25,28.8231812 4.29207223,31.8271209 7.92861618,34.1001619 C11.6998936,36.4588468 16.7133252,37.75 22.0546862,37.75 Z" id="Path" fill="#E42828"></path>
                                <path d="M23.0546862,35.35 C17.9585961,35.35 13.1968749,34.1882156 9.65748067,32.0910666 C6.4029372,30.1638638 4.65,27.7209656 4.65,25.2282326 C4.65,23.0127557 6.04024297,20.8333227 8.6482142,19.0177759 L9.51192799,21.8109023 L10.7539033,21.4268484 L9.38617609,17.0038151 L8.6710373,17.4477548 C5.25753715,19.5667676 3.35,22.3137711 3.35,25.2282326 C3.35,28.2401762 5.37970218,31.0687749 8.99494918,33.209571 C12.7466927,35.4325404 17.7366058,36.65 23.0546862,36.65 C26.6737428,36.65 30.1608893,36.0852426 33.2160098,35.0087766 L37.5871946,33.4685977 L32.9609693,33.7468917 C32.2453735,33.7899389 31.5306786,33.811672 30.8169988,33.811672 L30.8169988,34.3851538 C28.4053147,35.0194669 25.7710293,35.35 23.0546862,35.35 Z" id="Path" fill="#AA0000"></path>
                            </g>
                            <path d="M31.3805158,13.9405722 L32.1045828,11.7984176 C32.5053535,10.5893296 32.3708583,9.58402413 31.6885585,8.81585504 C31.0220593,8.06547501 29.8953274,7.61838053 28.3167655,7.45941387 C26.8202526,7.30870983 25.51355,7.51991475 24.4019876,8.0963236 C23.2792142,8.67854597 22.5178675,9.55061215 22.1283324,10.7030532 L20.7590722,14.7540141 L28.5719522,15.5407983 L28.0828792,16.9877226 L30.2759047,17.2085678 L30.7649778,15.7616435 L31.7228256,15.8581021 L31.2337526,17.3050264 L33.4374954,17.526951 L33.9265685,16.0800267 L36.873814,16.3768245 L37.489352,14.5557532 L34.5421065,14.2589554 L35.3336015,11.9173146 L33.1298587,11.69539 L32.3383636,14.0370308 L31.3805158,13.9405722 Z" id="₽" fill="#AA0000"></path>
                            <path d="M29.4493846,14.3366033 L30.3010619,11.7840099 C30.5630663,10.9987468 30.4780376,10.3415442 30.0306144,9.84794351 C29.6007864,9.37375401 28.8714688,9.0926107 27.8489928,8.98772856 C26.9274046,8.89319515 26.1073598,9.01874537 25.3937256,9.36695891 C24.6657536,9.72216851 24.1724989,10.2613549 23.9263015,10.9757253 L23.1235608,13.3816108 L23.0248062,13.6775917 L29.4493846,14.3366033 Z" id="Path" fill="#E42828"></path>
                        </g>
                    </g>
                    <rect id="Rectangle-5-Copy-3" fill="#D8D8D8" x="19" y="69" width="54" height="14" rx="7"></rect>
                    <rect id="Rectangle-5-Copy-31" fill="#D8D8D8" x="36" y="41" width="54" height="14" rx="7"></rect>
                    <circle id="Oval-7-Copy" fill="#D8D8D8" cx="24" cy="48" r="5"></circle>
                    <circle id="Oval-7-Copy" fill="#D8D8D8" cx="7" cy="48" r="5"></circle>
                </g>
            </g>
        </g>
    </g>
</svg>