<svg width="246" height="228" viewBox="0 0 246 228" xmlns="http://www.w3.org/2000/svg"><title>nature_ill</title><g transform="translate(2 1)" fill="none" fill-rule="evenodd"><path d="M38.268 49c20.24-28.716 53.699-47.48 91.55-47.48 61.775 0 111.854 49.981 111.854 111.637 0 20.219-5.386 39.183-14.804 55.54-1.689 2.934-194.91-1.153-197.342-6.053-7.402-14.915-11.563-31.716-11.563-49.487 0-18.038 4.286-35.077 11.898-50.157h9.132A6.998 6.998 0 0 0 46 56c0-3.858-3.137-7-7.007-7h-.725z" fill="#3092F9"/><path d="M111.189 44.131a4.443 4.443 0 0 0-4.45-4.437 4.448 4.448 0 0 0-3.643 1.889 3.12 3.12 0 0 0-1.808-.574c-.845 0-1.611.334-2.174.876a3.126 3.126 0 0 0-2.638-.843 5.34 5.34 0 0 0-4.877-3.156 5.34 5.34 0 0 0-5.016 3.493 3.123 3.123 0 0 0-1.48-.37 3.13 3.13 0 0 0-2.443 1.169 5.024 5.024 0 0 0-1.81-.336c-2.774 0-5.022 2.24-5.022 5.006 0 .025 0 .05.002.076h34.365c.62-.763.994-1.735.994-2.793m61.414-7.14c-.293 0-.575.043-.841.121a4.92 4.92 0 0 0-4.76-3.663 4.916 4.916 0 0 0-3.82 1.815 4.094 4.094 0 0 0-2.86-1.158 4.106 4.106 0 0 0-3.53 2 2.976 2.976 0 0 0-1.424-.795l.003-.081c0-2.795-2.274-5.06-5.077-5.06a5.079 5.079 0 0 0-4.58 2.874 3.733 3.733 0 0 0-4.72 2.336 3.986 3.986 0 0 0-1.086-.15c-.058 0-.115.002-.173.004a2.973 2.973 0 0 0-2.043.665 3.973 3.973 0 0 0-1.775 3.267h39.555a2.976 2.976 0 0 0-2.869-2.175" opacity=".95" fill="#FFF"/><path fill="#0054AB" d="M154.847 183.607h47.132V91.092h-47.132z"/><path fill="#0054AB" d="M165.474 154.821h25.878V68.193h-25.878z"/><path fill="#004185" d="M178.413 183.607h23.566V91.092h-10.096l-.533-22.771-12.937 22.77z"/><path d="M160.397 103.563h9.761v-4.854h-9.76zm13.095 0h9.761v-4.854h-9.761zm13.095 0h9.761v-4.854h-9.761zm-26.19 7.376h9.761v-4.854h-9.76zm13.095 0h9.761v-4.854h-9.761zm13.095 0h9.761v-4.854h-9.761zm-26.19 6.557h9.761v-4.854h-9.76zm13.095 0h9.761v-4.854h-9.761zm13.095 0h9.761v-4.854h-9.761zm-26.19 7.376h9.761v-4.854h-9.76zm13.095 0h9.761v-4.854h-9.761zm13.095 0h9.761v-4.854h-9.761zm-26.19 6.557h9.761v-4.854h-9.76zm13.095 0h9.761v-4.854h-9.761zm13.095 0h9.761v-4.854h-9.761zm-26.19 7.376h9.761v-4.854h-9.76zm13.095 0h9.761v-4.854h-9.761zm13.095 0h9.761v-4.854h-9.761zm-16.429-62.101h16.51v-4.855h-16.51zm0 7.194h16.51v-4.855h-16.51zm0 7.194h16.51v-4.854h-16.51z" fill="#66B0FF" opacity=".836"/><g transform="translate(4.923 70.404)"><rect fill="#D8D8D8" x=".077" y="100.596" width="63" height="14" rx="7"/><path fill="#0054AB" d="M74.757 98.11H99.3V1.651H74.757z"/><path fill="#004185" d="M87.029 98.11H99.3V1.651H87.03z"/><path d="M79.197 11.24h15.2V8.358h-15.2zm0 4.272h15.2V12.63h-15.2zm0 4.272h15.2v-2.882h-15.2zm0 4.272h15.2v-2.883h-15.2zm0 8.545h15.2V29.72h-15.2zm0-4.272h15.2v-2.883h-15.2zm0 8.545h15.2V33.99h-15.2zm0 4.271h15.2v-2.882h-15.2zm0 4.598h15.2v-2.882h-15.2zm0 4.273h15.2v-2.882h-15.2zm0 4.271h15.2v-2.882h-15.2zm0 4.273h15.2v-2.883h-15.2zm0 8.544h15.2v-2.882h-15.2zm0-4.272h15.2V59.95h-15.2zm0 8.544h15.2v-2.883h-15.2z" opacity=".85" fill="#66B0FF"/><path fill="#004185" d="M73.066 2.276h27.963V0H73.066z"/></g><path fill="#D5E9FD" d="M129.093 164.182h26.455V57.422h-26.455z"/><path fill="#BAD9F9" d="M142.32 164.182h13.228V57.422h-13.227z"/><path d="M134.398 69.902h3.252V63.62h-3.252zm0 9.314h3.252v-6.284h-3.252zm0 9.311h3.252v-6.283h-3.252zm0 9.313h3.252v-6.284h-3.252zm6.7-27.938h3.252V63.62h-3.252zm0 9.314h3.252v-6.284h-3.252zm0 9.311h3.252v-6.283h-3.252zm0 9.313h3.252v-6.284h-3.252zm6.7-27.938h3.253V63.62h-3.253zm0 9.314h3.253v-6.284h-3.253zm0 9.311h3.253v-6.283h-3.253zm0 9.313h3.253v-6.284h-3.253zm-13.4 8.972h3.252v-6.284h-3.252zm0 9.312h3.252v-6.283h-3.252zm0 9.312h3.252v-6.283h-3.252zm0 9.312h3.252v-6.283h-3.252zm6.7-27.936h3.252v-6.283h-3.252zm0 9.312h3.252v-6.283h-3.252zm0 9.312h3.252v-6.283h-3.252zm0 9.314h3.252v-6.284h-3.252zm6.7-27.938h3.253v-6.283h-3.253zm0 9.312h3.253v-6.283h-3.253zm0 9.312h3.253v-6.283h-3.253zm0 9.314h3.253v-6.284h-3.253z" opacity=".85" fill="#66B0FF"/><path fill="#D5E9FD" d="M53.646 161.64h25.889v-57.068H53.646z"/><path fill="#B9D9F8" d="M67.49 161.64h12.045v-57.068H67.49z"/><path d="M71.961 118.852h5.304v-1.336H71.96zm0 4.076h5.304v-1.336H71.96zm0 4.075h5.304v-1.336H71.96zm0 4.077h5.304v-1.337H71.96zm-.131 3.894h5.302v-1.336H71.83zm0 3.896h5.302v-1.337H71.83zm.131-24.094h5.304v-1.336H71.96zm0-4.076h5.304v-1.336H71.96zm-7.553 0h5.303v-1.336h-5.303zm0 4.076h5.303v-1.336h-5.303zm-7.554 0h5.304v-1.336h-5.304zm0-4.076h5.304v-1.336h-5.304zm7.476 8.152h5.304v-1.336H64.33zm0 4.076h5.304v-1.336H64.33zm0 4.075h5.304v-1.336H64.33zm0 4.077h5.304v-1.337H64.33zm-.126 3.894h5.303v-1.336h-5.303zm0 3.896h5.303v-1.337h-5.303zm-7.505-20.018h5.303v-1.336H56.7zm0 4.076h5.303v-1.336H56.7zm0 4.075h5.303v-1.336H56.7zm0 4.077h5.303v-1.337H56.7zm-.119 3.894h5.302v-1.336H56.58zm0 3.896h5.302v-1.337H56.58z" opacity=".85" fill="#66B0FF"/><path fill="#0054AB" d="M104.277 200.573h24.852V81.096h-24.852z"/><path fill="#004185" d="M116.837 200.573h12.292V81.096h-12.292z"/><path d="M109.379 93.145h2.893v-6.927h-2.893zm0 10.265h2.893v-6.927h-2.893zm0 10.266h2.893v-6.927h-2.893zm0 10.266h2.893v-6.927h-2.893zm5.959-30.797h2.893v-6.927h-2.893zm0 10.265h2.893v-6.927h-2.893zm0 10.266h2.893v-6.927h-2.893zm0 10.267h2.893v-6.927h-2.893zm5.96-30.798h2.893v-6.927h-2.893zm0 10.265h2.893v-6.927h-2.893zm0 10.266h2.893v-6.927h-2.893zm0 10.267h2.893v-6.927h-2.893z" fill="#66B0FF"/><path d="M44.08 185a111.258 111.258 0 0 1-17.418-28.55H232.05c-16.649 40.16-56.43 68.272-102.694 68.272-27.109 0-51.93-9.652-71.223-25.723A7.002 7.002 0 0 0 65 192c0-3.858-3.133-7-6.997-7H44.08z" fill="#D8D8D8"/><g transform="translate(68.405 110.184)"><path d="M45.236 28.552a11.19 11.19 0 0 0 .62-3.681c0-5.866-4.509-10.683-10.266-11.21 0-6.248-5.09-11.312-11.369-11.312-6.123 0-11.116 4.816-11.36 10.848-5.159 1.048-9.04 5.588-9.04 11.03 0 2.262.67 4.369 1.824 6.133a11.304 11.304 0 0 0-5.058 9.432c0 6.246 5.056 11.31 11.292 11.31 2.746 0 5.263-.982 7.22-2.614a11.306 11.306 0 0 0 7.032 2.437 11.31 11.31 0 0 0 7.646-2.957 11.308 11.308 0 0 0 5.935 1.67c6.25 0 11.317-5.04 11.317-11.258 0-4.222-2.336-7.9-5.793-9.828z" fill="#A00"/><path d="M35.192 11.454c0 6.326-5.12 11.454-11.437 11.454-6.316 0-11.438-5.128-11.438-11.454C12.317 5.128 17.44 0 23.755 0c6.317 0 11.437 5.128 11.437 11.454M22.288 37.298c0 6.326-4.989 11.454-11.144 11.454C4.99 48.752 0 43.624 0 37.298c0-6.326 4.99-11.454 11.144-11.454 6.155 0 11.144 5.128 11.144 11.454" fill="#E42828"/><path d="M14.663 32.893c-6.154 0-11.144-4.996-11.144-11.16s4.99-11.16 11.144-11.16c6.156 0 11.145 4.996 11.145 11.16s-4.99 11.16-11.145 11.16z" fill="#E42828"/><path d="M45.164 22.32c0 6.164-4.99 11.16-11.145 11.16-6.154 0-11.144-4.996-11.144-11.16s4.99-11.16 11.144-11.16c6.155 0 11.145 4.996 11.145 11.16" fill="#E42828"/><path d="M36.365 37.005c0 6.163-4.989 11.16-11.144 11.16-6.154 0-11.144-4.997-11.144-11.16 0-6.164 4.99-11.16 11.144-11.16 6.155 0 11.144 4.996 11.144 11.16" fill="#E42828"/><path d="M49.856 35.83c0 6.164-4.99 11.16-11.144 11.16s-11.145-4.996-11.145-11.16 4.99-11.16 11.145-11.16c6.155 0 11.144 4.996 11.144 11.16" fill="#E42828"/><ellipse fill="#BDBDBD" cx="25.493" cy="78.372" rx="14.136" ry="1.53"/><ellipse fill="#BDBDBD" cx="107.843" cy="53.546" rx="11.247" ry="1.459"/><path fill="#650000" d="M35.74 29.52l-9.345 8.573-1.913-19.435h-.893l-.38 11.108-6.267-2.154-.261.618 6.528 3.57-1.507 46.722h6.632l-.989-28.873-.213-4.615 8.918-15.159z"/></g><path d="M167.172 115.67a8.339 8.339 0 0 0-1.878-.213c-4.596 0-8.321 3.731-8.321 8.333a8.323 8.323 0 0 0 3.063 6.46 8.31 8.31 0 0 0-2.139 5.578c0 4.602 3.726 8.334 8.322 8.334a8.28 8.28 0 0 0 3.65-.843 9.21 9.21 0 0 0 6.52 2.695 9.203 9.203 0 0 0 5.968-2.186 8.266 8.266 0 0 0 5.574 2.152c4.587 0 8.305-3.724 8.305-8.317a8.319 8.319 0 0 0-4.751-7.519 8.32 8.32 0 0 0 2.937-6.354c0-4.602-3.726-8.333-8.323-8.333-.86 0-1.688.13-2.468.372.028-.28.043-.564.043-.852 0-4.593-3.7-8.317-8.266-8.317-4.564 0-8.264 3.724-8.264 8.317 0 .233.01.464.028.693z" fill="#A00"/><path d="M185.637 134.405c0 5.113-4.139 9.26-9.247 9.26-5.107 0-9.246-4.147-9.246-9.26 0-5.114 4.14-9.26 9.246-9.26 5.108 0 9.247 4.146 9.247 9.26" fill="#E42828"/><path d="M184.25 124.219c0 5.113-4.139 9.26-9.247 9.26-5.107 0-9.246-4.147-9.246-9.26 0-5.113 4.14-9.26 9.246-9.26 5.108 0 9.247 4.147 9.247 9.26" fill="#E42828"/><path d="M194.422 121.44c0 4.603-3.726 8.335-8.323 8.335-4.596 0-8.321-3.732-8.321-8.334 0-4.602 3.725-8.334 8.32-8.334 4.598 0 8.324 3.732 8.324 8.334m-20.805-.001c0 4.603-3.726 8.335-8.323 8.335-4.596 0-8.321-3.732-8.321-8.334 0-4.602 3.725-8.334 8.321-8.334 4.597 0 8.323 3.732 8.323 8.334" fill="#E42828"/><path d="M174.541 133.479c0 4.602-3.725 8.333-8.322 8.333-4.596 0-8.322-3.731-8.322-8.333s3.726-8.334 8.322-8.334c4.597 0 8.322 3.732 8.322 8.334m21.695 1.835c0 4.592-3.718 8.317-8.305 8.317s-8.304-3.725-8.304-8.317c0-4.593 3.717-8.317 8.304-8.317s8.305 3.724 8.305 8.317m-12.562-22.687c0 4.593-3.7 8.317-8.266 8.317-4.564 0-8.264-3.724-8.264-8.317 0-4.592 3.7-8.317 8.264-8.317 4.566 0 8.266 3.725 8.266 8.317" fill="#E42828"/><path fill="#650000" d="M184.806 128.899l-7.366 6.757-1.508-15.319h-.704l-.3 8.756-4.939-1.698-.206.487 5.146 2.814-1.188 33.124h5.227l-.779-19.054-.168-3.638 7.03-11.95z"/><circle fill="#D8D8D8" cx="19" cy="206" r="5"/><rect fill="#D8D8D8" x="31" y="199" width="77" height="14" rx="7"/><rect fill="#3092F9" x="17" y="35" width="53" height="14" rx="7"/><rect fill="#3092F9" x="5" y="63" width="53" height="14" rx="7"/><ellipse fill="#3092F9" cx="5" cy="42" rx="5" ry="5"/></g></svg>