<?xml version="1.0" encoding="UTF-8"?>
<svg width="242px" height="228px" viewBox="0 0 242 228" version="1.1" xmlns="http://www.w3.org/2000/svg" xmlns:xlink="http://www.w3.org/1999/xlink">
    <!-- Generator: Sketch 41.2 (35397) - http://www.bohemiancoding.com/sketch -->
    <title>car_ill</title>
    <desc>Created with Sketch.</desc>
    <defs>
        <polygon id="path-1" points="-8.52651233e-14 0.125510767 -8.52651233e-14 33.1739349 87.9348157 33.1739349 87.9348157 0.125510767 -8.52651283e-14 0.125510767"></polygon>
        <polygon id="path-3" points="0.040065255 14.1777205 14.0643739 14.1777205 14.0643739 0.179470386 0.040065255 0.179470386"></polygon>
        <polygon id="path-5" points="0.190726287 14.1777205 14.2155247 14.1777205 14.2155247 0.179470386 0.190726287 0.179470386 0.190726287 14.1777205"></polygon>
        <polygon id="path-7" points="3.04941423e-05 0.0535888245 3.04941423e-05 36.036575 113.897657 36.036575 113.897657 0.0535888245"></polygon>
    </defs>
    <g id="Page-1" stroke="none" stroke-width="1" fill="none" fill-rule="evenodd">
        <g id="large-devices--≥-1200px-" transform="translate(-593.000000, -1247.000000)">
            <g id="ill" transform="translate(181.000000, 1247.000000)">
                <g id="car" transform="translate(412.000000, 0.000000)">
                    <path d="M38.2619109,182 C58.7292582,208.748091 90.981732,226 127.263605,226 C189.119497,226 239.263605,175.855892 239.263605,114 C239.263605,52.144108 189.119497,2 127.263605,2 C97.2368808,2 69.9699515,13.8160868 49.8590157,33.0520619 C53.3196142,33.4756175 56,36.4314185 56,40 C56,43.8659932 52.8673768,47 49.0022704,47 L37.505524,47 C23.5359803,65.684412 15.263605,88.8761476 15.263605,114 C15.263605,133.579793 20.2878862,151.986102 29.1175218,168 L41.0020305,168 C44.8669023,168 48,171.141873 48,175 C48,178.865993 44.8758202,182 41.0020305,182 L38.2619109,182 Z" id="Combined-Shape" fill="#D8D8D8"></path>
                    <rect id="Rectangle-5-Copy-29" fill="#D8D8D8" x="25" y="19" width="95" height="14" rx="7"></rect>
                    <rect id="Rectangle-5-Copy-42" fill="#D8D8D8" x="7" y="47" width="79" height="14" rx="7"></rect>
                    <rect id="Rectangle-5-Copy-15" fill="#D8D8D8" x="16" y="182" width="82" height="14" rx="7"></rect>
                    <rect id="Rectangle-5-Copy-22" fill="#D8D8D8" x="2" y="154" width="89" height="14" rx="7"></rect>
                    <g id="cars" transform="translate(30.122924, 24.139346)">
                        <ellipse id="Oval-4" opacity="0.8" cx="150.206892" cy="94.4386206" rx="46.1223902" ry="3.76969662"></ellipse>
                        <ellipse id="Oval-4" fill="#858585" opacity="0.32" cx="100.641707" cy="34.9837953" rx="46" ry="3.76969662"></ellipse>
                        <ellipse id="Oval-4" fill="#858585" opacity="0.32" cx="147.317099" cy="92.7858102" rx="42.34874" ry="3.76969662"></ellipse>
                        <ellipse id="Oval-4-Copy-2" fill="#858585" opacity="0.32" cx="43.2075872" cy="93.195056" rx="42.34874" ry="3.76969662"></ellipse>
                        <g id="car5" transform="translate(148.749565, 77.628464) scale(-1, 1) translate(-148.749565, -77.628464) translate(99.749565, 59.628464)">
                            <path d="M58.8760487,1.56116289 L52.941396,1.56116289 C49.797806,1.56116289 45.638778,1.6398027 39.8989431,4.08266752 C34.1593732,6.52579713 23.7659118,11.5844284 22.59621,11.9206997 C21.4265083,12.2567061 17.0962527,12.6819436 11.9938827,13.8403582 C6.89151274,14.9987729 4.37346001,15.8593095 3.61141773,16.2233827 C2.84937546,16.5874559 0.96083591,20.5260657 0.59638091,20.8570413 C0.231925909,21.1880169 -1.27897692e-13,21.7175779 -1.27897692e-13,22.6774072 L-1.27897692e-13,28.5356756 C-1.27897692e-13,29.1976268 1.65661364,30.7201147 2.74997864,30.7201147 L74.5645775,30.7201147 C78.4903542,30.7201147 86.311691,29.2365496 88.397964,29.2365496 L95.5203424,29.2365496 C96.3817815,29.2365496 97.8396015,27.0131878 97.8396015,26.3843341 L97.8396015,20.1950901 C97.8396015,19.7317242 95.5084148,17.9809956 95.5084148,16.5247029 C95.5084148,15.822505 96.0173265,14.7239307 96.0173265,13.9618925 L96.0173265,12.1854802 C96.0173265,11.6890167 88.0767135,4.47401309 88.0767135,4.47401309 C88.0767135,4.47401309 77.496386,1.56116289 75.0445978,1.56116289 L58.8760487,1.56116289 Z" id="Fill-5" fill="#002B58"></path>
                            <path d="M58.8760487,0.476595744 L52.941396,0.476595744 C49.797806,0.476595744 45.638778,0.55523555 39.8989431,2.99810038 C34.1593732,5.44122998 23.7659118,10.4998613 22.59621,10.8361325 C21.4265083,11.172139 17.0962527,11.5973764 11.9938827,12.7557911 C6.89151274,13.9142058 5.72612714,14.2803038 3.61311794,15.2645018 C1.50010873,16.2486997 -8.69895224e-16,21.1443293 -3.41060513e-13,21.59284 L-3.41060513e-13,27.4511085 C-3.41060513e-13,28.1130597 1.65661364,29.6355475 2.74997864,29.6355475 L74.5645775,29.6355475 C78.4903542,29.6355475 86.311691,28.1519824 88.397964,28.1519824 L95.5203424,28.1519824 C96.3817815,28.1519824 97.8396015,25.9286206 97.8396015,25.2997669 L97.8396015,19.1105229 C97.8396015,18.6471571 96.0173265,11.100913 96.0173265,11.100913 C96.0173265,10.6044496 88.0767135,3.38944595 88.0767135,3.38944595 C88.0767135,3.38944595 89.0595492,2.69413237 88.6288297,2.52864456 C88.1981101,2.36315676 77.496386,0.476595744 75.0445978,0.476595744 L58.8760487,0.476595744 Z" id="Fill-5" fill="#0054AB"></path>
                            <path d="M9.57522683,29.6355475 L27.9967705,29.6355475 L27.9967705,28.1215327 C27.9967705,23.0480736 23.8647785,18.9204105 18.7859987,18.9204105 C13.7072188,18.9204105 9.57522683,23.0480736 9.57522683,28.1215327 L9.57522683,29.6355475 Z" id="Fill-14" fill="#002B58"></path>
                            <path d="M74.5646835,29.6355475 C78.4904602,29.6355475 86.311532,28.1519824 88.39807,28.1519824 L90.1039845,28.1519824 L90.1039845,28.1215327 C90.1039845,23.0480736 85.9719925,18.9204105 80.8932126,18.9204105 C75.8144328,18.9204105 71.6824408,23.0480736 71.6824408,28.1215327 L71.6824408,29.6355475 L74.5646835,29.6355475 Z" id="Fill-16" fill="#002B58"></path>
                            <path d="M26.6714796,28.1215856 C26.6714796,32.4724587 23.1414347,35.9988053 18.7859987,35.9988053 C14.4302976,35.9988053 10.9005177,32.4724587 10.9005177,28.1215856 C10.9005177,23.7704478 14.4302976,20.244366 18.7859987,20.244366 C23.1414347,20.244366 26.6714796,23.7704478 26.6714796,28.1215856" id="Fill-18" fill="#363636"></path>
                            <path d="M24.9154691,28.1215856 C24.9154691,31.5033621 22.1715868,34.2446345 18.7859987,34.2446345 C15.4004105,34.2446345 12.6565282,31.5033621 12.6565282,28.1215856 C12.6565282,24.7395444 15.4004105,21.9985367 18.7859987,21.9985367 C22.1715868,21.9985367 24.9154691,24.7395444 24.9154691,28.1215856" id="Fill-20" fill="#2E2E2E"></path>
                            <path d="M24.3079558,28.1215856 C24.3079558,31.16815 21.8357581,33.6377576 18.7859987,33.6377576 C15.7357091,33.6377576 13.2640416,31.16815 13.2640416,28.1215856 C13.2640416,25.0744917 15.7357091,22.6054136 18.7859987,22.6054136 C21.8357581,22.6054136 24.3079558,25.0744917 24.3079558,28.1215856" id="Fill-22" fill="#C2C2C2"></path>
                            <path d="M23.6233105,28.1215856 C23.6233105,30.790573 21.4577851,32.9538296 18.7859987,32.9538296 C16.1142122,32.9538296 13.9486868,30.790573 13.9486868,28.1215856 C13.9486868,25.4523335 16.1142122,23.2893416 18.7859987,23.2893416 C21.4577851,23.2893416 23.6233105,25.4523335 23.6233105,28.1215856" id="Fill-24" fill="#8C8C8C"></path>
                            <path d="M18.7859987,31.8168993 C16.7426607,31.8168993 15.0868095,30.1625573 15.0868095,28.1215856 C15.0868095,26.0803883 16.7426607,24.4262719 18.7859987,24.4262719 C20.8291108,24.4262719 22.4851879,26.0803883 22.4851879,28.1215856 C22.4851879,30.1625573 20.8291108,31.8168993 18.7859987,31.8168993 Z" id="Fill-26" fill="#3E3E3E"></path>
                            <path d="M88.7786936,28.1215856 C88.7786936,32.4724587 85.2486487,35.9988053 80.8932126,35.9988053 C76.5375115,35.9988053 73.0077317,32.4724587 73.0077317,28.1215856 C73.0077317,23.7704478 76.5375115,20.244366 80.8932126,20.244366 C85.2486487,20.244366 88.7786936,23.7704478 88.7786936,28.1215856" id="Fill-40" fill="#363636"></path>
                            <path d="M87.0226831,28.1215856 C87.0226831,31.5033621 84.2785357,34.2446345 80.8932126,34.2446345 C77.5076245,34.2446345 74.7637422,31.5033621 74.7637422,28.1215856 C74.7637422,24.7395444 77.5076245,21.9985367 80.8932126,21.9985367 C84.2785357,21.9985367 87.0226831,24.7395444 87.0226831,28.1215856" id="Fill-42" fill="#2E2E2E"></path>
                            <path d="M86.4151697,28.1215856 C86.4151697,31.16815 83.9429721,33.6377576 80.8932126,33.6377576 C77.8429231,33.6377576 75.3712555,31.16815 75.3712555,28.1215856 C75.3712555,25.0744917 77.8429231,22.6054136 80.8932126,22.6054136 C83.9429721,22.6054136 86.4151697,25.0744917 86.4151697,28.1215856" id="Fill-44" fill="#C2C2C2"></path>
                            <path d="M85.7305245,28.1215856 C85.7305245,30.790573 83.5649991,32.9538296 80.8932126,32.9538296 C78.2214262,32.9538296 76.0559008,30.790573 76.0559008,28.1215856 C76.0559008,25.4523335 78.2214262,23.2893416 80.8932126,23.2893416 C83.5649991,23.2893416 85.7305245,25.4523335 85.7305245,28.1215856" id="Fill-46" fill="#8C8C8C"></path>
                            <path d="M84.5924018,28.1215856 C84.5924018,30.1625573 82.9363248,31.8168993 80.8932126,31.8168993 C78.8498746,31.8168993 77.1940234,30.1625573 77.1940234,28.1215856 C77.1940234,26.0803883 78.8498746,24.4262719 80.8932126,24.4262719 C82.9363248,24.4262719 84.5924018,26.0803883 84.5924018,28.1215856" id="Fill-48" fill="#3E3E3E"></path>
                            <path d="M87.9664493,4.82347062 C88.58483,5.55161697 93.4666716,10.1190805 93.7094649,10.2294939 C93.9522582,10.3399074 94.3278456,10.7370781 95.5206075,10.7370781 L95.7708224,10.7370781 C94.438905,9.17063675 88.0767135,3.38941947 88.0767135,3.38941947 C87.6571264,3.65419996 87.3480685,4.09532426 87.9664493,4.82347062 Z" id="Fill-62" fill="#D5E9FD"></path>
                            <path d="M21.2346857,11.1032431 C21.8782469,11.3261883 22.4102187,11.6155933 23.0052743,11.707737 C23.9992425,11.862104 25.677856,11.5533699 26.1637076,11.2885894 C26.6495593,11.0238089 42.0891984,3.5657368 42.8843729,3.16856606 C43.6795475,2.77139532 43.5692833,2.13168565 42.8843729,2.13168565 L42.1477762,2.13168565 C41.4257577,2.38190321 40.6780286,2.66680702 39.8990226,2.9983122 C34.1594527,5.44117703 23.7659913,10.5000731 22.5962895,10.8360796 C22.3147978,10.9171024 21.8485604,11.0031561 21.2346857,11.1032431" id="Fill-64" fill="#D5E9FD"></path>
                            <path d="M82.2216047,9.41293738 C82.9301052,8.22142516 84.2553962,5.11025437 83.9240734,4.84547388 C83.5927507,4.58069338 74.6801693,2.76032749 70.6711643,2.76032749 L51.0237266,2.76032749 C49.499642,2.76032749 45.3138432,4.24971777 40.8521188,6.36796171 C37.7400707,7.84543686 34.0600029,9.97559592 33.5298865,10.3396691 C32.9997702,10.7037423 32.4696538,12.0276447 33.7618125,12.0276447 L78.3909839,12.0276447 C79.7162748,12.0276447 81.5131042,10.6044496 82.2216047,9.41293738" id="Fill-66" fill="#D5E9FD"></path>
                            <path d="M75.0466963,12.1103321 L78.3836783,12.1103321 C78.7237479,12.1103321 79.1466801,12.011584 79.5225326,11.8519214 L76.8442483,3.26353826 C75.8598222,3.10837689 74.8851774,2.97749532 73.9428955,2.86708185 L75.0466963,12.1103321 Z" id="Fill-68" fill="#0054AB"></path>
                            <polygon id="Fill-70" fill="#0054AB" points="51.466046 12.0756594 55.9213411 12.1303356 56.9760927 2.68111386 54.3280819 2.68111386"></polygon>
                            <path d="M5.03610546,15.6683765 C4.30719546,15.9662546 2.65058182,17.5610275 2.45178818,18.4186515 C2.25299455,19.2760107 2.71684637,19.4745961 3.71081455,19.1105229 C4.70478273,18.7464497 8.84631683,17.290157 9.17763956,17.1577668 C9.50896228,17.0253765 12.2258087,14.6092545 12.3252055,14.4437667 C12.4246023,14.2782789 12.209375,13.8811082 11.3975018,14.0134984 C10.3264017,14.1882536 5.76501546,15.3704985 5.03610546,15.6683765 Z" id="Fill-72" fill="#E1E1E1" opacity="0.9"></path>
                        </g>
                        <g id="car6" transform="translate(0.015788, 57.608758)">
                            <g id="car3" transform="translate(44.728532, 19.500000) scale(-1, 1) translate(-44.728532, -19.500000) translate(0.728532, 0.000000)">
                                <g id="Group-78">
                                    <path d="M37.6544581,3.36877932 C32.4239342,5.97870212 21.9751312,12.3748096 21.4512951,12.3748096 C20.9272141,12.3748096 19.2905632,12.4931203 18.1439524,12.6564085 C12.778,13.4202943 4.66968384,16.3743935 3.24046117,18.0842755 C1.8114834,19.7941574 2.03703414,21.8645935 1.5408715,22.6744347 C1.04470887,23.4845203 0.323240404,23.3943207 0.323240404,24.7443819 L0.323240404,26.4545083 C0.323240404,26.8370623 0.255893551,27.4672376 1.1350761,27.4672376 C2.01425866,27.4672376 4.09931722,29.2220971 4.09931722,30.4257367 C4.09931722,31.6298652 3.41213442,31.5623988 2.96127786,31.5623988 L0.322260813,31.5623988 C0.120465152,31.5623988 -0.104840683,31.922464 0.0531182996,32.529906 C0.210832384,33.137348 0.864219306,34.1500772 2.46487033,34.1500772 L71.2879662,34.1500772 C71.2879662,34.1500772 77.7353866,32.4844395 80.0347306,32.4844395 L85.1743975,32.4844395 C85.7153764,32.4844395 86.6391303,31.3147776 87.1352929,29.8070503 C87.6312107,28.2993231 88.0592918,24.9467811 87.9015777,24.4745163 C87.7441085,24.0017627 86.3237021,23.2591434 86.3237021,22.2916362 L86.3237021,13.741493 C86.3237021,13.3816722 79.4932619,4.96597287 79.4256701,4.92123972 C79.3578335,4.87601768 80.0795468,4.44824163 79.8089349,4.20086485 C79.5385679,3.95373252 67.264053,1.1018107 63.0711604,1.1018107 C58.8782678,1.1018107 51.7657054,1.11843285 51.7657054,1.11843285 C50.0977075,1.11843285 42.8842473,0.758856529 37.6544581,3.36877932 Z" id="Fill-2" fill="#A20101"></path>
                                    <g id="Group-4">
                                        <mask id="mask-2" fill="white">
                                            <use xlink:href="#path-1"></use>
                                        </mask>
                                        <g id="Clip-3"></g>
                                        <path d="M37.6544581,2.392637 C32.4239342,5.0025598 21.9751312,11.3986673 21.4512951,11.3986673 C20.9272141,11.3986673 19.2905632,11.5169779 18.1439524,11.6802662 C12.778,12.444152 4.66968384,15.3982512 3.24046117,17.1081331 C1.8114834,18.8180151 1.06801422,20.5674809 0.57185159,21.3773221 C0.0756889577,22.1874077 0.323240404,23.7682396 0.323240404,23.7682396 L0.0531182996,31.5537637 C0.0531182996,31.5537637 0.864219306,33.1739349 2.46487033,33.1739349 L71.2879662,33.1739349 C71.2879662,33.1739349 77.7353866,31.5082972 80.0347306,31.5082972 L85.1743975,31.5082972 C85.7153764,31.5082972 86.6391303,30.3386353 87.1352929,28.830908 C87.6312107,27.3231808 88.0592918,23.9706388 87.9015777,23.498374 C87.7441085,23.0256204 86.3237021,12.7653507 86.3237021,12.7653507 C86.3237021,12.4055299 79.4932619,3.98983056 79.4256701,3.9450974 C79.3578335,3.89987536 80.0795468,3.47209931 79.8089349,3.22472253 C79.5385679,2.9775902 67.264053,0.125668381 63.0711604,0.125668381 C58.8782678,0.125668381 51.7657054,0.142290537 51.7657054,0.142290537 C50.0977075,0.142290537 42.8842473,-0.217285789 37.6544581,2.392637 Z" id="Fill-2" fill="#E42828" mask="url(#mask-2)"></path>
                                    </g>
                                    <path d="M77.2436566,22.7143949 C72.727744,22.7143949 69.0535446,26.3820246 69.0535446,30.8895619 L69.0535446,33.173886 L71.2879907,33.173886 C71.2879907,33.173886 77.7354111,31.5084928 80.0347551,31.5084928 L85.174422,31.5084928 C85.2535239,31.5084928 85.3414422,31.4806262 85.4342584,31.4332042 L85.4342584,30.8895619 C85.4342584,26.3820246 81.760059,22.7143949 77.2436566,22.7143949" id="Fill-10" fill="#A20202"></path>
                                    <path d="M25.528645,30.8896353 C25.528645,26.3820979 21.8542007,22.7144683 17.3380432,22.7144683 C12.8216408,22.7144683 9.1471965,26.3820979 9.1471965,30.8896353 L9.1471965,33.1739594 L25.528645,33.1739594 L25.528645,30.8896353 Z" id="Fill-12" fill="#A20202"></path>
                                    <g id="Group-16" transform="translate(10.285701, 23.711015)">
                                        <mask id="mask-4" fill="white">
                                            <use xlink:href="#path-3"></use>
                                        </mask>
                                        <g id="Clip-15"></g>
                                        <path d="M14.0643739,7.1786199 C14.0643739,11.0442487 10.9252759,14.1777694 7.05221958,14.1777694 C3.17916329,14.1777694 0.040065255,11.0442487 0.040065255,7.1786199 C0.040065255,3.31274662 3.17916329,0.179470386 7.05221958,0.179470386 C10.9252759,0.179470386 14.0643739,3.31274662 14.0643739,7.1786199" id="Fill-14" fill="#363636" mask="url(#mask-4)"></path>
                                    </g>
                                    <path d="M22.7883873,30.8896353 C22.7883873,33.8945787 20.348472,36.3302133 17.3379452,36.3302133 C14.3274185,36.3302133 11.8875032,33.8945787 11.8875032,30.8896353 C11.8875032,27.8846918 14.3274185,25.4493017 17.3379452,25.4493017 C20.348472,25.4493017 22.7883873,27.8846918 22.7883873,30.8896353" id="Fill-17" fill="#2E2E2E"></path>
                                    <path d="M22.2483635,30.8896353 C22.2483635,33.5963577 20.0496724,35.790971 17.3379207,35.790971 C14.6254344,35.790971 12.427478,33.5963577 12.427478,30.8896353 C12.427478,28.182424 14.6254344,25.9885439 17.3379207,25.9885439 C20.0496724,25.9885439 22.2483635,28.182424 22.2483635,30.8896353" id="Fill-19" fill="#9A9999"></path>
                                    <path d="M21.6394499,30.8896353 C21.6394499,33.2609812 19.7138198,35.1830401 17.3380677,35.1830401 C14.9620707,35.1830401 13.0364405,33.2609812 13.0364405,30.8896353 C13.0364405,28.5180448 14.9620707,26.5962304 17.3380677,26.5962304 C19.7138198,26.5962304 21.6394499,28.5180448 21.6394499,30.8896353" id="Fill-21" fill="#6D6E72"></path>
                                    <path d="M21.1989281,30.8896353 C21.1989281,33.0182489 19.4704405,34.7440197 17.3378718,34.7440197 C15.2050582,34.7440197 13.4765706,33.0182489 13.4765706,30.8896353 C13.4765706,28.7607772 15.2050582,27.0354953 17.3378718,27.0354953 C19.4704405,27.0354953 21.1989281,28.7607772 21.1989281,30.8896353" id="Fill-23" fill="#474747"></path>
                                    <g id="Group-39" transform="translate(70.040727, 23.711015)">
                                        <mask id="mask-6" fill="white">
                                            <use xlink:href="#path-5"></use>
                                        </mask>
                                        <g id="Clip-38"></g>
                                        <path d="M14.2155247,7.1786199 C14.2155247,11.0442487 11.0759369,14.1777694 7.20288061,14.1777694 C3.33006922,14.1777694 0.190726287,11.0442487 0.190726287,7.1786199 C0.190726287,3.31274662 3.33006922,0.179470386 7.20288061,0.179470386 C11.0759369,0.179470386 14.2155247,3.31274662 14.2155247,7.1786199" id="Fill-37" fill="#363636" mask="url(#mask-6)"></path>
                                    </g>
                                    <path d="M82.694319,30.8896353 C82.694319,33.8945787 80.2544038,36.3302133 77.2436321,36.3302133 C74.2333502,36.3302133 71.793435,33.8945787 71.793435,30.8896353 C71.793435,27.8846918 74.2333502,25.4493017 77.2436321,25.4493017 C80.2544038,25.4493017 82.694319,27.8846918 82.694319,30.8896353" id="Fill-40" fill="#2E2E2E"></path>
                                    <path d="M82.1540503,30.8896353 C82.1540503,33.5963577 79.9560939,35.790971 77.2436076,35.790971 C74.5313662,35.790971 72.3336547,33.5963577 72.3336547,30.8896353 C72.3336547,28.182424 74.5313662,25.9885439 77.2436076,25.9885439 C79.9560939,25.9885439 82.1540503,28.182424 82.1540503,30.8896353" id="Fill-42" fill="#9A9999"></path>
                                    <path d="M77.2435341,35.1830401 C74.8677821,35.1830401 72.9423968,33.2609812 72.9423968,30.8896353 C72.9423968,28.5180448 74.8677821,26.5962304 77.2435341,26.5962304 C79.6200209,26.5962304 81.5454062,28.5180448 81.5454062,30.8896353 C81.5454062,33.2609812 79.6200209,35.1830401 77.2435341,35.1830401 Z" id="Fill-44" fill="#6D6E72"></path>
                                    <path d="M81.1051047,30.8896353 C81.1051047,33.0182489 79.3763722,34.7440197 77.2435586,34.7440197 C75.110745,34.7440197 73.3827472,33.0182489 73.3827472,30.8896353 C73.3827472,28.7607772 75.110745,27.0354953 77.2435586,27.0354953 C79.3763722,27.0354953 81.1051047,28.7607772 81.1051047,30.8896353" id="Fill-46" fill="#474747"></path>
                                    <path d="M23.7115289,12.1128578 C24.7934867,12.3829678 25.9770771,12.3152569 27.2958509,11.3365053 C28.6143798,10.3575093 33.416088,6.78007929 35.3774732,5.66615045 C37.3388585,4.55246606 39.2992642,3.35982643 39.7956717,3.13469401 C40.2918343,2.91005047 40.2239977,2.32485283 39.3898763,2.1896756 C39.1219583,2.14640911 38.6828568,2.13100917 38.2111839,2.1300314 C38.0231025,2.21436439 37.8374701,2.30114182 37.6545316,2.39256367 C32.4244974,5.00248647 21.9752046,11.3983495 21.4513686,11.398594 C22.345245,11.7021927 23.2528356,11.9982138 23.7115289,12.1128578 M74.297342,5.93626047 C74.5339131,5.43001807 74.5172601,4.36693348 72.268365,3.87755768 C70.8523668,3.56931448 63.1998051,2.72989564 53.9750005,2.72989564 C51.6418607,2.72989564 47.5503557,2.29111964 42.2755053,4.34982244 C37.0006548,6.40876968 32.368171,10.3575093 32.1987018,11.1678393 C32.0299673,11.9776805 31.9618858,12.9904098 33.7542916,12.9904098 L68.2106559,12.9904098 C69.2590627,12.9904098 70.5102448,12.7540329 71.3894273,11.2350613 C72.268365,9.7163341 74.0605259,6.44250287 74.297342,5.93626047 M86.1136534,12.4054566 L84.9263896,12.4054566 C83.257902,12.4054566 83.0551267,12.1353466 82.6493313,11.6853261 C82.2435359,11.2350613 79.7414167,6.73510169 79.1553766,5.60992846 C78.5695814,4.48499967 78.8174178,4.19264529 79.5837026,4.19264529 L79.6346413,4.19264529 C80.6514563,5.4234181 85.0975731,10.9243737 86.1136534,12.4054566" id="Fill-60" fill="#D5E9FD"></path>
                                    <path d="M49.972478,13.7786586 L54.5392861,13.7786586 L57.4341312,1.72889886 C56.5544588,1.71007672 55.6624509,1.7330544 54.7440848,1.72889886 L49.972478,13.7786586 Z" id="Fill-62" fill="#E42828"></path>
                                    <path d="M5.68830258,17.4597261 C4.38302529,18.1296654 3.32421517,19.9477394 3.25038202,20.6733775 C3.17654888,21.3988217 3.5212819,21.5864901 4.1861369,21.2649114 C4.85081356,20.9433328 8.61844411,19.1120619 9.13563281,18.808338 C9.65264318,18.5048081 12.5182253,16.0882136 11.6964303,16.2003877 C11.6964303,16.2003877 6.99322318,16.7897868 5.68830258,17.4597261 Z" id="Fill-64" fill="#E1E1E1" opacity="0.9"></path>
                                </g>
                            </g>
                        </g>
                        <ellipse id="Oval-4" fill="#858585" opacity="0.32" cx="99.0258642" cy="159.06608" rx="54.5082793" ry="3.76969662"></ellipse>
                        <g id="car4" transform="translate(98.877076, 18.860654) scale(-1, 1) translate(-98.877076, -18.860654) translate(48.877076, 0.860654)">
                            <g id="Group-85">
                                <path d="M40.8686539,3.96375078 C35.7979993,6.85776799 29.1545241,11.8237596 27.1216864,12.3793951 C25.0886053,12.9350305 15.6363481,13.0588082 10.6469874,14.7125678 C5.65762682,16.3663273 1.19546045,17.8581092 0.424627472,21.6391587 L0.424627472,31.1543045 L2.79748843,32.3138083 L74.2016428,32.3138083 C77.3942592,32.3138083 86.8701257,29.7816983 88.0669005,29.7816983 L95.2470624,29.7816983 C96.2814925,29.7816983 98.2695454,28.9546945 99.040135,26.536192 C99.8107246,24.1176896 99.7092287,22.2987277 99.5673293,21.8852258 C99.4254298,21.4717239 98.4720503,21.3479462 98.4720503,20.1902897 C98.4720503,19.7561995 98.3693375,18.5866366 98.2337663,17.2451739 C98.1863042,16.778589 97.9363372,16.3578936 97.8840072,15.8734489 C97.7885963,14.9931141 97.8891186,14.0562234 97.8041736,13.3373701 C97.7121702,12.5565039 97.6364742,11.9547308 97.5999649,11.7151131 C97.457822,10.7849198 97.5593179,9.13140832 95.0645159,9.13140832 C92.5697139,9.13140832 89.4053313,9.21376143 88.1479511,8.86252046 C86.8905709,8.51127949 76.6136904,3.40241016 74.1393336,2.41020404 C71.6649768,1.41799792 66.9930036,1.35176816 64.8226476,1.35176816 C62.6522915,1.35176816 52.5922762,1.35970581 52.5922762,1.35970581 C50.564063,1.35970581 45.9393086,1.06973357 40.8686539,3.96375078 Z" id="Fill-6" fill="#A20202"></path>
                                <path d="M40.8686539,3.13734555 C35.7979993,6.03136276 29.1545241,10.9973544 27.1216864,11.5529898 C25.0886053,12.1086253 15.6363481,12.232403 10.6469874,13.8861625 C5.65762682,15.5399221 1.19546045,17.031704 0.424627472,20.8127535 L0.424627472,30.5409019 L2.79748843,31.4874031 L74.2016428,31.4874031 C77.3942592,31.4874031 86.8701257,28.955293 88.0669005,28.955293 L95.2470624,28.955293 C96.2814925,28.955293 98.2695454,28.1282892 99.040135,25.7097868 C99.8107246,23.2912844 99.6744637,21.6187287 99.5673293,21.0588206 C99.4601948,20.4989125 97.6364742,11.1283256 97.5999649,10.8887078 C97.457822,9.9585146 97.5593179,8.30500309 95.0645159,8.30500309 C92.5697139,8.30500309 89.4053313,8.3873562 88.1479511,8.03611523 C86.8905709,7.68487427 76.6136904,2.57600494 74.1393336,1.58379881 C71.6649768,0.591592687 66.9930036,0.525362929 64.8226476,0.525362929 C62.6522915,0.525362929 52.5922762,0.533300578 52.5922762,0.533300578 C50.564063,0.533300578 45.9393086,0.243328338 40.8686539,3.13734555 Z" id="Fill-6" fill="#E42828"></path>
                                <path d="M89.0390701,27.7562368 C89.0390701,23.0033214 85.2447804,19.1364461 80.5810827,19.1364461 C75.9173851,19.1364461 72.1230954,23.0033214 72.1230954,27.7562368 L72.1230954,31.4874279 L74.2016915,31.4874279 C77.3943078,31.4874279 86.8701744,28.9553179 88.0669492,28.9553179 L89.0390701,28.9553179 L89.0390701,27.7562368 Z" id="Fill-15" fill="#A20202"></path>
                                <path d="M26.3459855,27.7562368 C26.3459855,23.0033214 22.5516959,19.1364461 17.8879982,19.1364461 C13.2243005,19.1364461 9.43001085,23.0033214 9.43001085,27.7562368 L9.43001085,31.4874279 L26.3459855,31.4874279 L26.3459855,27.7562368 Z" id="Fill-17" fill="#A20202"></path>
                                <path d="M25.1290089,27.7562368 C25.1290089,31.8322195 21.88747,35.1357698 17.8879982,35.1357698 C13.8882829,35.1357698 10.6469874,31.8322195 10.6469874,27.7562368 C10.6469874,23.6800059 13.8882829,20.3767037 17.8879982,20.3767037 C21.88747,20.3767037 25.1290089,23.6800059 25.1290089,27.7562368" id="Fill-19" fill="#363636"></path>
                                <path d="M23.5165149,27.7562368 C23.5165149,30.9243509 20.9966432,33.4924284 17.8879982,33.4924284 C14.7791098,33.4924284 12.2594814,30.9243509 12.2594814,27.7562368 C12.2594814,24.5878745 14.7791098,22.0200451 17.8879982,22.0200451 C20.9966432,22.0200451 23.5165149,24.5878745 23.5165149,27.7562368" id="Fill-21" fill="#2E2E2E"></path>
                                <path d="M22.9586772,27.7562368 C22.9586772,30.6103177 20.688529,32.9238943 17.8880225,32.9238943 C15.0870292,32.9238943 12.8173678,30.6103177 12.8173678,27.7562368 C12.8173678,24.9016597 15.0870292,22.5885792 17.8880225,22.5885792 C20.688529,22.5885792 22.9586772,24.9016597 22.9586772,27.7562368" id="Fill-23" fill="#747474"></path>
                                <path d="M22.3299627,27.7562368 C22.3299627,30.2565962 20.341423,32.2831772 17.8879982,32.2831772 C15.4345734,32.2831772 13.4460336,30.2565962 13.4460336,27.7562368 C13.4460336,25.2556293 15.4345734,23.2292963 17.8879982,23.2292963 C20.341423,23.2292963 22.3299627,25.2556293 22.3299627,27.7562368" id="Fill-25" fill="#AAA8A8"></path>
                                <path d="M21.8752759,27.7562368 C21.8752759,30.000607 20.0902147,31.8198169 17.8879738,31.8198169 C15.6854896,31.8198169 13.9006717,30.000607 13.9006717,27.7562368 C13.9006717,25.5116184 15.6854896,23.6926566 17.8879738,23.6926566 C20.0902147,23.6926566 21.8752759,25.5116184 21.8752759,27.7562368" id="Fill-27" fill="#292929"></path>
                                <path d="M17.8879738,30.0830891 C16.6270526,30.0830891 15.6047992,29.0412797 15.6047992,27.7562368 C15.6047992,26.4711938 16.6270526,25.4293844 17.8879738,25.4293844 C19.1488951,25.4293844 20.1711485,26.4711938 20.1711485,27.7562368 C20.1711485,29.0412797 19.1488951,30.0830891 17.8879738,30.0830891 Z" id="Fill-29" fill="#747474"></path>
                                <path d="M87.8220935,27.7562368 C87.8220935,31.8322195 84.5805546,35.1357698 80.5810827,35.1357698 C76.5813675,35.1357698 73.340072,31.8322195 73.340072,27.7562368 C73.340072,23.6800059 76.5813675,20.3767037 80.5810827,20.3767037 C84.5805546,20.3767037 87.8220935,23.6800059 87.8220935,27.7562368" id="Fill-41" fill="#363636"></path>
                                <path d="M86.2095995,27.7562368 C86.2095995,30.9243509 83.6897278,33.4924284 80.5810827,33.4924284 C77.4721943,33.4924284 74.952566,30.9243509 74.952566,27.7562368 C74.952566,24.5878745 77.4721943,22.0200451 80.5810827,22.0200451 C83.6897278,22.0200451 86.2095995,24.5878745 86.2095995,27.7562368" id="Fill-43" fill="#2E2E2E"></path>
                                <path d="M85.6517131,27.7562368 C85.6517131,30.6103177 83.3815649,32.9238943 80.5810584,32.9238943 C77.7800651,32.9238943 75.5104037,30.6103177 75.5104037,27.7562368 C75.5104037,24.9016597 77.7800651,22.5885792 80.5810584,22.5885792 C83.3815649,22.5885792 85.6517131,24.9016597 85.6517131,27.7562368" id="Fill-45" fill="#747474"></path>
                                <path d="M85.0230473,27.7562368 C85.0230473,30.2565962 83.0345076,32.2831772 80.5810827,32.2831772 C78.1276579,32.2831772 76.1391182,30.2565962 76.1391182,27.7562368 C76.1391182,25.2556293 78.1276579,23.2292963 80.5810827,23.2292963 C83.0345076,23.2292963 85.0230473,25.2556293 85.0230473,27.7562368" id="Fill-47" fill="#AAA8A8"></path>
                                <path d="M84.5683118,27.7562368 C84.5683118,30.000607 82.7832506,31.8198169 80.5810097,31.8198169 C78.3785255,31.8198169 76.5937076,30.000607 76.5937076,27.7562368 C76.5937076,25.5116184 78.3785255,23.6926566 80.5810097,23.6926566 C82.7832506,23.6926566 84.5683118,25.5116184 84.5683118,27.7562368" id="Fill-49" fill="#292929"></path>
                                <path d="M80.5810097,30.0830891 C79.3200885,30.0830891 78.2978351,29.0412797 78.2978351,27.7562368 C78.2978351,26.4711938 79.3200885,25.4293844 80.5810097,25.4293844 C81.841931,25.4293844 82.8641844,26.4711938 82.8641844,27.7562368 C82.8641844,29.0412797 81.841931,30.0830891 80.5810097,30.0830891 Z" id="Fill-29" fill="#747474"></path>
                                <path d="M50.8882899,2.47579212 C49.1034721,2.47579212 45.0470457,3.71604977 41.8016125,5.65903741 C38.5561794,7.60202506 33.8099706,11.4468238 33.72892,11.9843515 C33.6478694,12.5218791 34.0942564,13.2660337 35.2299389,13.2660337 L76.8505384,13.2660337 C77.8647667,13.2660337 80.6204885,10.2832141 79.7503502,9.00773308 C78.4528097,7.10617005 69.9135284,2.47579212 66.3438927,2.47579212 L50.8882899,2.47579212 Z" id="Fill-63" fill="#D5E9FD"></path>
                                <polygon id="Fill-65" fill="#E42828" points="51.7117204 13.416455 56.0285288 13.416455 57.3428174 2.4293805 54.9877243 2.4293805"></polygon>
                                <path d="M29.0840855,12.0153083 C29.9055446,12.0153083 30.666155,11.7982632 30.9399748,11.5812181 C31.2137945,11.364173 40.9191828,4.44973659 41.8014908,3.8606142 C42.6837989,3.27149182 42.2274326,2.68236943 41.8014908,2.68236943 L41.7148421,2.68236943 C41.4344507,2.82499906 41.1521121,2.97556634 40.8685566,3.13729594 C35.7979019,6.03131315 29.1546701,10.9973048 27.121589,11.5529402 C27.9566783,11.7727139 28.6150627,12.0153083 29.0840855,12.0153083 Z" id="Fill-67" fill="#D5E9FD"></path>
                                <path d="M74.2903604,1.64613416 C74.1414024,1.81332089 74.1599005,2.08320096 74.517935,2.3726771 C75.1062215,2.84794383 83.1584688,6.85819293 84.1118483,7.35429599 C85.0194694,7.82658611 86.1704859,7.86726656 87.6960877,7.87024318 C85.3884567,6.93484085 76.783702,2.67827658 74.2903604,1.64613416" id="Fill-69" fill="#D5E9FD"></path>
                                <path d="M10.6469874,15.9532008 C9.37476012,16.1508978 6.41799379,16.604336 5.4139881,17.0384262 C4.40998241,17.4725164 1.97602923,19.7461567 2.12815131,20.3767037 C2.28027338,21.0072507 3.49724997,20.821212 5.14016837,20.6351734 C6.78308677,20.4491348 8.63897607,19.9632018 9.70383059,19.1364461 C10.7686851,18.3096903 12.8830602,15.6056806 10.6469874,15.9532008" id="Fill-71" fill="#E1E1E1"></path>
                                <path d="M93.4827,15.1780397 C93.4827,15.863158 94.0274187,16.4182974 94.6996766,16.4182974 L98.6767501,16.4182974 C98.6767501,16.4182974 97.6569297,11.1283504 97.6204204,10.8887326 C97.6060601,10.7954653 97.5943771,10.6947563 97.5822074,10.5890864 L94.6996766,10.5890864 C94.0274187,10.5890864 93.4827,11.1442257 93.4827,11.8293441 L93.4827,15.1780397 Z" id="Fill-75" fill="#E1E1E1" opacity="0.949999988"></path>
                            </g>
                        </g>
                        <g id="car2" transform="translate(42.028923, 117.636903)">
                            <g id="Group-51">
                                <g id="Group-4">
                                    <path d="M53.0939914,2.28699629 C55.0416523,2.28699629 61.8519091,3.00551771 65.2062647,4.69941734 C68.5606204,6.39331696 81.4169508,13.6284242 82.2320592,14.0928607 C83.0471676,14.5572972 84.174841,15.0682389 85.3888128,15.0682389 C86.6030895,15.0682389 95.903498,15.9410592 102.815605,18.4049132 C109.727712,20.8687672 113.110612,25.5785222 113.110612,25.5785222 C113.110612,25.5785222 112.970129,36.7081584 112.741423,36.9647072 L110.718772,38.2700441 L11.600917,38.2700441 C9.35136416,38.2700441 9.18822049,36.3972071 8.27858023,36.3972071 L1.72782859,36.3972071 C1.72782859,36.3972071 1.72782859,24.5137312 1.72782859,23.3329292 L1.72782859,16.4544648 C1.72782859,15.3250957 3.15068527,13.3232143 4.31983069,11.6807477 C5.4889761,10.038281 11.2063228,5.2131309 11.2063228,5.05914002 C11.2063228,4.90514915 10.6723704,4.04711199 11.1041675,3.79579888 C11.5365744,3.54479376 28.9688557,2.28699629 47.0622501,2.28699629 L53.0939914,2.28699629 Z" id="Fill-2" fill="#0059B6"></path>
                                    <mask id="mask-8" fill="white">
                                        <use xlink:href="#path-7"></use>
                                    </mask>
                                    <g id="Clip-3"></g>
                                    <path d="M53.0939914,0.879932456 C55.0416523,0.879932456 61.8519091,1.59845388 65.2062647,3.29235351 C68.5606204,4.98625313 81.4169508,12.2213604 82.2320592,12.6857969 C83.0471676,13.1502334 83.9941557,13.6611751 85.3888128,13.6611751 C86.7834699,13.6611751 95.903498,14.5339954 102.815605,16.9978494 C109.727712,19.4617034 110.083579,20.5907645 111.557361,22.7466367 C113.031143,24.902509 113.097487,25.5911033 113.097487,25.5911033 L112.789803,36.8629802 L11.600917,36.8629802 C9.35136416,36.8629802 9.18822049,34.9901432 8.27858023,34.9901432 L1.72782859,34.9901432 L1.72782859,21.9258654 L1.72782859,15.0474009 C1.72782859,13.9180319 3.15068527,11.9161505 4.31983069,10.2736838 C5.4889761,8.63121715 11.2063228,3.80606706 11.2063228,3.65207619 C11.2063228,3.49808531 10.6723704,2.64004816 11.1041675,2.38873505 C11.5365744,2.13772992 28.9688557,0.879932456 47.0622501,0.879932456 L53.0939914,0.879932456 Z" id="Fill-2" fill="#3092F9" mask="url(#mask-8)"></path>
                                </g>
                                <path d="M80.158793,36.8629802 L80.158793,34.1564366 C80.158793,28.6457192 84.5978252,24.1627368 90.0535322,24.1627368 C95.5098491,24.1627368 99.9485764,28.6457192 99.9485764,34.1564366 L99.9485764,36.8629802 L80.158793,36.8629802 Z" id="Fill-7" fill="#0059B6"></path>
                                <path d="M6.81473943,34.1564058 C6.81473943,28.6456884 11.2537717,24.162706 16.7097836,24.162706 C22.1657956,24.162706 26.6045229,28.6456884 26.6045229,34.1564058 L26.6045229,36.8629494 L11.6007951,36.8629494 C9.35124218,36.8629494 9.18809852,34.9901124 8.2787632,34.9901124 L6.81473943,34.9901124 L6.81473943,34.1564058 Z" id="Fill-9" fill="#0059B6"></path>
                                <path d="M90.0535322,42.7118309 C94.7328584,42.7118309 98.5251099,38.8817698 98.5251099,34.1564058 C98.5251099,29.4304259 94.7328584,25.6006728 90.0535322,25.6006728 C85.374816,25.6006728 81.5825645,29.4304259 81.5825645,34.1564058 C81.5825645,38.8817698 85.374816,42.7118309 90.0535322,42.7118309 Z" id="Fill-11" fill="#363636"></path>
                                <path d="M83.4687796,34.1564058 C83.4687796,37.8293962 86.4169533,40.8066558 90.0536847,40.8066558 C93.691026,40.8066558 96.6385898,37.8293962 96.6385898,34.1564058 C96.6385898,30.4827995 93.691026,27.5058479 90.0536847,27.5058479 C86.4169533,27.5058479 83.4687796,30.4827995 83.4687796,34.1564058" id="Fill-13" fill="#2E2E2E"></path>
                                <path d="M84.1215677,34.1564058 C84.1215677,37.4650538 86.7773026,40.1475748 90.0535932,40.1475748 C93.3304937,40.1475748 95.9856187,37.4650538 95.9856187,34.1564058 C95.9856187,30.8468339 93.3304937,28.1649289 90.0535932,28.1649289 C86.7773026,28.1649289 84.1215677,30.8468339 84.1215677,34.1564058" id="Fill-15" fill="#C2C2C2"></path>
                                <path d="M84.8571169,34.1564058 C84.8571169,37.0551301 87.183515,39.4047228 90.0536237,39.4047228 C92.9240373,39.4047228 95.2504354,37.0551301 95.2504354,34.1564058 C95.2504354,31.2570656 92.9240373,28.9077808 90.0536237,28.9077808 C87.183515,28.9077808 84.8571169,31.2570656 84.8571169,34.1564058" id="Fill-17" fill="#8C8C8C"></path>
                                <path d="M85.3889653,34.1564058 C85.3889653,36.7582357 87.4775091,38.8676027 90.0536542,38.8676027 C92.6304092,38.8676027 94.7183431,36.7582357 94.7183431,34.1564058 C94.7183431,31.55396 92.6304092,29.444901 90.0536542,29.444901 C87.4775091,29.444901 85.3889653,31.55396 85.3889653,34.1564058" id="Fill-19" fill="#292929"></path>
                                <path d="M90.0536542,37.0784973 C91.6690311,37.0784973 92.9779643,35.7701489 92.9779643,34.1563473 C92.9779643,32.5421637 91.6690311,31.2340064 90.0536542,31.2340064 C88.4386597,31.2340064 87.1293442,32.5421637 87.1293442,34.1563473 C87.1293442,35.7701489 88.4386597,37.0784973 90.0536542,37.0784973 Z" id="Fill-19" fill="#8C8C8C" opacity="0.7"></path>
                                <path d="M8.23848043,34.1564058 C8.23848043,38.8817698 12.0310369,42.7118309 16.7097532,42.7118309 C21.3887743,42.7118309 25.1810259,38.8817698 25.1810259,34.1564058 C25.1810259,29.4304259 21.3887743,25.6006728 16.7097532,25.6006728 C12.0310369,25.6006728 8.23848043,29.4304259 8.23848043,34.1564058" id="Fill-21" fill="#363636"></path>
                                <path d="M10.125031,34.1564058 C10.125031,37.8293962 13.0725948,40.8066558 16.7099361,40.8066558 C20.3466675,40.8066558 23.2942313,37.8293962 23.2942313,34.1564058 C23.2942313,30.4827995 20.3466675,27.5058479 16.7099361,27.5058479 C13.0725948,27.5058479 10.125031,30.4827995 10.125031,34.1564058" id="Fill-23" fill="#2E2E2E"></path>
                                <path d="M10.7774837,34.1564058 C10.7774837,37.4650538 13.4335235,40.1475748 16.7098141,40.1475748 C19.9864097,40.1475748 22.6418396,37.4650538 22.6418396,34.1564058 C22.6418396,30.8468339 19.9864097,28.1649289 16.7098141,28.1649289 C13.4335235,28.1649289 10.7774837,30.8468339 10.7774837,34.1564058" id="Fill-25" fill="#C2C2C2"></path>
                                <path d="M11.5130329,34.1564058 C11.5130329,37.0551301 13.839431,39.4047228 16.7098446,39.4047228 C19.5799533,39.4047228 21.9063514,37.0551301 21.9063514,34.1564058 C21.9063514,31.2570656 19.5799533,28.9077808 16.7098446,28.9077808 C13.839431,28.9077808 11.5130329,31.2570656 11.5130329,34.1564058" id="Fill-27" fill="#8C8C8C"></path>
                                <path d="M16.7099056,38.8676027 C19.2863557,38.8676027 21.3745946,36.7582357 21.3745946,34.1564058 C21.3745946,31.55396 19.2863557,29.444901 16.7099056,29.444901 C14.1334555,29.444901 12.0449117,31.55396 12.0449117,34.1564058 C12.0449117,36.7582357 14.1334555,38.8676027 16.7099056,38.8676027 Z" id="Fill-29" fill="#292929"></path>
                                <path d="M16.7098487,37.0784973 C18.3249816,37.0784973 19.6340632,35.7701489 19.6340632,34.1563473 C19.6340632,32.5421637 18.3249816,31.2340064 16.7098487,31.2340064 C15.0947158,31.2340064 13.7854431,32.5421637 13.7854431,34.1563473 C13.7854431,35.7701489 15.0947158,37.0784973 16.7098487,37.0784973 Z" id="Fill-29" fill="#6E6E6E"></path>
                                <path d="M19.5924864,39.0600605 L20.4374791,38.4397852" id="Fill-31" fill="#C2C2C2"></path>
                                <path d="M10.8974172,3.97022134 C11.3716011,4.1362235 11.7814424,4.36720981 11.5240718,4.62714641 C11.0093307,5.14701961 5.55695918,13.185644 5.09954705,13.3781326 C4.64213491,13.5706212 4.62477211,13.5586172 3.32877106,13.5586172 L2.19774333,13.5586172 C2.19774333,13.5586172 2.78128937,12.3222125 4.16765759,10.3949279 C5.17365934,8.98129171 9.69716773,5.09250684 10.8974172,3.97022134 Z" id="Fill-33" fill="#D5E9FD"></path>
                                <path d="M84.0990583,13.5104817 C83.4818569,13.8156916 82.8485857,14.2010306 82.441184,14.1745442 C81.6532154,14.1234192 79.2392991,12.4547741 77.3590303,11.3512755 C75.4787615,10.2477768 65.1610684,4.78110078 64.3734047,4.11370432 C63.7915765,3.62062554 64.326868,3.31421916 64.9952996,3.20765747 C65.4213028,3.36626807 65.7435065,3.57381232 66.1012028,3.75428962 C69.4555585,5.44818925 82.3118888,12.6832965 83.1269973,13.147733 C83.3865024,13.2955642 83.783139,13.371274 84.0990583,13.5104817 Z" id="Fill-35" fill="#D5E9FD"></path>
                                <path d="M74.4057071,12.7889708 C75.0155899,13.3023764 74.9646647,14.4314374 73.1350162,14.4314374 L20.4374791,14.4314374 C19.1603844,14.4314374 18.5913637,13.8665989 17.6817234,11.9161505 C16.7717782,9.96570207 15.4614449,4.67857936 15.7355873,4.37059761 C16.0094247,4.06261586 24.2934634,2.36871624 44.7754639,2.36871624 C46.9100538,2.36871624 56.0582965,2.57414006 61.3438462,4.73001232 C66.6293959,6.88588457 73.7958242,12.2755652 74.4057071,12.7889708" id="Fill-37" fill="#D5E9FD"></path>
                                <path d="M42.9157481,14.4314374 L38.2190403,14.4314374 L38.2190403,2.43092855 C39.1122138,2.41368157 40.0349665,2.39920643 40.9885183,2.38873505 L42.9157481,14.4314374 Z" id="Fill-43" fill="#3092F9"></path>
                                <path d="M106.726235,19.4617034 C108.454033,20.7961883 110.63614,23.6949248 110.63614,23.6949248 C110.63614,23.6949248 104.744116,24.2665267 102.863542,23.4553027 C100.982968,22.6440788 99.7437067,18.6202871 99.7437067,18.6202871 C99.7437067,18.6202871 104.998437,18.1272185 106.726235,19.4617034 Z" id="Fill-45" fill="#E1E1E1" opacity="0.9"></path>
                                <path d="M1.72782859,21.9258654 L1.72782859,16.17677 L5.0605334,16.17677 C5.38102684,16.17677 5.64114187,16.4394785 5.64114187,16.7631673 L5.64114187,22.1667071 C5.64114187,22.4907039 5.38102684,22.7534123 5.0605334,22.7534123 L1.5482181,22.7534123 C1.65769207,22.4432747 1.72782859,22.1608554 1.72782859,21.9258654" id="Fill-49" fill="#E1E1E1"></path>
                            </g>
                        </g>
                    </g>
                </g>
            </g>
        </g>
    </g>
</svg>