<svg width="242" height="228" viewBox="0 0 242 228" xmlns="http://www.w3.org/2000/svg" xmlns:xlink="http://www.w3.org/1999/xlink"><title>car_ill</title><defs><path id="a" d="M0 .126v33.048h87.935V.126H0z"/><path id="c" d="M.04 14.178h14.024V.179H.04z"/><path id="e" d="M.19 14.178h14.026V.179H.19v13.999z"/><path id="g" d="M0 .054v35.983h113.898V.054z"/></defs><g fill="none" fill-rule="evenodd"><path d="M38.262 182c20.467 26.748 52.72 44 89.002 44 61.855 0 112-50.144 112-112s-50.145-112-112-112C97.237 2 69.97 13.816 49.859 33.052A7.006 7.006 0 0 1 56 40c0 3.866-3.133 7-6.998 7H37.506c-13.97 18.684-22.242 41.876-22.242 67 0 19.58 5.024 37.986 13.854 54h11.884c3.865 0 6.998 3.142 6.998 7 0 3.866-3.124 7-6.998 7h-2.74z" fill="#D8D8D8"/><rect fill="#D8D8D8" x="25" y="19" width="95" height="14" rx="7"/><rect fill="#D8D8D8" x="7" y="47" width="79" height="14" rx="7"/><rect fill="#D8D8D8" x="16" y="182" width="82" height="14" rx="7"/><rect fill="#D8D8D8" x="2" y="154" width="89" height="14" rx="7"/><g transform="translate(30.123 24.14)"><ellipse opacity=".8" cx="150.207" cy="94.439" rx="46.122" ry="3.77"/><ellipse fill="#858585" opacity=".32" cx="100.642" cy="34.984" rx="46" ry="3.77"/><ellipse fill="#858585" opacity=".32" cx="147.317" cy="92.786" rx="42.349" ry="3.77"/><ellipse fill="#858585" opacity=".32" cx="43.208" cy="93.195" rx="42.349" ry="3.77"/><path d="M138.874 61.19h5.934c3.144 0 7.303.078 13.043 2.521 5.74 2.443 16.133 7.502 17.302 7.838 1.17.336 5.5.761 10.603 1.92 5.102 1.158 7.62 2.019 8.382 2.383.762.364 2.65 4.303 3.015 4.634.365.33.597.86.597 1.82v5.858c0 .662-1.657 2.185-2.75 2.185h-71.815c-3.926 0-11.747-1.484-13.833-1.484h-7.123c-.861 0-2.319-2.223-2.319-2.852v-6.19c0-.463 2.331-2.214 2.331-3.67 0-.702-.509-1.8-.509-2.563v-1.776c0-.497 7.94-7.712 7.94-7.712s10.581-2.912 13.033-2.912h16.169z" fill="#002B58"/><path d="M138.874 60.105h5.934c3.144 0 7.303.079 13.043 2.522 5.74 2.443 16.133 7.501 17.302 7.838 1.17.336 5.5.76 10.603 1.92 5.102 1.158 6.267 1.524 8.38 2.508 2.113.984 3.614 5.88 3.614 6.328v5.859c0 .662-1.657 2.184-2.75 2.184h-71.815c-3.926 0-11.747-1.484-13.833-1.484h-7.123c-.861 0-2.319-2.223-2.319-2.852V78.74c0-.463 1.822-8.01 1.822-8.01 0-.496 7.94-7.711 7.94-7.711s-.982-.695-.551-.86c.43-.166 11.132-2.053 13.584-2.053h16.169z" fill="#0054AB"/><path d="M188.174 89.264h-18.421V87.75c0-5.073 4.132-9.201 9.21-9.201 5.08 0 9.211 4.128 9.211 9.201v1.514zm-64.989 0c-3.926 0-11.747-1.484-13.834-1.484h-1.705v-.03c0-5.073 4.132-9.201 9.21-9.201 5.08 0 9.211 4.128 9.211 9.201v1.514h-2.882z" fill="#002B58"/><path d="M171.078 87.75c0 4.35 3.53 7.877 7.886 7.877 4.355 0 7.885-3.526 7.885-7.877s-3.53-7.877-7.885-7.877c-4.356 0-7.886 3.526-7.886 7.877" fill="#363636"/><path d="M172.834 87.75a6.126 6.126 0 0 0 6.13 6.123 6.126 6.126 0 0 0 6.129-6.123 6.126 6.126 0 0 0-6.13-6.123 6.126 6.126 0 0 0-6.129 6.123" fill="#2E2E2E"/><path d="M173.442 87.75a5.519 5.519 0 0 0 5.522 5.516 5.52 5.52 0 0 0 5.522-5.516 5.518 5.518 0 0 0-5.522-5.516 5.519 5.519 0 0 0-5.522 5.516" fill="#C2C2C2"/><path d="M174.126 87.75a4.835 4.835 0 0 0 4.838 4.832 4.835 4.835 0 0 0 4.837-4.832 4.834 4.834 0 0 0-4.837-4.832 4.834 4.834 0 0 0-4.838 4.832" fill="#8C8C8C"/><path d="M178.964 91.445a3.697 3.697 0 0 0 3.699-3.695 3.697 3.697 0 0 0-3.7-3.695 3.697 3.697 0 0 0-3.699 3.695 3.697 3.697 0 0 0 3.7 3.695z" fill="#3E3E3E"/><path d="M108.97 87.75c0 4.35 3.53 7.877 7.886 7.877s7.886-3.526 7.886-7.877-3.53-7.877-7.886-7.877c-4.355 0-7.885 3.526-7.885 7.877" fill="#363636"/><path d="M110.727 87.75a6.126 6.126 0 0 0 6.13 6.123 6.126 6.126 0 0 0 6.129-6.123 6.126 6.126 0 0 0-6.13-6.123 6.126 6.126 0 0 0-6.13 6.123" fill="#2E2E2E"/><path d="M111.334 87.75a5.519 5.519 0 0 0 5.522 5.516 5.52 5.52 0 0 0 5.522-5.516 5.518 5.518 0 0 0-5.522-5.516 5.519 5.519 0 0 0-5.522 5.516" fill="#C2C2C2"/><path d="M112.019 87.75a4.835 4.835 0 0 0 4.837 4.832 4.835 4.835 0 0 0 4.838-4.832 4.834 4.834 0 0 0-4.838-4.832 4.834 4.834 0 0 0-4.837 4.832" fill="#8C8C8C"/><path d="M113.157 87.75a3.697 3.697 0 0 0 3.7 3.695 3.697 3.697 0 0 0 3.699-3.695 3.697 3.697 0 0 0-3.7-3.695 3.697 3.697 0 0 0-3.699 3.695" fill="#3E3E3E"/><path d="M109.783 64.452c-.618.728-5.5 5.296-5.743 5.406-.243.11-.618.508-1.811.508h-.25c1.332-1.567 7.694-7.348 7.694-7.348.42.265.728.706.11 1.434zm66.732 6.28c-.644.223-1.176.512-1.77.604-.995.155-2.673-.154-3.16-.419-.485-.265-15.925-7.723-16.72-8.12-.795-.397-.685-1.037 0-1.037h.737c.722.25 1.47.535 2.249.867 5.74 2.443 16.133 7.502 17.302 7.838.282.08.748.167 1.362.267m-60.987-1.691c-.709-1.191-2.034-4.302-1.703-4.567.332-.265 9.244-2.085 13.253-2.085h19.648c1.524 0 5.71 1.49 10.171 3.607 3.112 1.478 6.793 3.608 7.323 3.972.53.364 1.06 1.688-.232 1.688h-44.63c-1.325 0-3.122-1.423-3.83-2.615" fill="#D5E9FD"/><path d="M122.703 71.739h-3.337c-.34 0-.763-.099-1.139-.259l2.678-8.588c.985-.155 1.96-.286 2.902-.396l-1.104 9.243zm23.581-.035l-4.456.055-1.055-9.45h2.648z" fill="#0054AB"/><path d="M192.713 75.297c.73.298 2.386 1.892 2.585 2.75.199.857-.265 1.056-1.26.692-.993-.364-5.135-1.82-5.466-1.953-.331-.132-3.048-2.548-3.148-2.714-.099-.165.116-.562.928-.43 1.071.175 5.633 1.357 6.361 1.655z" fill="#E1E1E1" opacity=".9"/><path d="M51.09 60.978c5.23 2.61 15.68 9.006 16.203 9.006.524 0 2.16.118 3.307.281 5.366.764 13.475 3.718 14.904 5.428 1.429 1.71 1.203 3.78 1.7 4.59.496.81 1.217.72 1.217 2.07v1.71c0 .383.067 1.013-.812 1.013s-2.964 1.755-2.964 2.958c0 1.205.687 1.137 1.138 1.137h2.64c.2 0 .426.36.268.968-.158.607-.81 1.62-2.412 1.62H17.456s-6.447-1.666-8.746-1.666H3.57c-.541 0-1.465-1.17-1.961-2.677-.496-1.508-.924-4.86-.766-5.333C1 81.611 2.42 80.868 2.42 79.9v-8.55c0-.36 6.83-8.775 6.898-8.82.067-.045-.654-.473-.384-.72.27-.248 12.545-3.1 16.738-3.1s11.306.017 11.306.017c1.668 0 8.881-.36 14.11 2.25z" fill="#A20101"/><g transform="matrix(-1 0 0 1 88.744 57.609)"><mask id="b" fill="#fff"><use xlink:href="#a"/></mask><path d="M37.654 2.393c-5.23 2.61-15.679 9.006-16.203 9.006-.524 0-2.16.118-3.307.281-5.366.764-13.474 3.718-14.904 5.428-1.429 1.71-2.172 3.46-2.668 4.27-.496.81-.249 2.39-.249 2.39l-.27 7.786s.811 1.62 2.412 1.62h68.823s6.447-1.666 8.747-1.666h5.14c.54 0 1.464-1.17 1.96-2.677.496-1.508.924-4.86.767-5.333-.158-.472-1.578-10.733-1.578-10.733 0-.36-6.83-8.775-6.898-8.82-.068-.045.654-.473.383-.72-.27-.247-12.545-3.1-16.738-3.1S51.766.143 51.766.143c-1.668 0-8.882-.36-14.112 2.25z" fill="#E42828" mask="url(#b)"/></g><path d="M11.5 80.323c4.517 0 8.19 3.668 8.19 8.175v2.285h-2.234s-6.447-1.666-8.746-1.666H3.57a.59.59 0 0 1-.26-.075v-.544c0-4.507 3.674-8.175 8.19-8.175m51.716 8.175c0-4.507 3.674-8.175 8.19-8.175 4.517 0 8.191 3.668 8.191 8.175v2.285H63.216v-2.285z" fill="#A20202"/><g transform="matrix(-1 0 0 1 78.459 81.32)"><mask id="d" fill="#fff"><use xlink:href="#c"/></mask><path d="M14.064 7.179c0 3.865-3.139 6.999-7.012 6.999-3.873 0-7.012-3.134-7.012-7C.04 3.314 3.18.18 7.052.18c3.873 0 7.012 3.134 7.012 7" fill="#363636" mask="url(#d)"/></g><path d="M65.956 88.498a5.445 5.445 0 0 0 5.45 5.441c3.01 0 5.45-2.436 5.45-5.44 0-3.006-2.44-5.44-5.45-5.44a5.445 5.445 0 0 0-5.45 5.44" fill="#2E2E2E"/><path d="M66.496 88.498a4.906 4.906 0 0 0 4.91 4.902 4.906 4.906 0 0 0 4.91-4.902 4.905 4.905 0 0 0-4.91-4.9 4.906 4.906 0 0 0-4.91 4.9" fill="#9A9999"/><path d="M67.105 88.498a4.297 4.297 0 0 0 4.301 4.294 4.297 4.297 0 0 0 4.302-4.294 4.297 4.297 0 0 0-4.302-4.293 4.297 4.297 0 0 0-4.301 4.293" fill="#6D6E72"/><path d="M67.545 88.498a3.858 3.858 0 0 0 3.861 3.855 3.858 3.858 0 0 0 3.862-3.855 3.857 3.857 0 0 0-3.862-3.854 3.857 3.857 0 0 0-3.86 3.854" fill="#474747"/><g transform="matrix(-1 0 0 1 18.704 81.32)"><mask id="f" fill="#fff"><use xlink:href="#e"/></mask><path d="M14.216 7.179c0 3.865-3.14 6.999-7.013 6.999-3.873 0-7.012-3.134-7.012-7C.19 3.314 3.33.18 7.203.18c3.873 0 7.013 3.134 7.013 7" fill="#363636" mask="url(#f)"/></g><path d="M6.05 88.498a5.445 5.445 0 0 0 5.45 5.441 5.445 5.445 0 0 0 5.45-5.44 5.443 5.443 0 0 0-5.45-5.44 5.445 5.445 0 0 0-5.45 5.44" fill="#2E2E2E"/><path d="M6.59 88.498A4.906 4.906 0 0 0 11.5 93.4a4.905 4.905 0 0 0 4.91-4.902 4.905 4.905 0 0 0-4.91-4.9 4.905 4.905 0 0 0-4.91 4.9" fill="#9A9999"/><path d="M11.5 92.792a4.297 4.297 0 0 0 4.302-4.294 4.297 4.297 0 0 0-4.301-4.293 4.297 4.297 0 0 0-4.302 4.293 4.297 4.297 0 0 0 4.302 4.294z" fill="#6D6E72"/><path d="M7.64 88.498a3.858 3.858 0 0 0 3.86 3.855 3.857 3.857 0 0 0 3.862-3.855 3.857 3.857 0 0 0-3.861-3.854 3.858 3.858 0 0 0-3.862 3.854" fill="#474747"/><path d="M65.033 69.722c-1.082.27-2.266.202-3.585-.777-1.318-.979-6.12-4.556-8.081-5.67-1.962-1.114-3.922-2.306-4.418-2.532-.497-.224-.429-.81.405-.945.268-.043.707-.058 1.18-.06.187.085.373.172.556.263 5.23 2.61 15.68 9.006 16.203 9.006-.894.304-1.802.6-2.26.715m-50.586-6.177c-.237-.506-.22-1.57 2.029-2.059 1.416-.308 9.069-1.147 18.293-1.147 2.333 0 6.425-.44 11.7 1.62 5.275 2.059 9.907 6.007 10.077 6.818.168.81.236 1.822-1.556 1.822H20.534c-1.049 0-2.3-.236-3.18-1.755-.878-1.519-2.67-4.793-2.907-5.299m-11.816 6.47h1.187c1.668 0 1.871-.27 2.277-.72.406-.451 2.908-4.951 3.494-6.076.586-1.125.338-1.418-.428-1.418H9.11c-1.017 1.231-5.463 6.732-6.48 8.213" fill="#D5E9FD"/><path d="M38.772 71.387h-4.567l-2.895-12.05c.88-.018 1.772.005 2.69 0l4.772 12.05z" fill="#E42828"/><path d="M83.056 75.068c1.305.67 2.364 2.488 2.438 3.214.074.726-.271.913-.936.592-.664-.322-4.432-2.153-4.95-2.457-.516-.303-3.382-2.72-2.56-2.608 0 0 4.703.59 6.008 1.26z" fill="#E1E1E1" opacity=".9"/><ellipse fill="#858585" opacity=".32" cx="99.026" cy="159.066" rx="54.508" ry="3.77"/><path d="M108.008 4.824c5.071 2.894 11.715 7.86 13.747 8.416 2.033.556 11.486.68 16.475 2.333 4.99 1.654 9.452 3.146 10.222 6.927v9.515l-2.372 1.16H74.675c-3.192 0-12.668-2.533-13.865-2.533h-7.18c-1.034 0-3.022-.827-3.793-3.245-.77-2.419-.67-4.238-.527-4.651.142-.414 1.095-.537 1.095-1.695 0-.434.103-1.604.238-2.945.048-.467.298-.887.35-1.372.095-.88-.005-1.817.08-2.536.092-.78.168-1.383.204-1.622.142-.93.04-2.584 2.536-2.584 2.494 0 5.659.082 6.916-.269 1.258-.351 11.534-5.46 14.009-6.452 2.474-.992 7.146-1.059 9.316-1.059 2.17 0 12.23.008 12.23.008 2.029 0 6.654-.29 11.724 2.604z" fill="#A20202"/><path d="M108.008 3.998c5.071 2.894 11.715 7.86 13.747 8.416 2.033.555 11.486.68 16.475 2.333 4.99 1.654 9.452 3.145 10.222 6.926v9.729l-2.372.946H74.675c-3.192 0-12.668-2.532-13.865-2.532h-7.18c-1.034 0-3.022-.827-3.793-3.246-.77-2.418-.634-4.09-.527-4.65.107-.56 1.93-9.931 1.967-10.17.142-.93.04-2.584 2.536-2.584 2.494 0 5.659.082 6.916-.27 1.258-.35 11.534-5.46 14.009-6.452 2.474-.992 7.146-1.058 9.316-1.058 2.17 0 12.23.008 12.23.008 2.029 0 6.654-.29 11.724 2.604z" fill="#E42828"/><path d="M59.838 28.617c0-4.753 3.794-8.62 8.458-8.62s8.458 3.867 8.458 8.62v3.731h-2.079c-3.192 0-12.668-2.532-13.865-2.532h-.972v-1.2zm62.693 0c0-4.753 3.794-8.62 8.458-8.62s8.458 3.867 8.458 8.62v3.731h-16.916v-3.731z" fill="#A20202"/><path d="M123.748 28.617c0 4.076 3.242 7.38 7.241 7.38 4 0 7.241-3.304 7.241-7.38 0-4.076-3.241-7.38-7.24-7.38-4 0-7.242 3.304-7.242 7.38" fill="#363636"/><path d="M125.36 28.617c0 3.168 2.52 5.736 5.63 5.736 3.108 0 5.628-2.568 5.628-5.736 0-3.168-2.52-5.736-5.629-5.736-3.109 0-5.628 2.568-5.628 5.736" fill="#2E2E2E"/><path d="M125.918 28.617c0 2.854 2.27 5.168 5.071 5.168 2.801 0 5.07-2.314 5.07-5.168 0-2.855-2.269-5.168-5.07-5.168-2.8 0-5.07 2.313-5.07 5.168" fill="#747474"/><path d="M126.547 28.617c0 2.5 1.989 4.527 4.442 4.527 2.454 0 4.442-2.027 4.442-4.527s-1.988-4.527-4.442-4.527c-2.453 0-4.442 2.026-4.442 4.527" fill="#AAA8A8"/><path d="M127.002 28.617c0 2.244 1.785 4.063 3.987 4.063 2.203 0 3.987-1.819 3.987-4.063 0-2.245-1.784-4.064-3.987-4.064-2.202 0-3.987 1.82-3.987 4.064" fill="#292929"/><path d="M130.99 30.944c1.26 0 2.282-1.042 2.282-2.327s-1.022-2.327-2.283-2.327c-1.26 0-2.283 1.042-2.283 2.327s1.022 2.327 2.283 2.327z" fill="#747474"/><path d="M61.055 28.617c0 4.076 3.242 7.38 7.241 7.38 4 0 7.241-3.304 7.241-7.38 0-4.076-3.241-7.38-7.241-7.38-4 0-7.241 3.304-7.241 7.38" fill="#363636"/><path d="M62.667 28.617c0 3.168 2.52 5.736 5.629 5.736 3.109 0 5.629-2.568 5.629-5.736 0-3.168-2.52-5.736-5.629-5.736-3.109 0-5.629 2.568-5.629 5.736" fill="#2E2E2E"/><path d="M63.225 28.617c0 2.854 2.27 5.168 5.071 5.168 2.801 0 5.07-2.314 5.07-5.168 0-2.855-2.269-5.168-5.07-5.168-2.8 0-5.07 2.313-5.07 5.168" fill="#747474"/><path d="M63.854 28.617c0 2.5 1.989 4.527 4.442 4.527 2.453 0 4.442-2.027 4.442-4.527s-1.989-4.527-4.442-4.527c-2.453 0-4.442 2.026-4.442 4.527" fill="#AAA8A8"/><path d="M64.309 28.617c0 2.244 1.785 4.063 3.987 4.063 2.203 0 3.987-1.819 3.987-4.063 0-2.245-1.784-4.064-3.987-4.064-2.202 0-3.987 1.82-3.987 4.064" fill="#292929"/><path d="M68.296 30.944c1.261 0 2.283-1.042 2.283-2.327s-1.022-2.327-2.283-2.327c-1.26 0-2.283 1.042-2.283 2.327s1.022 2.327 2.283 2.327z" fill="#747474"/><path d="M97.989 3.336c1.785 0 5.841 1.24 9.086 3.184 3.246 1.943 7.992 5.787 8.073 6.325.081.538-.365 1.282-1.5 1.282H72.026c-1.015 0-3.77-2.983-2.9-4.259 1.297-1.901 9.837-6.532 13.406-6.532H97.99z" fill="#D5E9FD"/><path fill="#E42828" d="M97.165 14.277H92.85L91.534 3.29h2.355z"/><path d="M119.793 12.876c-.821 0-1.582-.217-1.856-.434s-9.98-7.132-10.861-7.72c-.883-.59-.426-1.179 0-1.179h.086c.28.143.563.293.847.455 5.07 2.894 11.713 7.86 13.746 8.416-.835.22-1.493.462-1.962.462zM74.587 2.507c.149.167.13.437-.228.726-.588.476-8.64 4.486-9.594 4.982-.907.472-2.058.513-3.584.516 2.308-.936 10.912-5.192 13.406-6.224" fill="#D5E9FD"/><path d="M138.23 16.814c1.272.198 4.23.651 5.233 1.085 1.004.434 3.438 2.708 3.286 3.338-.152.63-1.37.445-3.012.259-1.643-.186-3.499-.672-4.564-1.499-1.065-.827-3.179-3.53-.943-3.183" fill="#E1E1E1"/><path d="M55.394 16.039c0 .685-.544 1.24-1.217 1.24H50.2s1.02-5.29 1.057-5.53c.014-.093.026-.194.038-.3h2.882c.673 0 1.217.556 1.217 1.241v3.349z" fill="#E1E1E1" opacity=".95"/><g transform="translate(42.029 117.637)"><path d="M53.094 2.287c1.948 0 8.758.719 12.112 2.412 3.355 1.694 16.211 8.93 17.026 9.394.815.464 1.943.975 3.157.975s10.514.873 17.427 3.337c6.912 2.464 10.295 7.174 10.295 7.174s-.14 11.13-.37 11.386l-2.022 1.305H11.6c-2.25 0-2.413-1.873-3.322-1.873h-6.55V16.454c0-1.129 1.423-3.13 2.592-4.773 1.169-1.643 6.886-6.468 6.886-6.622 0-.154-.534-1.012-.102-1.263.433-.251 17.865-1.509 35.958-1.509h6.032z" fill="#0059B6"/><mask id="h" fill="#fff"><use xlink:href="#g"/></mask><path d="M53.094.88c1.948 0 8.758.718 12.112 2.412 3.355 1.694 16.211 8.93 17.026 9.394.815.464 1.762.975 3.157.975 1.394 0 10.514.873 17.427 3.337 6.912 2.464 7.268 3.593 8.741 5.749 1.474 2.156 1.54 2.844 1.54 2.844l-.307 11.272H11.6c-2.249 0-2.412-1.873-3.321-1.873H1.728V15.047c0-1.129 1.423-3.13 2.592-4.773 1.169-1.643 6.886-6.468 6.886-6.622 0-.154-.534-1.012-.102-1.263.433-.251 17.865-1.51 35.958-1.51h6.032z" fill="#3092F9" mask="url(#h)"/></g><path d="M122.188 154.5v-2.707c0-5.51 4.439-9.993 9.894-9.993 5.457 0 9.895 4.483 9.895 9.993v2.707h-19.79zm-73.344-2.707c0-5.51 4.439-9.993 9.895-9.993 5.456 0 9.894 4.483 9.894 9.993v2.707H53.63c-2.25 0-2.413-1.873-3.322-1.873h-1.464v-.834z" fill="#0059B6"/><path d="M132.082 160.349c4.68 0 8.472-3.83 8.472-8.556 0-4.726-3.792-8.555-8.472-8.555-4.678 0-8.47 3.83-8.47 8.555 0 4.726 3.792 8.556 8.47 8.556z" fill="#363636"/><path d="M125.498 151.793c0 3.673 2.948 6.65 6.585 6.65s6.585-2.977 6.585-6.65c0-3.673-2.948-6.65-6.585-6.65s-6.585 2.977-6.585 6.65" fill="#2E2E2E"/><path d="M126.15 151.793c0 3.309 2.656 5.991 5.933 5.991 3.276 0 5.932-2.682 5.932-5.99 0-3.31-2.656-5.992-5.932-5.992-3.277 0-5.933 2.682-5.933 5.991" fill="#C2C2C2"/><path d="M126.886 151.793c0 2.899 2.326 5.249 5.197 5.249 2.87 0 5.196-2.35 5.196-5.249 0-2.899-2.326-5.248-5.196-5.248-2.87 0-5.197 2.349-5.197 5.248" fill="#8C8C8C"/><path d="M127.418 151.793c0 2.602 2.088 4.712 4.665 4.712 2.576 0 4.664-2.11 4.664-4.712s-2.088-4.711-4.664-4.711c-2.577 0-4.665 2.109-4.665 4.711" fill="#292929"/><path d="M132.083 154.715a2.923 2.923 0 1 0 0-5.844 2.923 2.923 0 1 0 0 5.844z" fill="#8C8C8C" opacity=".7"/><path d="M50.267 151.793c0 4.726 3.793 8.556 8.472 8.556 4.679 0 8.47-3.83 8.47-8.556 0-4.726-3.791-8.555-8.47-8.555s-8.472 3.83-8.472 8.555" fill="#363636"/><path d="M52.154 151.793c0 3.673 2.948 6.65 6.585 6.65s6.584-2.977 6.584-6.65c0-3.673-2.947-6.65-6.584-6.65-3.637 0-6.585 2.977-6.585 6.65" fill="#2E2E2E"/><path d="M52.806 151.793c0 3.309 2.656 5.991 5.933 5.991 3.276 0 5.932-2.682 5.932-5.99 0-3.31-2.656-5.992-5.932-5.992-3.277 0-5.933 2.682-5.933 5.991" fill="#C2C2C2"/><path d="M53.542 151.793c0 2.899 2.326 5.249 5.197 5.249 2.87 0 5.196-2.35 5.196-5.249 0-2.899-2.326-5.248-5.196-5.248-2.87 0-5.197 2.349-5.197 5.248" fill="#8C8C8C"/><path d="M58.739 156.505c2.576 0 4.665-2.11 4.665-4.712s-2.089-4.711-4.665-4.711c-2.577 0-4.665 2.109-4.665 4.711 0 2.602 2.088 4.712 4.665 4.712z" fill="#292929"/><path d="M58.739 154.715a2.923 2.923 0 1 0-2.925-2.922 2.923 2.923 0 0 0 2.925 2.922z" fill="#6E6E6E"/><path d="M61.621 156.697l.845-.62" fill="#C2C2C2"/><path d="M52.926 121.607c.475.166.884.397.627.657-.515.52-5.967 8.559-6.425 8.751-.457.193-.474.18-1.77.18h-1.131s.583-1.236 1.97-3.163c1.006-1.414 5.53-5.303 6.73-6.425zm73.202 9.54c-.617.306-1.25.69-1.658.664-.788-.05-3.202-1.72-5.082-2.823s-12.198-6.57-12.986-7.237c-.582-.493-.046-.8.622-.906.426.158.748.366 1.106.546 3.354 1.694 16.21 8.93 17.026 9.394.26.147.656.223.972.362zm-9.693-.721c.61.513.559 1.642-1.271 1.642H62.466c-1.277 0-1.846-.564-2.755-2.515-.91-1.95-2.22-7.238-1.946-7.545.273-.308 8.557-2.002 29.04-2.002 2.134 0 11.282.205 16.568 2.36 5.285 2.157 12.452 7.546 13.062 8.06" fill="#D5E9FD"/><path d="M84.945 132.068h-4.697v-12c.893-.017 1.816-.032 2.77-.042l1.927 12.042z" fill="#3092F9"/><path d="M148.755 137.099c1.728 1.334 3.91 4.233 3.91 4.233s-5.892.571-7.773-.24c-1.88-.811-3.12-4.835-3.12-4.835s5.255-.493 6.983.842z" fill="#E1E1E1" opacity=".9"/><path d="M43.757 139.563v-5.75h3.332c.32 0 .581.263.581.587v5.404c0 .324-.26.586-.58.586h-3.513c.11-.31.18-.592.18-.827" fill="#E1E1E1"/></g></g></svg>