<?xml version="1.0" encoding="UTF-8"?>
<svg viewBox="0 0 3000 484" version="1.1" xmlns="http://www.w3.org/2000/svg" xmlns:xlink="http://www.w3.org/1999/xlink">
    <!-- Generator: Sketch 41.2 (35397) - http://www.bohemiancoding.com/sketch -->
    <title>Artboard 3</title>
    <desc>Created with Sketch.</desc>
    <defs></defs>
    <g id="Page-1" stroke="none" stroke-width="1" fill="none" fill-rule="evenodd">
        <g id="Artboard-3">
            <g id="line_background" transform="translate(0.000000, 67.000000)">
                <g id="Group-7" transform="translate(0.000000, 95.000000)">
                    <circle id="Oval-3-Copy" fill="#ECECEC" cx="1882" cy="101" r="9"></circle>
                    <circle id="Oval-3-Copy" fill="#ECECEC" cx="2339" cy="101" r="9"></circle>
                    <path d="M3000,101.00428 L1882,101" id="Rectangle-9" stroke="#ECECEC" stroke-width="4"></path>
                    <circle id="Oval-3-Copy" fill="#ECECEC" cx="940" cy="146" r="9"></circle>
                    <path d="M2146,9 L3000,9.00000006" id="Path" stroke="#ECECEC" stroke-width="4"></path>
                    <circle id="Oval-3-Copy" fill="#ECECEC" cx="2141" cy="9" r="9"></circle>
                    <circle id="Oval-3-Copy" fill="#ECECEC" cx="2689" cy="9" r="9"></circle>
                    <path d="M2044,155 L2961.53676,155 C2982.77942,155 3000,174.899734 3000,199.459359 C3000,224.013585 2982.77689,243.918719 2961.53676,243.918719 L2044,243.918719" id="Rectangle-9" stroke="#ECECEC" stroke-width="4" transform="translate(2522.000000, 199.459359) rotate(-180.000000) translate(-2522.000000, -199.459359) "></path>
                    <path d="M944.959893,147 L1098.53676,147 C1119.77942,147 1137,166.899734 1137,191.459359 C1137,216.013585 1119.77689,235.918719 1098.53676,235.918719 L0,235.918719" id="Rectangle-9" stroke="#ECECEC" stroke-width="4"></path>
                </g>
                <path d="M973,9 L0,9" id="Rectangle-9" stroke="#ECECEC" stroke-width="4"></path>
                <circle id="Oval-3-Copy-3" fill="#ECECEC" cx="978" cy="9" r="9"></circle>
                <circle id="Oval-3-Copy-3" fill="#ECECEC" cx="335" cy="9" r="9"></circle>
            </g>
        </g>
    </g>
</svg>
